<?xml version="1.0" encoding="UTF-8"?>
<svg width="400px" height="300px" viewBox="0 0 400 300" version="1.1" xmlns="http://www.w3.org/2000/svg" xmlns:xlink="http://www.w3.org/1999/xlink">
    <!-- Generator: Sketch 43.2 (39069) - http://www.bohemiancoding.com/sketch -->
    <title>albanien</title>
    <desc>Created with Sketch.</desc>
    <defs></defs>
    <g id="Page-1" stroke="none" stroke-width="1" fill="none" fill-rule="evenodd">
        <g id="albanien">
            <polygon id="AL" stroke="#FFFFFF" stroke-linejoin="round" points="162.225131 20 135 62.1989529 141.806283 88.0628272 141.806283 88.0628272 155.418848 101.675393 148.612565 127.539267 147.251309 186.073298 156.780105 226.910995 197.617801 255.497382 200.340314 274.554974 213.95288 280 242.539267 239.162304 243.900524 210.575916 265.680628 198.324607 265.680628 176.544503 234.371728 154.764398 222.120419 119.371728 227.565445 90.7853403 227.565445 90.7853403 220.759162 59.4764398 203.062827 51.3089005 185.366492 29.5287958 167.670157 36.3350785 162.225131 20"></polygon>
            <polyline id="route" stroke="#00D4FA" points="247 270 175 242 197 257 198 233 185 188 173 132 245 95"></polyline>
            <circle id="tirana" stroke="#34DCFB" fill="#222230" cx="173" cy="132" r="8"></circle>
            <circle id="berat" stroke="#34DCFB" fill="#222230" cx="185" cy="188" r="8"></circle>
            <circle id="saranda" stroke="#34DCFB" fill="#222230" cx="197" cy="256" r="8"></circle>
            <circle id="Gjirokastra" stroke="#34DCFB" fill="#222230" cx="197" cy="233" r="8"></circle>
            <circle id="dhermi" stroke="#34DCFB" fill="#222230" cx="175" cy="242" r="8"></circle>
        </g>
    </g>
</svg>