<?xml version="1.0" encoding="UTF-8"?>
<svg width="400px" height="300px" viewBox="0 0 400 300" version="1.1" xmlns="http://www.w3.org/2000/svg" xmlns:xlink="http://www.w3.org/1999/xlink">
    <!-- Generator: Sketch 43.2 (39069) - http://www.bohemiancoding.com/sketch -->
    <title>azerbaidschan</title>
    <desc>Created with Sketch.</desc>
    <defs></defs>
    <g id="Page-1" stroke="none" stroke-width="1" fill="none" fill-rule="evenodd">
        <g id="azerbaidschan">
            <polygon id="AZ" stroke="#FFFFFF" stroke-linejoin="round" points="174.026432 65.814978 124.77533 22.2907489 107.594714 20 94.9955947 30.30837 131.647577 69.2511013 124.77533 77.2687225 92.7048458 72.6872247 44.5991189 52.0704846 32 63.5242291 48.0352423 82.9955947 73.2334802 95.5947137 65.215859 112.77533 100.722467 137.973568 89.2687225 160.881057 117.903084 180.352423 146.537445 192.951542 156.845815 243.348018 217.550661 189.515419 239.312775 183.788546 261.07489 205.550661 247.330396 241.057269 290.854626 280 305.744493 276.563877 296.581498 239.911894 316.052863 222.731278 320.634361 197.53304 319.488987 140.264317 367.594714 134.537445 344.687225 115.066079 316.052863 112.77533 275.964758 61.2334802 237.022026 24.5814978 237.022026 24.5814978 207.242291 53.215859 201.515419 70.3964758 174.026432 65.814978"></polygon>
            <polyline id="route" stroke="#00D4FA" points="101 64 192.100039 88.8865492 334 128 164 77"></polyline>
            <ellipse id="baku" stroke="#34DCFB" fill="#222230" cx="333.992008" cy="128" rx="7.99200799" ry="8"></ellipse>
            <circle id="Sheki" stroke="#34DCFB" fill="#222230" cx="164" cy="77" r="8"></circle>
        </g>
    </g>
</svg>