<?xml version="1.0" encoding="UTF-8"?>
<svg width="400px" height="300px" viewBox="0 0 400 300" version="1.1" xmlns="http://www.w3.org/2000/svg" xmlns:xlink="http://www.w3.org/1999/xlink">
    <!-- Generator: Sketch 43.2 (39069) - http://www.bohemiancoding.com/sketch -->
    <title>Belarus</title>
    <desc>Created with Sketch.</desc>
    <defs></defs>
    <g id="Page-1" stroke="none" stroke-width="1" fill="none" fill-rule="evenodd">
        <g id="Belarus">
            <polyline id="route" stroke="#00D4FA" points="89 89 179 127 266 58 52 217 44 143 179 127 302 270"></polyline>
            <circle id="Minsk" stroke="#34DCFB" fill="#222230" cx="179" cy="127" r="8"></circle>
            <circle id="Witzebsk" stroke="#34DCFB" fill="#222230" cx="266" cy="58" r="8"></circle>
            <circle id="Brest" stroke="#34DCFB" fill="#222230" cx="52" cy="217" r="8"></circle>
            <circle id="Grodno" stroke="#34DCFB" fill="#222230" cx="44" cy="143" r="8"></circle>
            <polygon id="BY" stroke="#FFFFFF" stroke-linejoin="round" points="225.702703 33.1621622 183.540541 21 146.243243 39.6486486 125.162162 47.7567568 132.459459 68.8378378 104.081081 85.0540541 100.027027 112.621622 61.1081081 130.459459 23.8108108 130.459459 28.6756757 152.351351 42.4594595 171 44.8918919 190.459459 23 200.189189 38.4054054 223.702703 42.4594595 245.594595 60.2972973 243.162162 79.7567568 230.189189 109.756757 228.567568 150.297297 232.621622 195.702703 244.783784 226.513514 245.594595 242.72973 252.891892 255.702703 243.972973 267.864865 256.135135 302.72973 253.702703 318.945946 258.567568 317.324324 233.432432 327.054054 222.081081 360.297297 219.648649 360.297297 219.648649 344.081081 188.027027 331.918919 171.810811 338.405405 166.945946 370.027027 168.567568 383 158.027027 369.216216 145.054054 341.648649 136.135135 342.459459 127.216216 324.621622 118.297297 294.621622 86.6756757 299.486486 73.7027027 291.378378 50.1891892 252.459459 38.8378378 233.810811 44.5135135 225.702703 33.1621622"></polygon>
        </g>
    </g>
</svg>