<?xml version="1.0" encoding="UTF-8"?>
<svg width="400px" height="300px" viewBox="0 0 400 300" version="1.1" xmlns="http://www.w3.org/2000/svg" xmlns:xlink="http://www.w3.org/1999/xlink">
    <!-- Generator: Sketch 43.2 (39069) - http://www.bohemiancoding.com/sketch -->
    <title>bulgarien</title>
    <desc>Created with Sketch.</desc>
    <defs></defs>
    <g id="Page-1" stroke="none" stroke-width="1" fill="none" fill-rule="evenodd">
        <g id="bulgarien">
            <polyline id="route" stroke="#00D4FA" points="20 136 79 152 147 154 217 124 328 162 165 192 79 152 160 55"></polyline>
            <polygon id="BG" stroke="#FFFFFF" stroke-linejoin="round" points="380 81.8162162 345.605096 73.7945946 299.745223 48.5837838 233.248408 64.627027 206.878981 82.9621622 120.89172 79.5243243 75.0318471 68.0648649 53.2484076 73.7945946 32.611465 44 20 60.0432432 28.0254777 86.4 60.1273885 116.194595 40.6369427 137.967568 32.611465 160.886486 39.4904459 168.908108 31.4649682 179.221622 63.566879 202.140541 72.7388535 249.124324 116.305732 251.416216 161.019108 231.935135 205.732484 256 258.471338 249.124324 255.031847 214.745946 312.356688 191.827027 363.949045 200.994595 339.872611 160.886486 354.77707 110.464865"></polygon>
            <circle id="burgas" stroke="#34DCFB" fill="#222230" cx="328" cy="162" r="8"></circle>
            <circle id="Plovdiv" stroke="#34DCFB" fill="#222230" cx="165" cy="192" r="8"></circle>
            <circle id="welikotarnovo" stroke="#34DCFB" fill="#222230" cx="217" cy="124" r="8"></circle>
            <circle id="sofia" stroke="#34DCFB" fill="#222230" cx="79" cy="152" r="8"></circle>
            <circle id="kropiwschiza" stroke="#34DCFB" fill="#222230" cx="147" cy="154" r="8"></circle>
        </g>
    </g>
</svg>