<?xml version="1.0" encoding="UTF-8"?>
<svg width="400px" height="300px" viewBox="0 0 400 300" version="1.1" xmlns="http://www.w3.org/2000/svg" xmlns:xlink="http://www.w3.org/1999/xlink">
    <!-- Generator: Sketch 43.2 (39069) - http://www.bohemiancoding.com/sketch -->
    <title>deutschland</title>
    <desc>Created with Sketch.</desc>
    <defs></defs>
    <g id="Page-1" stroke="none" stroke-width="1" fill="none" fill-rule="evenodd">
        <g id="deutschland">
            <polyline id="route" stroke="#00D4FA" points="298.455067 167.04351 251.392535 136.644205 246.648481 155.589094 100.81584 154.068922 259.00241 73.4882708 306.832195 65.9410527"></polyline>
            <ellipse id="gera" stroke="#34DCFB" fill="#222230" cx="246.992008" cy="155" rx="7.99200799" ry="8"></ellipse>
            <ellipse id="leipzig" stroke="#34DCFB" fill="#222230" cx="250.992008" cy="137" rx="7.99200799" ry="8"></ellipse>
            <ellipse id="köln" stroke="#34DCFB" fill="#222230" cx="100.992008" cy="154" rx="7.99200799" ry="8"></ellipse>
            <ellipse id="neustrelitz" stroke="#34DCFB" fill="#222230" cx="258.992008" cy="73" rx="7.99200799" ry="8"></ellipse>
            <polygon id="DE" stroke="#FFFFFF" stroke-linejoin="round" points="289.765957 60.3829787 276.489362 49.8723404 246.06383 36.5957447 232.234043 46 206.234043 52.0851064 205.680851 40.4680851 178.574468 32.7234043 177.468085 20 160.87234 24.9787234 140.957447 20.5531915 143.170213 39.3617021 149.808511 51.5319149 133.212766 68.1276596 127.680851 60.9361702 106.106383 62.5957447 101.12766 69.787234 106.659574 80.8510638 101.12766 111.829787 95.0425532 124.553191 79 124.553191 85.0851064 159.957447 82.8723404 183.191489 88.4042553 190.93617 87.2978723 205.87234 100.574468 214.723404 139.851064 221.361702 127.12766 244.595745 124.361702 269.489362 147.595745 269.489362 153.12766 261.744681 183 272.255319 191.297872 270.595745 205.680851 280 209 271.148936 233.340426 272.808511 252.148936 266.170213 265.425532 267.276596 274.829787 274.468085 277.042553 268.382979 271.510638 246.255319 280.914894 241.829787 289.212766 225.787234 273.170213 211.404255 258.787234 203.106383 254.914894 188.723404 249.382979 178.212766 268.191489 171.021277 277.595745 162.723404 296.404255 156.085106 302.489362 149.446809 310.234043 153.319149 321.851064 150 309.12766 128.425532 309.680851 116.808511 301.93617 98.5531915 290.87234 86.3829787 297.510638 77.5319149 289.765957 60.3829787"></polygon>
        </g>
    </g>
</svg>