<?xml version="1.0" encoding="UTF-8"?>
<svg width="400px" height="300px" viewBox="0 0 400 300" version="1.1" xmlns="http://www.w3.org/2000/svg" xmlns:xlink="http://www.w3.org/1999/xlink">
    <!-- Generator: Sketch 43.2 (39069) - http://www.bohemiancoding.com/sketch -->
    <title>griechenland</title>
    <desc>Created with Sketch.</desc>
    <defs></defs>
    <g id="Page-1" stroke="none" stroke-width="1" fill="none" fill-rule="evenodd">
        <g id="griechenland">
            <polyline id="route" stroke="#00D4FA" points="99 70 129 99 152 158 144 178 155 192 153 211 171 215 189 224 192 192 192 168 220 166 184 153 155 104 129 99 195 60 248 79"></polyline>
            <circle id="ioannina" stroke="#34DCFB" fill="#222230" cx="129" cy="99" r="8"></circle>
            <circle id="Amfilochia" stroke="#34DCFB" fill="#222230" cx="152" cy="158" r="8"></circle>
            <circle id="Korinth" stroke="#34DCFB" fill="#222230" cx="192" cy="168" r="8"></circle>
            <circle id="Delphi" stroke="#34DCFB" fill="#222230" cx="184" cy="153" r="8"></circle>
            <circle id="kalambaka" stroke="#34DCFB" fill="#222230" cx="155" cy="104" r="8"></circle>
            <circle id="thessaloniki" stroke="#34DCFB" fill="#222230" cx="195" cy="60" r="8"></circle>
            <path d="M229.793651,257.619048 L224.714286,275.396825 L266.619048,283.015873 L266.619048,290 L314.873016,286.190476 L318.047619,274.126984 L300.269841,279.206349 L300.269841,272.222222 L275.507937,269.047619 L249.47619,271.587302 L229.793651,257.619048 Z M285.666667,10 L287.571429,29.047619 L258.365079,32.8571429 L233.603175,19.5238095 L208.84127,30.3174603 L184.714286,29.047619 L178.365079,30.3174603 L173.920635,37.3015873 L156.142857,36.6666667 L144.079365,44.9206349 L123.126984,48.7301587 L123.126984,58.8888889 L112.968254,64.6031746 L112.333333,77.9365079 L99,96.984127 L102.174603,109.047619 L120.587302,131.904762 L135.190476,150.952381 L143.444444,178.253968 L158.047619,210.634921 L187.253968,229.047619 L208.84127,228.412698 L193.603175,192.222222 L214.555556,187.777778 L202.492063,166.825397 L234.238095,177.619048 L231.698413,154.126984 L214.555556,142.698413 L194.238095,123.650794 L205.666667,114.761905 L187.888889,95.7142857 L177.730159,71.5873016 L183.444444,63.3333333 L202.492063,83.6507937 L220.904762,83.6507937 L236.777778,77.3015873 L212.015873,54.4444444 L250.746032,44.2857143 L267.888889,48.0952381 L288.206349,49.3650794 L295.190476,44.9206349 L302.809524,20.1587302 L285.666667,10 Z" id="GR" stroke="#FFFFFF" stroke-linejoin="round"></path>
            <circle id="Palouki" stroke="#34DCFB" fill="#222230" cx="144" cy="178" r="8"></circle>
            <circle id="Tholo" stroke="#34DCFB" fill="#222230" cx="155" cy="192" r="8"></circle>
            <circle id="Gialova" stroke="#34DCFB" fill="#222230" cx="153" cy="211" r="8"></circle>
            <circle id="kalamata" stroke="#34DCFB" fill="#222230" cx="171" cy="214" r="8"></circle>
            <circle id="GythionBay" stroke="#34DCFB" fill="#222230" cx="189" cy="223" r="8"></circle>
            <circle id="nafplio" stroke="#34DCFB" fill="#222230" cx="192" cy="192" r="8"></circle>
            <circle id="athen" stroke="#34DCFB" fill="#222230" cx="220" cy="166" r="8"></circle>
        </g>
    </g>
</svg>