<?xml version="1.0" encoding="UTF-8"?>
<svg width="400px" height="300px" viewBox="0 0 400 300" version="1.1" xmlns="http://www.w3.org/2000/svg" xmlns:xlink="http://www.w3.org/1999/xlink">
    <!-- Generator: Sketch 43.2 (39069) - http://www.bohemiancoding.com/sketch -->
    <title>indien</title>
    <desc>Created with Sketch.</desc>
    <defs></defs>
    <g id="Page-1" stroke="none" stroke-width="1" fill="none" fill-rule="evenodd">
        <g id="indien">
            <polygon id="IN" stroke="#FFFFFF" stroke-linejoin="round" points="181.059361 56.9863014 171.150685 50.5936073 166.03653 39.4063927 172.589041 40.8447489 171.630137 35.5707763 166.835616 30.2968037 165.557078 21.9863014 153.410959 10 147.497717 18.630137 138.388128 20.2283105 124.803653 17.6712329 121.767123 22.1461187 126.881279 31.0958904 131.515982 37.9680365 139.506849 42.9223744 133.593607 48.8356164 135.191781 56.0273973 128.958904 66.0958904 125.60274 76.4840183 118.410959 87.1917808 108.182648 86.3926941 100.351598 96.9406393 106.744292 101.575342 108.821918 109.406393 114.415525 114.520548 117.292237 123.310502 98.1141553 123.310502 93 130.022831 104.347032 138.652968 107.383562 142.648402 103.547945 146.324201 116.333333 158.630137 122.726027 159.908676 134.872146 153.835616 137.589041 163.26484 138.86758 175.730594 142.863014 188.675799 148.616438 208.333333 157.885845 222.39726 159.96347 228.630137 163.159817 241.415525 168.593607 251.164384 172.109589 255.958904 176.105023 266.187215 181.059361 280.410959 189.849315 290 193.365297 287.123288 196.082192 280.091324 204.073059 277.214612 201.196347 273.858447 204.712329 266.187215 209.347032 265.707763 208.228311 248.447489 211.26484 238.69863 210.146119 230.228311 207.109589 217.123288 209.027397 209.292237 213.022831 208.812785 220.694064 205.136986 224.849315 202.579909 224.369863 197.945205 232.360731 191.232877 238.273973 184.840183 246.744292 172.853881 258.570776 166.141553 262.406393 160.068493 260.968037 152.39726 271.515982 150.319635 277.429224 150.479452 278.228311 146.643836 275.671233 138.333333 271.515982 130.6621 272.155251 124.589041 266.242009 121.872146 267.520548 118.196347 272.474886 114.360731 265.123288 108.926941 267.041096 102.054795 274.712329 106.369863 279.027397 107.009132 280.945205 114.041096 289.575342 115.479452 297.56621 115.319635 303 117.077626 300.442922 125.547945 296.607306 126.187215 294.849315 131.940639 300.442922 137.214612 300.762557 130.821918 303.159817 130.6621 310.351598 146.803653 314.187215 144.406393 312.748858 140.091324 314.187215 136.73516 312.748858 126.187215 320.100457 128.424658 322.497717 120.114155 322.018265 115.159817 325.374429 106.52968 323.936073 100.776256 333.684932 93.7442922 340.237443 95.5022831 338.159817 89.2694064 340.716895 87.3515982 339.278539 83.5159817 329.52968 82.0776256 331.447489 77.7625571 325.853881 71.5296804 320.739726 75.6849315 312.908676 73.2876712 304.438356 79.6803653 298.205479 87.3515982 291.493151 88.630137 295.808219 91.826484 296.447489 98.0593607 289.415525 98.3789954 281.90411 97.739726 276.789954 99.3378995 268 95.3424658 267.520548 93.4246575 265.123288 85.2739726 260.328767 87.5114155 260.488584 91.826484 262.885845 98.3789954 262.726027 102.374429 255.374429 102.534247 244.506849 100.136986 237.634703 99.1780822 231.561644 94.0639269 219.415525 92.6255708 207.109589 87.0319635 197.840183 82.0776256 188.730594 78.0821918 190.16895 68.652968 194.643836 64.0182648"></polygon>
            <polyline id="route" stroke="#00D4FA" points="5 124 165 79 155 95 176 94 234 113 189 247 185 268 186 286 209 260 211 241 229 241"></polyline>
            <ellipse id="warschau" stroke="#34DCFB" fill="#222230" cx="154.992008" cy="95" rx="7.99200799" ry="8"></ellipse>
            <ellipse id="delhi" stroke="#34DCFB" fill="#222230" cx="164.992008" cy="79" rx="7.99200799" ry="8"></ellipse>
            <ellipse id="agra" stroke="#34DCFB" fill="#222230" cx="175.992008" cy="94" rx="7.99200799" ry="8"></ellipse>
            <ellipse id="varanasi" stroke="#34DCFB" fill="#222230" cx="232.992008" cy="112" rx="7.99200799" ry="8"></ellipse>
            <ellipse id="bangalore" stroke="#34DCFB" fill="#222230" cx="188.992008" cy="247" rx="7.99200799" ry="8"></ellipse>
            <ellipse id="chennai" stroke="#34DCFB" fill="#222230" cx="209.992008" cy="242" rx="7.99200799" ry="8"></ellipse>
            <ellipse id="pondicherry" stroke="#34DCFB" fill="#222230" cx="208.992008" cy="260" rx="7.99200799" ry="8"></ellipse>
            <ellipse id="Alappuzha" stroke="#34DCFB" fill="#222230" cx="185.992008" cy="286" rx="7.99200799" ry="8"></ellipse>
            <ellipse id="munnar" stroke="#34DCFB" fill="#222230" cx="184.992008" cy="268" rx="7.99200799" ry="8"></ellipse>
        </g>
    </g>
</svg>