<?xml version="1.0" encoding="UTF-8"?>
<svg width="400px" height="300px" viewBox="0 0 400 300" version="1.1" xmlns="http://www.w3.org/2000/svg" xmlns:xlink="http://www.w3.org/1999/xlink">
    <!-- Generator: Sketch 43.2 (39069) - http://www.bohemiancoding.com/sketch -->
    <title>japan</title>
    <desc>Created with Sketch.</desc>
    <defs></defs>
    <g id="Page-1" stroke="none" stroke-width="1" fill="none" fill-rule="evenodd">
        <g id="japan">
            <path d="M185.997824,229.368879 L172.287269,225.408052 L168.9358,233.634385 L158.881393,231.196953 L154.920566,242.774755 L158.576714,251.915125 L171.373232,257.399347 L171.068553,246.126224 L177.466812,241.556039 L186.911861,247.954298 L190.872688,236.071817 L185.997824,229.368879 L185.997824,229.368879 Z M249.371055,150.152339 L253.331882,130.652884 L244.800871,114.809576 L220.121872,88.3025027 L205.49728,91.9586507 L206.106638,103.841132 L221.645267,125.473341 L224.692057,149.542982 L219.512514,157.159956 L205.801959,176.964091 L190.568009,167.519042 L190.568009,202.557127 L171.373232,198.5963 L142.124048,204.385201 L136.335147,217.791077 L124.452666,227.845484 L121.101197,240.032644 L108,246.126224 L120.18716,259.227421 L132.678999,265.016322 L135.42111,282.383025 L146.084875,290 L153.70185,281.773667 L151.264418,248.868335 L129.022851,234.548422 L147.60827,234.243743 L162.84222,225.103373 L189.044614,220.837867 L196.35691,235.462459 L210.372144,242.774755 L223.77802,220.533188 L251.503808,219.314472 L267.956474,210.174102 L269.784548,196.158868 L262.167573,186.40914 L260.339499,170.565832 L249.371055,150.152339 Z M224.387378,35.8977149 L208.239391,29.4994559 L176.552775,10 L182.341676,24.6245919 L195.442873,50.5223069 L179.599565,51.7410229 L181.427639,66.0609358 L195.442873,84.6463547 L212.809576,84.6463547 L207.934712,63.9281828 L240.840044,76.7247008 L242.05876,58.1392818 L261.558215,52.9597388 L243.277476,31.9368879 L238.097933,39.8585419 L224.387378,35.8977149 Z" id="JP" stroke="#FFFFFF" stroke-linejoin="round"></path>
            <polyline id="route" stroke="#00D4FA" points="165 269 188 224 203 214 255 204 171 174"></polyline>
            <ellipse id="tokio" stroke="#34DCFB" fill="#222230" cx="254.992008" cy="204" rx="7.99200799" ry="8"></ellipse>
            <ellipse id="osaka" stroke="#34DCFB" fill="#222230" cx="187.992008" cy="224" rx="7.99200799" ry="8"></ellipse>
            <ellipse id="kyoto" stroke="#34DCFB" fill="#222230" cx="202.992008" cy="213" rx="7.99200799" ry="8"></ellipse>
        </g>
    </g>
</svg>