<?xml version="1.0" encoding="UTF-8"?>
<svg width="400px" height="300px" viewBox="0 0 400 300" version="1.1" xmlns="http://www.w3.org/2000/svg" xmlns:xlink="http://www.w3.org/1999/xlink">
    <!-- Generator: Sketch 43.2 (39069) - http://www.bohemiancoding.com/sketch -->
    <title>kambodscha</title>
    <desc>Created with Sketch.</desc>
    <defs></defs>
    <g id="Page-1" stroke="none" stroke-width="1" fill="none" fill-rule="evenodd">
        <g id="kambodscha">
            <polygon id="KH" stroke="#FFFFFF" stroke-linejoin="round" points="331.061772 43.0888031 278.861001 20 258.783781 63.1660232 209.594593 39.0733591 156.38996 29.034749 85.1158297 42.0849421 55 94.2857143 76.0810808 171.583012 110.212354 237.837838 136.31274 270.965251 183.494207 280 230.675673 254.903475 288.899611 249.88417 260.791503 211.737452 350.135131 162.548263 349.13127 85.2509653 331.061772 43.0888031"></polygon>
            <polyline id="route" stroke="#00D4FA" points="47 133 201 195 174 273 158 264 110 264 102 116 142 98 269 150 201 195 303 251"></polyline>
            <ellipse id="phnompenh" stroke="#34DCFB" fill="#222230" cx="200.992008" cy="195" rx="7.99200799" ry="8"></ellipse>
            <ellipse id="kampot" stroke="#34DCFB" fill="#222230" cx="157.992008" cy="264" rx="7.99200799" ry="8"></ellipse>
            <ellipse id="kep" stroke="#34DCFB" fill="#222230" cx="173.992008" cy="272" rx="7.99200799" ry="8"></ellipse>
            <ellipse id="kohrongsamolem" stroke="#34DCFB" fill="#222230" cx="109.992008" cy="264" rx="7.99200799" ry="8"></ellipse>
            <ellipse id="battambang" stroke="#34DCFB" fill="#222230" cx="101.992008" cy="116" rx="7.99200799" ry="8"></ellipse>
            <ellipse id="siemreap" stroke="#34DCFB" fill="#222230" cx="141.992008" cy="98" rx="7.99200799" ry="8"></ellipse>
            <circle id="kratie" stroke="#34DCFB" fill="#222230" cx="269" cy="150" r="8"></circle>
        </g>
    </g>
</svg>