<?xml version="1.0" encoding="UTF-8"?>
<svg width="400px" height="300px" viewBox="0 0 400 300" version="1.1" xmlns="http://www.w3.org/2000/svg" xmlns:xlink="http://www.w3.org/1999/xlink">
    <!-- Generator: Sketch 43.2 (39069) - http://www.bohemiancoding.com/sketch -->
    <title>polen2</title>
    <desc>Created with Sketch.</desc>
    <defs></defs>
    <g id="Page-1" stroke="none" stroke-width="1" fill="none" fill-rule="evenodd">
        <g id="polen2">
            <polyline id="route" stroke="#00D4FA" points="18.9245218 123.123098 175 40 207 151 331 86 350 45"></polyline>
            <ellipse id="bialystok" stroke="#34DCFB" fill="#222230" cx="330.992008" cy="86" rx="7.99200799" ry="8"></ellipse>
            <circle id="lodz" stroke="#34DCFB" fill="#222230" cx="207" cy="151" r="8"></circle>
            <polygon id="border" stroke="#FFFFFF" stroke-linejoin="round" points="173.561368 38.1267606 169.939638 27.9757746 135.171026 20 93.8832998 35.2264789 42.4547284 55.5284507 20 67.8546479 30.1408451 90.331831 21.4486922 101.932958 35.9356137 117.884507 46.0764588 141.811831 45.3521127 157.03831 62.0120724 185.316056 79.3963783 199.092394 106.197183 203.442817 105.472837 215.769014 125.030181 224.469859 129.376258 213.593803 154.004024 217.944225 159.074447 232.445634 185.150905 234.620845 203.983903 257.098028 206.156942 259.99831 219.919517 253.472676 239.476861 269.424225 259.758551 259.99831 277.142857 264.348732 301.770624 258.548169 337.263581 275.224789 345.231388 278.12507 333.641851 257.823099 361.167002 220.844507 377.826962 215.769014 380 202.717746 357.545272 164.289014 353.923541 144.712113 340.160966 123.68507 359.71831 114.984225 357.545272 97.5825352 345.231388 80.9059155 340.885312 61.3290141 330.744467 47.5526761 312.635815 43.2022535 249.617706 43.9273239 206.881288 38.851831"></polygon>
            <ellipse id="danzig" stroke="#34DCFB" fill="#222230" cx="174.992008" cy="40" rx="7.99200799" ry="8"></ellipse>
        </g>
    </g>
</svg>