<svg class="u-fluid map" width="400px" height="300px" viewBox="0 0 400 300" version="1.1" xmlns="http://www.w3.org/2000/svg" xmlns:xlink="http://www.w3.org/1999/xlink">
    <g stroke="none" stroke-width="1" fill="none" fill-rule="evenodd">
        <polyline id="route" stroke="#00D4FA" points="18.9245218 123.123098 115 114 124 176 237 219 399.698145 213.168454"></polyline>
        <circle id="krakau" stroke="#34DCFB" fill="#222230" cx="236.992008" cy="219" r="8"></circle>
        <circle id="warschau" stroke="#34DCFB" fill="#222230" cx="123.992008" cy="176" r="8"></circle>
        <circle id="posen" stroke="#34DCFB" fill="#222230" cx="115.410843" cy="114" r="8"></circle>
        <polygon id="border" stroke="#FFFFFF" stroke-linejoin="round" points="172.825708 19.1713483 168.995269 8.43539326 132.223052 0 88.556045 16.1039326 34.163808 37.5758427 10.4150848 50.6123596 21.1403146 74.3848315 11.9472605 86.6544944 27.2690174 103.525281 37.9942472 128.831461 37.2281594 144.935393 54.8481798 174.842697 73.2342881 189.412921 101.579538 194.014045 100.81345 207.050562 121.497822 216.252809 126.094349 204.75 152.141336 209.351124 157.503951 224.688202 185.083113 226.988764 205.001397 250.761236 207.299661 253.828652 221.85533 246.926966 242.539702 263.797753 263.990161 253.828652 282.37627 258.429775 308.423256 252.294944 345.961561 269.932584 354.388527 273 342.131122 251.52809 371.24246 212.418539 388.86248 207.050562 391.160744 193.247191 367.41202 152.603933 363.581581 131.898876 349.025912 109.660112 369.710284 100.457865 367.41202 82.0533708 354.388527 64.4157303 349.792 43.7106742 339.06677 29.1404494 319.914574 24.5393258 253.264932 25.3061798 208.065749 19.9382022"></polygon>
    </g>
</svg>