<?xml version="1.0" encoding="UTF-8"?>
<svg class="u-map" width="387px" height="266px" viewBox="0 0 387 266" version="1.1" xmlns="http://www.w3.org/2000/svg" xmlns:xlink="http://www.w3.org/1999/xlink">
    <g id="Page-1" stroke="none" stroke-width="1" fill="none" fill-rule="evenodd">
        <g id="station-view" transform="translate(-813.000000, -349.000000)">
            <g id="Group-4" transform="translate(813.000000, 350.000000)">
                <polygon id="PL" stroke="#FFFFFF" stroke-linejoin="round" points="167.208872 18.5393258 163.502922 8.15730337 127.925803 0 85.6779735 15.5730337 33.0534842 36.3370787 10.0765945 48.9438202 20.4532544 71.9325843 11.5589745 83.7977528 26.3827743 100.11236 36.7594342 124.58427 36.0182442 140.157303 53.0656139 169.078652 70.8541737 183.168539 98.2782033 187.617978 97.5370133 200.224719 117.549143 209.123596 121.996283 198 147.196743 202.449438 152.385073 217.280899 179.067912 219.505618 198.338852 242.494382 200.562422 245.460674 214.645032 238.786517 234.657161 255.101124 255.410481 245.460674 273.199041 249.910112 298.399501 243.977528 334.71781 261.033708 342.8709 264 331.01186 243.235955 359.17708 205.41573 376.224449 200.224719 378.448019 186.876404 355.47113 147.573034 351.76518 127.550562 337.68257 106.044944 357.6947 97.1460674 355.47113 79.3483146 342.8709 62.2921348 338.42376 42.2696629 328.0471 28.1797753 309.51735 23.7303371 245.033821 24.4719101 201.303612 19.2808989"></polygon>
                <polyline id="trip1" stroke="#00D4FA" points="18.3094749 119.064095 111.70696 109.020925 119.368717 168.823278 225.96087 211.662749 386.707955 206.140923"></polyline>
                <ellipse id="posen" stroke="#34DCFB" fill="#222230" cx="111.942917" cy="109.84" r="8"></ellipse>
                <ellipse id="warschau" stroke="#34DCFB" fill="#222230" cx="119.995868" cy="169" r="8"></ellipse>
                <ellipse id="krakau" stroke="#34DCFB" fill="#222230" cx="229.163371" cy="211.92" r="8"></ellipse>
                <g id="Group" opacity="0.304800725" transform="translate(0.000000, 3.504425)">
                    <polyline id="trip2" stroke="#70707C" points="326.22223 0.894627774 319.692838 60.8956831 202.867588 130.80744 165.698134 18.3072045 -2.84217094e-14 70.3950368"></polyline>
                    <ellipse id="bialystok" stroke="#5A5A66" fill="#222230" cx="318.995868" cy="60" rx="7.99586777" ry="8"></ellipse>
                    <ellipse id="lodz" stroke="#5A5A66" fill="#222230" cx="204" cy="128.004134" rx="8" ry="8.00413437"></ellipse>
                    <ellipse id="danzig" stroke="#5A5A66" fill="#222230" cx="165.478867" cy="19.9797096" rx="8" ry="8.00413437"></ellipse>
                </g>
            </g>
        </g>
    </g>
</svg>