<?xml version="1.0" encoding="UTF-8"?>
<svg width="500px" height="300px" viewBox="0 0 500 300" version="1.1" xmlns="http://www.w3.org/2000/svg" xmlns:xlink="http://www.w3.org/1999/xlink">
    <!-- Generator: Sketch 43.2 (39069) - http://www.bohemiancoding.com/sketch -->
    <title>Artboard 2</title>
    <desc>Created with Sketch.</desc>
    <defs></defs>
    <g id="Page-1" stroke="none" stroke-width="1" fill="none" fill-rule="evenodd">
        <g id="Artboard-2" fill="#000000">
            <polygon id="PL" points="258.41573 21.9101124 219.651685 21.0674157 215.438202 9.26966292 174.988764 0 126.955056 17.6966292 67.1235955 41.2921348 41 55.6179775 52.7977528 81.741573 42.6853933 95.2247191 59.5393258 113.764045 71.3370787 141.573034 70.494382 159.269663 89.8764045 192.134831 110.101124 208.146067 141.280899 213.202247 140.438202 227.52809 163.191011 237.640449 168.247191 225 196.898876 230.05618 202.797753 246.910112 233.134831 249.438202 255.044944 275.561798 257.573034 278.932584 273.58427 271.348315 296.337079 289.88764 319.932584 278.932584 340.157303 283.988764 368.808989 277.247191 410.101124 296.629213 419.370787 300 405.88764 276.404494 437.910112 233.426966 457.292135 227.52809 459.820225 212.359551 433.696629 167.696629 429.483146 144.94382 413.47191 120.505618 436.224719 110.393258 433.696629 90.1685393 419.370787 70.7865169 414.314607 48.0337079 402.516854 32.0224719 381.449438 26.9662921 308.134831 27.8089888 258.41573 21.9101124"></polygon>
        </g>
    </g>
</svg>