<?xml version="1.0" encoding="UTF-8"?>
<svg width="400px" height="300px" viewBox="0 0 400 300" version="1.1" xmlns="http://www.w3.org/2000/svg" xmlns:xlink="http://www.w3.org/1999/xlink">
    <!-- Generator: Sketch 43.2 (39069) - http://www.bohemiancoding.com/sketch -->
    <title>serbien</title>
    <desc>Created with Sketch.</desc>
    <defs></defs>
    <g id="Page-1" stroke="none" stroke-width="1" fill="none" fill-rule="evenodd">
        <g id="serbien">
            <polygon id="RS" stroke="#FFFFFF" stroke-linejoin="round" points="226.264463 85.5371901 191.884298 69.4214876 183.289256 49.0082645 152.132231 22.1487603 117.752066 20 78 37.1900826 78 37.1900826 94.1157025 62.9752066 112.380165 82.3140496 94.1157025 107.024793 94.1157025 107.024793 113.454545 107.024793 102.710744 136.033058 131.719008 160.743802 126.347107 191.900826 113.454545 195.123967 129.570248 206.942149 138.165289 215.53719 157.504132 223.057851 178.991736 235.950413 174.694215 242.396694 187.586777 237.024793 192.958678 215.53719 202.628099 211.239669 211.22314 220.909091 221.966942 225.206612 230.561983 235.950413 239.157025 239.173554 250.975207 250.991736 259.570248 250.991736 254.198347 267.107438 248.826446 274.628099 250.975207 280 269.239669 275.702479 295.024793 274.628099 302.545455 264.958678 296.099174 257.438017 303.619835 235.950413 321.884298 215.53719 291.801653 187.603306 284.280992 162.892562 296.099174 147.85124 285.355372 137.107438 297.173554 125.289256 282.132231 117.768595 267.090909 131.735537 233.785124 112.396694 226.264463 85.5371901"></polygon>
            <polyline id="route" stroke="#00D4FA" points="198 236 173 117 138 86 262 205 332 230"></polyline>
            <circle id="belgrad" stroke="#34DCFB" fill="#222230" cx="173" cy="116" r="8"></circle>
            <circle id="novi-sad" stroke="#34DCFB" fill="#222230" cx="138" cy="86" r="8"></circle>
            <circle id="nis" stroke="#34DCFB" fill="#222230" cx="262" cy="205" r="8"></circle>
        </g>
    </g>
</svg>