<?xml version="1.0" encoding="UTF-8"?>
<svg width="400px" height="300px" viewBox="0 0 400 300" version="1.1" xmlns="http://www.w3.org/2000/svg" xmlns:xlink="http://www.w3.org/1999/xlink">
    <!-- Generator: Sketch 43.2 (39069) - http://www.bohemiancoding.com/sketch -->
    <title>taiwan</title>
    <desc>Created with Sketch.</desc>
    <defs></defs>
    <g id="Page-1" stroke="none" stroke-width="1" fill="none" fill-rule="evenodd">
        <g id="taiwan">
            <polygon id="TW" stroke="#FFFFFF" stroke-linejoin="round" points="222.396226 216.226415 237.113208 91.1320755 238.339623 43.3018868 202.773585 20 162.301887 78.8679245 139 156.132075 157.396226 213.773585 206.45283 280 222.396226 216.226415"></polygon>
            <polyline id="route" stroke="#00D4FA" points="250 28 209 47 230 117 221 212 206 276 173 232 158 210 189 128 163 124 209 47 137 125"></polyline>
            <ellipse id="taipeh" stroke="#34DCFB" fill="#222230" cx="208.992008" cy="47" rx="7.99200799" ry="8"></ellipse>
            <ellipse id="hualien" stroke="#34DCFB" fill="#222230" cx="229.992008" cy="117" rx="7.99200799" ry="8"></ellipse>
            <ellipse id="taitung" stroke="#34DCFB" fill="#222230" cx="220.992008" cy="212" rx="7.99200799" ry="8"></ellipse>
            <ellipse id="kenting" stroke="#34DCFB" fill="#222230" cx="205.992008" cy="276" rx="7.99200799" ry="8"></ellipse>
            <ellipse id="kaohsiung" stroke="#34DCFB" fill="#222230" cx="172.992008" cy="232" rx="7.99200799" ry="8"></ellipse>
            <ellipse id="puli" stroke="#34DCFB" fill="#222230" cx="188.992008" cy="128" rx="7.99200799" ry="8"></ellipse>
            <ellipse id="taichung" stroke="#34DCFB" fill="#222230" cx="162.992008" cy="124" rx="7.99200799" ry="8"></ellipse>
            <ellipse id="tainan" stroke="#34DCFB" fill="#222230" cx="157.992008" cy="210" rx="7.99200799" ry="8"></ellipse>
        </g>
    </g>
</svg>