<?xml version="1.0" encoding="UTF-8"?>
<svg width="400px" height="300px" viewBox="0 0 400 300" version="1.1" xmlns="http://www.w3.org/2000/svg" xmlns:xlink="http://www.w3.org/1999/xlink">
    <!-- Generator: Sketch 43.2 (39069) - http://www.bohemiancoding.com/sketch -->
    <title>thailand</title>
    <desc>Created with Sketch.</desc>
    <defs></defs>
    <g id="Page-1" stroke="none" stroke-width="1" fill="none" fill-rule="evenodd">
        <g id="thailand">
            <polygon id="TH" stroke="#FFFFFF" stroke-linejoin="round" points="256.747065 126.840982 261.229456 118.175027 259.735326 102.03842 244.196371 85.6029883 240.311633 66.7769477 225.669157 51.2379936 212.819637 50.0426894 210.429029 56.6168623 200.866596 57.2145144 195.487727 53.6286019 179.649947 64.9839915 176.661686 47.9509072 177.85699 27.9295624 166.501601 27.0330843 163.812166 15.6776948 156.042689 10 147.077908 14.1835646 138.710779 22.5506937 127.056564 23.4471718 122.574173 44.0661686 116 47.3532551 126.458911 64.0875133 138.710779 77.8335112 147.376734 90.3842049 143.19317 107.118463 138.113127 110.40555 143.19317 119.967983 155.743863 135.208111 158.732124 145.667022 159.329776 154.631804 167.696905 171.963714 159.927428 189.59445 153.353255 209.316969 149.468517 227.545358 148.572038 239.199573 152.157951 249.957311 154.249733 238.601921 162.915688 247.865528 172.478122 258.32444 175.765208 267.886873 182.937033 275.058698 185.626467 271.771612 199.671291 280.138741 201.464248 290 212.520811 287.609392 217.600854 279.839915 208.337247 269.978655 198.177161 267.588047 188.315902 256.830309 184.132337 240.394877 176.36286 223.062967 165.306297 222.465315 163.214514 208.719317 167.398079 191.985059 173.972252 164.194237 173.3746 143.276414 188.017076 142.977588 187.120598 157.91889 201.165422 157.620064 217.003202 166.286019 210.727855 143.276414 219.692636 127.73746 240.909285 123.852721 256.747065 126.840982"></polygon>
            <polyline id="route" stroke="#00D4FA" points="147 147 173 142 176 119 164 83 140 40 164 53 175 142 224 161"></polyline>
            <ellipse id="bangkok" stroke="#34DCFB" fill="#222230" cx="174.992008" cy="142" rx="7.99200799" ry="8"></ellipse>
            <ellipse id="chiangmai" stroke="#34DCFB" fill="#222230" cx="139.992008" cy="40" rx="7.99200799" ry="8"></ellipse>
            <ellipse id="Phitsanulok" stroke="#34DCFB" fill="#222230" cx="166.992008" cy="81" rx="7.99200799" ry="8"></ellipse>
            <ellipse id="Phrae" stroke="#34DCFB" fill="#222230" cx="163.992008" cy="53" rx="7.99200799" ry="8"></ellipse>
            <ellipse id="Lopburi" stroke="#34DCFB" fill="#222230" cx="174.992008" cy="119" rx="7.99200799" ry="8"></ellipse>
        </g>
    </g>
</svg>