<?xml version="1.0" encoding="UTF-8"?>
<svg width="400px" height="300px" viewBox="0 0 400 300" version="1.1" xmlns="http://www.w3.org/2000/svg" xmlns:xlink="http://www.w3.org/1999/xlink">
    <!-- Generator: Sketch 43.2 (39069) - http://www.bohemiancoding.com/sketch -->
    <title>tschechien</title>
    <desc>Created with Sketch.</desc>
    <defs></defs>
    <g id="Page-1" stroke="none" stroke-width="1" fill="none" fill-rule="evenodd">
        <g id="tschechien">
            <polyline id="route" stroke="#00D4FA" points="9 118 61 122 144 134 139 228 165 242"></polyline>
            <circle id="krumau" stroke="#34DCFB" fill="#222230" cx="138" cy="227" r="8"></circle>
            <circle id="karlsbad" stroke="#34DCFB" fill="#222230" cx="61" cy="121" r="8"></circle>
            <circle id="prag" stroke="#34DCFB" fill="#222230" cx="144" cy="134" r="8"></circle>
            <polygon id="CZ" stroke="#FFFFFF" stroke-linejoin="round" points="141.100917 74.7088608 125.688073 67 113.577982 80.2151899 76.146789 93.4303797 57.4311927 109.949367 20 124.265823 31.0091743 145.189873 38.7155963 173.822785 67.3394495 190.341772 99.266055 218.974684 141.100917 241 169.724771 213.468354 188.440367 207.962025 232.477064 228.886076 257.798165 225.582278 283.119266 238.797468 289.724771 223.379747 313.944954 224.481013 331.559633 217.873418 332.66055 211.265823 342.568807 207.962025 344.770642 192.544304 356.880734 189.240506 363.486239 177.126582 380 177.126582 351.376147 142.987342 311.743119 139.683544 304.036697 117.658228 266.605505 111.050633 260 127.56962 230.275229 114.35443 231.376147 95.6329114 190.642202 89.0253165 164.220183 68.1012658"></polygon>
        </g>
    </g>
</svg>