<?xml version="1.0" encoding="UTF-8"?>
<svg width="400px" height="300px" viewBox="0 0 400 300" version="1.1" xmlns="http://www.w3.org/2000/svg" xmlns:xlink="http://www.w3.org/1999/xlink">
    <!-- Generator: Sketch 43.2 (39069) - http://www.bohemiancoding.com/sketch -->
    <title>Ukraine</title>
    <desc>Created with Sketch.</desc>
    <defs></defs>
    <g id="Page-1" stroke="none" stroke-width="1" fill="none" fill-rule="evenodd">
        <g id="Ukraine">
            <polyline id="route" stroke="#00D4FA" points="5 124 181 100 160 55"></polyline>
            <ellipse id="warschau" stroke="#34DCFB" fill="#222230" cx="180.992008" cy="99" rx="7.99200799" ry="8"></ellipse>
            <circle id="posen" stroke="#34DCFB" fill="#222230" cx="47" cy="120" r="8"></circle>
            <polygon id="UA" stroke="#FFFFFF" stroke-linejoin="round" points="238.431818 52 217.704545 54.1590909 211.227273 52.8636364 206.909091 58.9090909 199.136364 58.0454545 199.136364 58.0454545 181.431818 59.3409091 176.25 65.3863636 177.113636 78.7727273 168.477273 76.1818182 149.909091 77.4772727 143.431818 71 136.522727 75.75 127.886364 71.8636364 111.477273 71.4318182 87.2954545 64.9545455 65.7045455 62.7954545 49.7272727 63.6590909 39.3636364 70.5681818 29.8636364 71.8636364 43.25 94.75 41.9545455 102.522727 32.0227273 105.545455 15.6136364 127.568182 22.5227273 139.659091 17.7727273 137.931818 13.0227273 145.272727 10 156.068182 22.5227273 163.409091 25.1136364 170.318182 33.3181818 164.704545 47.1363636 167.727273 60.9545455 167.727273 71.3181818 174.204545 78.2272727 170.318182 93.7727273 167.727273 98.0909091 161.25 107.159091 161.25 111.909091 157.363636 125.727273 154.772727 142.568182 162.977273 151.204545 164.272727 162 171.181818 162 180.25 170.204545 185 174.954545 196.227273 183.590909 202.704545 182.727273 207.022727 187.045455 209.613636 181.863636 211.772727 168.909091 210.909091 166.318182 207.022727 162 209.181818 164.159091 213.931818 159.409091 222.568182 157.25 231.636364 152.068182 234.659091 162.431818 239.409091 171.931818 235.090909 182.295455 239.840909 196.545455 219.977273 202.159091 205.295455 221.590909 201.840909 224.613636 212.204545 259.159091 218.681818 266.5 224.727273 247.068182 233.795455 244.045455 238.977273 269.090909 246.75 266.5 259.272727 279.454545 264.886364 306.659091 249.340909 329.545455 244.590909 332.136364 235.090909 310.113636 236.818182 298.454545 230.340909 294.136364 213.5 310.977273 203.568182 330.840909 202.272727 343.795455 193.636364 360.636364 191.477273 358.909091 179.386364 368.409091 172.045455 388.704545 169.886364 390 160.818182 382.227273 146.136364 387.840909 132.318182 386.113636 124.113636 353.295455 115.477273 340.772727 115.909091 325.227273 103.386364 310.113636 107.704545 281.613636 98.2045455 280.75 93.0227273 271.25 81.3636364 253.977273 80.5 250.954545 72.2954545 254.840909 66.6818182 238.431818 52"></polygon>
        </g>
    </g>
</svg>