<?xml version="1.0" encoding="UTF-8"?>
<svg width="400px" height="300px" viewBox="0 0 400 300" version="1.1" xmlns="http://www.w3.org/2000/svg" xmlns:xlink="http://www.w3.org/1999/xlink">
    <!-- Generator: Sketch 43.2 (39069) - http://www.bohemiancoding.com/sketch -->
    <title>ungarn</title>
    <desc>Created with Sketch.</desc>
    <defs></defs>
    <g id="Page-1" stroke="none" stroke-width="1" fill="none" fill-rule="evenodd">
        <g id="ungarn">
            <polygon id="border" stroke="#FFFFFF" stroke-linejoin="round" points="248.264984 59.5393258 236.908517 76.5617978 211.92429 84.505618 205.11041 79.9662921 178.990536 91.3146067 157.413249 93.5842697 154.006309 107.202247 107.444795 116.280899 85.8675079 108.337079 56.340694 90.1797753 54.0694006 119.685393 22.2712934 119.685393 34.7634069 134.438202 20 179.831461 29.0851735 180.966292 42.7129338 204.797753 60.8832808 213.876404 106.309148 243.382022 154.006309 257 174.44795 246.786517 213.53876 229.894517 216.466877 228.629213 252.807571 230.898876 295.962145 218.41573 325.488959 169.617978 347.066246 121.955056 380 107.202247 373.18612 89.0449438 340.252366 69.752809 328.895899 76.5617978 266.435331 55"></polygon>
            <polyline id="route" stroke="#00D4FA" points="279 240 238 220 318 124 332 58"></polyline>
            <circle id="debrecen" stroke="#34DCFB" fill="#222230" cx="318" cy="124" r="8"></circle>
            <circle id="szeget" stroke="#34DCFB" fill="#222230" cx="238" cy="220" r="8"></circle>
        </g>
    </g>
</svg>