<?xml version="1.0" encoding="UTF-8"?>
<svg width="400px" height="300px" viewBox="0 0 400 300" version="1.1" xmlns="http://www.w3.org/2000/svg" xmlns:xlink="http://www.w3.org/1999/xlink">
    <!-- Generator: Sketch 43.2 (39069) - http://www.bohemiancoding.com/sketch -->
    <title>vietnam</title>
    <desc>Created with Sketch.</desc>
    <defs></defs>
    <g id="Page-1" stroke="none" stroke-width="1" fill="none" fill-rule="evenodd">
        <g id="vietnam">
            <polygon id="VN" stroke="#FFFFFF" stroke-linejoin="round" points="216.402985 44.0298507 198.791045 39.2537313 189.835821 31.4925373 190.432836 20.4477612 174.910448 17.1641791 165.955224 10 153.716418 20.1492537 137.895522 22.238806 125.059701 22.238806 117 26.7164179 128.940299 41.9402985 139.089552 58.9552239 159.38806 59.2537313 168.343284 75.6716418 158.492537 80.7462687 154.61194 87.6119403 176.402985 98.9552239 193.41791 121.343284 206.253731 138.059701 220.58209 151.19403 226.552239 164.626866 225.955224 183.731343 231.328358 196.268657 231.626866 219.253731 205.059701 233.880597 213.41791 245.223881 196.104478 246.716418 182.074627 254.179104 195.507463 265.223881 191.626866 278.059701 198.492537 290 218.19403 272.38806 230.432836 256.567164 248.641791 244.328358 261.477612 231.791045 260.283582 198.358209 248.343284 163.432836 236.104478 148.208955 219.38806 136.268657 200.283582 111.492537 184.462687 91.4925373 185.955224 78.358209 197 60.4477612 216.402985 44.0298507"></polygon>
            <polyline id="route" stroke="#00D4FA" points="186 240 219 249 199 264 215 272 219 249 276 211"></polyline>
            <ellipse id="cantho" stroke="#34DCFB" fill="#222230" cx="198.992008" cy="264" rx="7.99200799" ry="8"></ellipse>
            <ellipse id="hochimin" stroke="#34DCFB" fill="#222230" cx="218.992008" cy="249" rx="7.99200799" ry="8"></ellipse>
            <ellipse id="bentre" stroke="#34DCFB" fill="#222230" cx="214.992008" cy="272" rx="7.99200799" ry="8"></ellipse>
        </g>
    </g>
</svg>