<?xml version="1.0" encoding="UTF-8"?>
<svg width="32px" height="32px" viewBox="0 0 32 32" version="1.1" xmlns="http://www.w3.org/2000/svg" xmlns:xlink="http://www.w3.org/1999/xlink">
    <!-- Generator: Sketch 43.2 (39069) - http://www.bohemiancoding.com/sketch -->
    <title>Artboard 3 Copy 6</title>
    <desc>Created with Sketch.</desc>
    <defs></defs>
    <g id="Page-1" stroke="none" stroke-width="1" fill="none" fill-rule="evenodd">
        <g id="Artboard-3-Copy-6" fill-rule="nonzero" fill="#000000">
            <g id="ohrmuscheln" transform="translate(6.000000, 6.000000)">
                <path d="M18.0695745,14.6081589 C18.2860143,11.3405346 18.4257605,0.00780867888 9.9314731,0.00780867888 C0.754460945,0.00780867888 1.65543992,12.6762723 1.84281581,14.5827888 C0.776104918,14.929708 0,15.9185265 0,17.0984147 C0,18.5665111 1.19349662,19.7568972 2.66590241,19.7568972 C4.1383082,19.7568972 5.33180482,18.5665111 5.33180482,17.0984147 C5.33180482,15.7732073 4.35659479,14.6835888 3.08455776,14.4819888 C2.95718881,12.3646056 2.63745419,1.26377473 9.9314731,1.26377473 C16.6837446,1.26377473 16.8970739,11.2348096 16.7888864,14.4776795 C15.495821,14.6607136 14.4977034,15.7583676 14.4977034,17.0984471 C14.4977034,18.5665435 15.6912324,19.7569296 17.1636058,19.7569296 C18.6360116,19.7569296 19.8295082,18.5665435 19.8295082,17.0984471 C19.8295082,15.9488216 19.0936131,14.9791846 18.0695745,14.6081589 Z M3.98618476,17.1781863 C3.98618476,17.9066615 3.39376201,18.4972374 2.66343992,18.4972374 C1.93311784,18.4972374 1.34069508,17.9066615 1.34069508,17.1781863 C1.34069508,16.4497435 1.93311784,15.8591676 2.66343992,15.8591676 C3.39376201,15.8591676 3.98618476,16.4497435 3.98618476,17.1781863 Z M17.1611433,18.4966218 C16.4308212,18.4966218 15.8383985,17.9060459 15.8383985,17.1776031 C15.8383985,16.4491279 16.4308212,15.858552 17.1611433,15.858552 C17.8914654,15.858552 18.4838881,16.4491279 18.4838881,17.1776031 C18.4832401,17.9066939 17.8914654,18.4966218 17.1611433,18.4966218 Z" id="Shape"></path>
            </g>
        </g>
    </g>
</svg>