<?xml version="1.0" encoding="UTF-8"?>
<svg width="32px" height="32px" viewBox="0 0 32 32" version="1.1" xmlns="http://www.w3.org/2000/svg" xmlns:xlink="http://www.w3.org/1999/xlink">
    <!-- Generator: Sketch 43.2 (39069) - http://www.bohemiancoding.com/sketch -->
    <title>Artboard 3 Copy 5</title>
    <desc>Created with Sketch.</desc>
    <defs></defs>
    <g id="Page-1" stroke="none" stroke-width="1" fill="none" fill-rule="evenodd">
        <g id="Artboard-3-Copy-5" fill-rule="nonzero" fill="#000000">
            <g id="geolokalisierung" transform="translate(8.000000, 6.000000)">
                <path d="M7.40853659,5.01936869 C6.04474224,5.01936869 4.93902439,6.13436869 4.93902439,7.50936869 C4.93902439,8.885 6.04474224,9.99936869 7.40853659,9.99936869 C8.77233093,9.99936869 9.87804878,8.88436869 9.87804878,7.50936869 C9.87804878,6.13436869 8.77235588,5.01936869 7.40853659,5.01936869 Z M7.40853659,8.75 C6.72632761,8.75 6.17378049,8.19063131 6.17378049,7.5 C6.17378049,6.80936869 6.72632761,6.25 7.40853659,6.25 C8.09074557,6.25 8.64329268,6.80936869 8.64329268,7.5 C8.64329268,8.19063131 8.09012195,8.75 7.40853659,8.75 Z M7.40853659,0 C1.15575665,0 0.0191574279,5.01936869 0.0191574279,8.125 C0.0191574279,15.6443939 7.40853659,20 7.40853659,20 C7.40853659,20 14.7979157,15.6837374 14.7979157,8.125 C14.7979157,4.375 13.6428326,0 7.40853659,0 Z M7.40853659,18.5987626 C7.40853659,18.5987626 1.05448171,14.8112626 1.05448171,8.27189394 C1.05448171,5.57126263 2.03178492,1.20626263 7.40853659,1.20626263 C12.7692239,1.20626263 13.7625665,5.01063131 13.7625665,8.27189394 C13.7619928,14.845 7.40853659,18.5987626 7.40853659,18.5987626 Z" id="Shape"></path>
            </g>
        </g>
    </g>
</svg>