<?xml version="1.0" encoding="UTF-8"?>
<svg width="1000px" height="429px" viewBox="0 0 1000 429" version="1.1" xmlns="http://www.w3.org/2000/svg" xmlns:xlink="http://www.w3.org/1999/xlink" style="background: #001519;">
    <!-- Generator: Sketch 43.2 (39069) - http://www.bohemiancoding.com/sketch -->
    <title>Artboard Copy</title>
    <desc>Created with Sketch.</desc>
    <defs></defs>
    <g id="Page-1" stroke="none" stroke-width="1" fill="none" fill-rule="evenodd">
        <g id="Artboard-Copy">
            <g id="Group" stroke="#FFFFFF" stroke-width="0.16">
                <path d="M922.083851,214.959627 L923.447205,214.130435 L924.875776,212.121118 L923.555901,210.798137 L923.496894,210.003106 L924.189441,209.689441 L925.245342,210.003106 L925.881988,210.481366 L926.251553,209 L926.198758,206.677019 L925.776398,205.509317 L925.881988,201.335404 L925.723602,199.118012 L926.515528,197.791925 L927.885093,196.413043 L927.57764,195.307453 L926.829193,195.093168 L926.779503,193.720497 L925.984472,193.565217 L926.251553,192.611801 L923.835404,192.649068 L923.490683,192.118012 L924.65528,191.400621 L925.052795,190.475155 L924.68323,188.562112 L923.726708,187.978261 L922.562112,188.192547 L922.562112,188.670807 L921.580745,189.381988 L920.549689,189.226708 L918.934783,187.475155 L919.173913,186.437888 L921.425466,185.304348 L923.437888,184.925466 L925.608696,185.695652 L926.723602,186.201863 L926.934783,185.596273 L926.885093,184.580745 L926.987578,183.096273 L926.779503,182.090062 L927.195652,181.295031 L928.21118,181.21118 L928.791925,182.090062 L929.742236,182.142857 L930.959627,181.475155 L933.372671,181.02795 L935.673913,180.285714 L937.161491,180.232919 L937.742236,180.47205 L938.537267,180.099379 L938.586957,179.621118 L940.102484,178.773292 L940.468944,177.978261 L942.170807,176.574534 L943.909938,175.987578 L946.111801,176.385093 L947.385093,176.043478 L947.968944,176.574534 L947.968944,177.791925 L946.881988,179.357143 L946.562112,180.60559 L947.226708,181.055901 L947.385093,182.378882 L947.490683,183.757764 L947.276398,184.31677 L947.649068,185.695652 L949.130435,186.360248 L951.167702,188.270186 L952.549689,188.670807 L953.450311,188.192547 L954.878882,186.043478 L955.012422,184.63354 L955.807453,184.13354 L956.021739,183.416149 L955.726708,182.434783 L956.68323,180.65528 L957.953416,180.47205 L959.090062,180.47205 L959.487578,179.726708 L959.142857,179.198758 L958.826087,177.686335 L956.208075,176.546584 L955.860248,175.801242 L956.444099,173.835404 L957.291925,173.096273 L957.850932,172.909938 L957.555901,173.521739 L957.717391,175.111801 L958.223602,175.537267 L958.878882,175.083851 L959.195652,174.661491 L960.204969,174.903727 L960.947205,175.403727 L961.717391,175.167702 L962.220497,175.295031 L961.925466,175.906832 L960.599379,176.254658 L960.444099,176.621118 L960.916149,176.86646 L962.031056,176.546584 L963.838509,175.583851 L967.543478,175.906832 L969.447205,175.689441 L968.919255,175.21118 L968.549689,173.732919 L968.919255,172.043478 L970.509317,171.248447 L971.723602,171.462733 L971.984472,172.944099 L971.562112,174.31677 L972.145963,175.378882 L973.254658,175.267081 L974.36646,173.732919 L973.518634,171.195652 L973.940994,169.611801 L975.742236,168.236025 L976.742236,168.18323 L977.059006,167.496894 L976.378882,166.649068 L976.742236,164.906832 L977.639752,164.322981 L979.018634,164.586957 L979.335404,165.381988 L978.645963,166.385093 L978.276398,168.391304 L978.701863,172.571429 L979.385093,172.885093 L980.341615,172.254658 L980.975155,170.878882 L982.186335,170.773292 L983.562112,169.295031 L984.093168,167.391304 L983.776398,166.173913 L985.363354,164.692547 L985.152174,163.73913 L984.360248,163 L982.667702,160.673913 L982.083851,158.928571 L981.608696,155.388199 L982.142857,151.26087 L982.23913,148.462733 L980.975155,143.332298 L979.177019,140.900621 L979.018634,138.996894 L979.440994,136.618012 L981.714286,135.559006 L982.822981,135.559006 L983.406832,136.562112 L983.826087,136.037267 L983.459627,134.34472 L983.192547,133.232919 L982.720497,132.664596 L982.347826,131.201863 L982.456522,130.459627 L982.425466,129.34472 L982.956522,128.444099 L982.931677,127.990683 L983.090062,126.850932 L982.667702,126.217391 L982.562112,124.400621 L982.875776,123.503106 L982.291925,122.450311 L981.875776,119.590062 L980.552795,117.267081 L979.810559,117.267081 L979.018634,116.841615 L978.857143,113.723602 L977.481366,112.456522 L974.503106,109.10559 L973.686335,107.618012 L973.10559,105.332298 L972.947205,103.108696 L973.049689,102.36646 L972.208075,102.89441 L971.543478,102.975155 L971.198758,102.549689 L969.900621,101.965839 L969.186335,101.885093 L969.291925,102.338509 L968.574534,104.145963 L968.60559,105.385093 L969.23913,105.996894 L969.925466,105.68323 L971.571429,104.220497 L972.313665,106.052795 L971.754658,107.378882 L970.881988,107.934783 L969.925466,107.220497 L969.583851,107.220497 L970.031056,108.944099 L969.369565,109.63354 L968.335404,109.236025 L968.102484,107.962733 L967.860248,106.475155 L967.409938,105.732919 L966.515528,106.024845 L965.717391,105.571429 L965.425466,106.742236 L965.956522,108.891304 L966.003106,110.375776 L965.13354,110.723602 L964.257764,112.021739 L964.285714,112.841615 L966.111801,114.701863 L966.720497,115.813665 L966.080745,117.804348 L965.108696,118.444099 L963.962733,118.201863 L963.726708,118.996894 L964.785714,120.354037 L965.903727,120.083851 L966.860248,119.012422 L968.279503,122.236025 L968.813665,125.779503 L968.493789,127.736025 L968.652174,131.223602 L967.391304,136.354037 L967.754658,138.310559 L967.173913,140.531056 L965.381988,141.481366 L964.583851,143.649068 L964.692547,146.080745 L963.78882,147.512422 L963.524845,148.990683 L961.767081,150.652174 L958.270186,152.745342 L956.897516,153.142857 L956.208075,154.549689 L954.428571,153.543478 L952.708075,151.419255 L952.76087,150.515528 L953.531056,150.145963 L954.298137,148.795031 L954.164596,148.021739 L955.065217,147.096273 L954.987578,146.723602 L953.28882,147.121118 L952.07764,148.36646 L950.509317,148.978261 L950.217391,150.385093 L951.257764,152.136646 L951.462733,155.583851 L951.257764,157.254658 L949.559006,159.006211 L949.52795,159.962733 L948.92236,160.652174 L948.686335,163.223602 L949.319876,163.940994 L949.425466,165.003106 L948.950311,165.400621 L949.263975,165.826087 L948.89441,166.726708 L948.177019,166.807453 L948.658385,167.47205 L947.543478,167.925466 L946.776398,167.338509 L945.717391,168.13354 L945.07764,167.89441 L944.810559,166.329193 L944.391304,166.145963 L943.434783,166.835404 L942.537267,166.860248 L942.086957,166.543478 L938.909938,167.65528 L937.236025,168.295031 L935.574534,168.878882 L933.689441,169.012422 L931.885093,169.568323 L931.251553,169.167702 L929.71118,169.357143 L926.962733,171.263975 L926.459627,172.987578 L925.450311,173.677019 L925.214286,174.736025 L923.201863,177.018634 L921.953416,177.5 L920.891304,178.956522 L920.580745,179.916149 L919.493789,181.02795 L917.534161,181.425466 L916.84472,182.434783 L917.31677,184.745342 L918.062112,185.136646 L918.301242,185.959627 L917.850932,186.757764 L916.627329,186.835404 L915.093168,188.034161 L914.698758,188.881988 L913.745342,189.621118 L912.36646,191.10559 L911.835404,192.251553 L910.645963,192.276398 L909.319876,193.018634 L909.984472,193.018634 L910.670807,193.099379 L911.173913,194.397516 L911.807453,196.121118 L911.307453,196.602484 L911.068323,195.462733 L910.462733,194.590062 L910.114907,195.754658 L910.487578,197.080745 L911.416149,197.47205 L911.571429,198.322981 L911.099379,199.254658 L911.807453,198.850932 L912.31677,197.875776 L913.42236,197.5 L914.142857,197.770186 L913.583851,198.301242 L914.111801,198.695652 L915.248447,198.347826 L915.124224,197 L914.326087,196.285714 L913.006211,196.630435 L913.080745,196.043478 L913.450311,195.409938 L913.136646,194.295031 L913.745342,193.496894 L914.962733,193.975155 L916.229814,196.149068 L916.419255,197.770186 L917.031056,198.509317 L917.136646,201.003106 L916.07764,203.332298 L914.807453,203.47205 L915.124224,204.295031 L916.229814,206.229814 L916.714286,208.776398 L917.925466,210.21118 L917.903727,211.459627 L917.291925,212.229814 L918.220497,213.369565 L919.388199,213.204969 L920.363354,213.78882 L920.841615,213.232919 L920.841615,212.465839 L919.757764,210.795031 L919.757764,208.437888 L920.419255,207.692547 L921.15528,208.301242 L920.73913,208.937888 L920.708075,209.627329 L921.822981,210.795031 L922.273292,212.76087 L921.900621,213.928571 L922.083851,214.959627 Z M924.68323,219.074534 L924.36646,216.714286 L924.416149,215.726708 L925.23913,216.447205 L925.372671,217.692547 L925.02795,218.673913 L924.68323,219.074534 Z M923.462733,220.717391 L922.562112,219.602484 L921.636646,219.78882 L921.285714,220.667702 L922.114907,222.124224 L923.357143,222.363354 L923.726708,221.698758 L923.462733,220.717391 Z M933.018634,195.835404 L933.599379,196.102484 L934.071429,195.574534 L934.97205,195.888199 L935.661491,195.673913 L935.559006,194.782609 L934.232919,193.350932 L934.86646,192.080745 L935.503106,189.968944 L937.251553,188.909938 L937.720497,188.114907 L939.36646,188.326087 L941.428571,189.649068 L942.006211,190.652174 L942.909938,190.229814 L943.593168,187.639752 L945.232919,186.10559 L945.391304,185.15528 L944.860248,184.627329 L944.543478,183.621118 L942.956522,182.354037 L941.847826,182.298137 L940.791925,181.506211 L938.881988,181.400621 L937.086957,182.881988 L937.086957,183.782609 L936.400621,184.835404 L935.07764,185.26087 L933.968944,186.052795 L933.285714,185.841615 L932.434783,183.888199 L931.751553,183.940994 L929.791925,186.161491 L929.742236,187.484472 L928.47205,188.378882 L928.152174,189.857143 L930.214286,190.388199 L930.583851,191.81677 L930.161491,192.242236 L930.161491,192.978261 L931.326087,194.726708 L933.124224,194.934783 L933.018634,195.835404 Z M939.677019,180.388199 L940.838509,179.276398 L941.767081,179.487578 L941.714286,180.208075 L940.791925,180.68323 L939.677019,180.388199 Z M944.89441,181.689441 L944.229814,180.232919 L944.26087,179.065217 L944.76087,178.270186 L945.52795,178.13354 L945.819876,179.065217 L945.639752,180.124224 L945.872671,180.73913 L945.661491,181.667702 L944.89441,181.689441 Z M913.319876,199.437888 L912.76087,200.130435 L912.975155,201.537267 L913.503106,202.546584 L914.192547,202.568323 L914.481366,201.354037 L913.661491,199.940994 L913.636646,199.490683 L913.319876,199.437888 Z M913.878882,203.236025 L914.459627,202.596273 L914.881988,202.807453 L914.350932,203.68323 L913.878882,203.236025 Z M915.124224,200.925466 L915.015528,200.130435 L915.462733,199.649068 L915.993789,199.940994 L915.860248,200.847826 L915.124224,200.925466 Z M903.968944,200.021739 L903.465839,198.459627 L903.518634,197.5 L904.282609,197.130435 L904.39441,198.009317 L905.236025,198.459627 L905.770186,199.462733 L904.925466,200.158385 L903.968944,200.021739 Z M905.02795,196.388199 L905.189441,197.052795 L906.034161,196.574534 L905.02795,196.388199 Z M905.925466,195.649068 L906.509317,195.913043 L906.801242,195.487578 L905.925466,195.649068 Z M906.801242,194.773292 L907.040373,195.167702 L907.279503,194.826087 L906.801242,194.773292 Z M907.170807,193.78882 L907.968944,194.397516 L908.444099,194.10559 L907.543478,193.496894 L907.118012,193.518634 L907.170807,193.78882 Z M961.263975,144.099379 L961.34472,142.692547 L961.791925,141.838509 L961.475155,141.630435 L960.57764,142.161491 L960.444099,141.229814 L961.07764,138.791925 L961.580745,138.285714 L961.819876,139.322981 L961.717391,140.381988 L962.720497,140.701863 L962.959627,141.493789 L962.590062,143.114907 L961.791925,143.913043 L961.263975,144.099379 Z M963.649068,103.478261 L962.428571,102.736025 L961.84472,101.515528 L962.295031,101.195652 L961.84472,98.568323 L960.947205,96.0496894 L959.829193,95.015528 L958.593168,94.1645963 L957.717391,94.136646 L957.534161,93.1552795 L957.689441,91.1708075 L957.31677,89.7111801 L957.850932,88.515528 L958.692547,88.0372671 L958.931677,87.3757764 L959.913043,87.189441 L960.546584,85.7298137 L961.07764,85.0124224 L960.916149,84.3757764 L959.434783,83.2639752 L958.878882,83.1832298 L958.456522,82.6521739 L958.990683,81.5372671 L960.046584,81.2981366 L962.347826,82.5714286 L964.813665,82.9720497 L965.639752,82.3074534 L965.742236,81.2173913 L966.192547,80.742236 L965.742236,79.6801242 L965.080745,79.3074534 L964.813665,78.5900621 L963.990683,77.2919255 L963.574534,75.9409938 L964.680124,74.6677019 L965.291925,74.5869565 L965.447205,73.9782609 L964.897516,72.5434783 L964.158385,70.3136646 L964.425466,69.310559 L964.263975,66.5590062 L963.686335,64.8664596 L961.149068,60.9565217 L960.726708,59.2111801 L960.086957,58.257764 L960.459627,57.7826087 L961.149068,57.7826087 L961.888199,56.8850932 L961.729814,56.2484472 L963.36646,56.2484472 L963.89441,57.3571429 L966.276398,59.3167702 L968.279503,59.7391304 L969.285714,61.6956522 L972.621118,64.9751553 L974.468944,66.2950311 L975.055901,67.3509317 L976.481366,67.6677019 L977.748447,69.0465839 L979.916149,70.1024845 L981.714286,70.3136646 L983.142857,71.689441 L984.254658,71.4751553 L984.785714,71.8478261 L986.63354,71.5838509 L989,69.9689441 L990.192547,68.4068323 L990.478261,67.1055901 L990.826087,66.6801242 L991.223602,67.2888199 L991.223602,68.5403727 L990.453416,70.7111801 L990.425466,72.7049689 L990.928571,73.3944099 L992.708075,74.5093168 L993.925466,76.0248447 L994.031056,77.136646 L993.872671,77.8757764 L994.987578,77.8757764 L995.670807,76.7639752 L996.726708,75.757764 L997.627329,75.6521739 L997.152174,76.7142857 L996.462733,77.136646 L996.363354,78.5621118 L995.459627,79.2515528 L994.192547,79.7763975 L993.925466,80.8913043 L993.400621,81.6832298 L992.397516,81.7329193 L991.872671,81.310559 L990.86646,82.1024845 L990.968944,82.8478261 L989.114907,82.8478261 L987.689441,82.4751553 L986.475155,82.8478261 L984.518634,85.5931677 L983.776398,88.552795 L983.459627,90.9875776 L983.881988,92.6273292 L983.618012,93.8416149 L983.723602,94.9534161 L982.456522,94.4223602 L981.714286,93.4192547 L979.440994,92.8385093 L977.223602,91.6770186 L975.263975,89.9285714 L973.993789,88.5031056 L972.673913,88.7142857 L971.512422,88.4503106 L970.928571,87.8664596 L969.552795,87.8167702 L967.913043,89.0341615 L966.167702,91.4099379 L965.428571,90.9378882 L963.57764,89.7732919 L962.571429,89.8757764 L961.624224,90.7236025 L961.624224,92.1490683 L962.099379,93.3136646 L963.630435,94.1583851 L965.220497,93.7360248 L967.068323,95.8012422 L968.652174,96.2236025 L970.34472,96.2236025 L970.928571,97.068323 L969.81677,98.5496894 L969.447205,99.6055901 L968.440994,98.8136646 L966.487578,98.7080745 L965.751553,99.2329193 L965.903727,100.291925 L965.381988,101.509317 L963.649068,103.478261 Z M954.798137,96.2360248 L954.189441,95.5186335 L954.034161,94.4068323 L955.195652,93.3416149 L955.993789,93.0807453 L955.698758,94.4068323 L955.652174,95.6273292 L954.798137,96.2360248 Z M916.763975,242.074534 L916.15528,241.599379 L914.962733,241.543478 L914.565217,241.223602 L915.068323,240.189441 L916.341615,239.602484 L916.763975,239.5 L917,239.049689 L917.826087,238.996894 L918.276398,238.704969 L919.335404,238.413043 L918.512422,239.872671 L917.186335,240.745342 L917.108696,241.649068 L916.763975,242.074534 Z M913.745342,244.779503 L914.698758,245.546584 L914.931677,246.745342 L914.512422,247.065217 L913.450311,246.189441 L913.372671,245.282609 L913.745342,244.779503 Z M907.055901,259.602484 L906.478261,257.645963 L907.850932,256.698758 L908.062112,256 L907.748447,255.478261 L909.012422,254.736025 L909.748447,253.257764 L910.391304,254.736025 L909.698758,255.636646 L909.645963,256.906832 L907.850932,258.015528 L907.804348,259.335404 L907.055901,259.602484 Z" id="JP"></path>
                <path d="M745.913043,392.490683 L746.732919,393.468944 L746.419255,394.242236 L747.02795,395.453416 L747.854037,395.055901 L748.167702,392.835404 L747.692547,392.649068 L747.267081,391.642857 L745.913043,392.490683 Z M725.63354,296.593168 L726.149068,296.161491 L726.751553,296.055901 L727.124224,295.319876 L727.931677,294.621118 L729.484472,293.996894 L730.434783,294.114907 L730.34472,295.248447 L731.003106,295.763975 L732.009317,295.751553 L732.263975,294.341615 L733.363354,293.537267 L734.84472,294.993789 L735.618012,293.959627 L736.462733,294.009317 L736.810559,295.074534 L738.447205,294.273292 L738.71118,293.189441 L740.515528,292.661491 L741.944099,293.481366 L744.403727,292.673913 L744.301242,290.39441 L745.888199,289.493789 L747.68323,289.493789 L748.689441,288.493789 L750.273292,289.757764 L750.273292,290.71118 L751.916149,291.02795 L752.549689,291.981366 L755.881988,291.925466 L756.459627,292.673913 L758.419255,291.881988 L759.686335,292.881988 L759.419255,294.310559 L758.36646,294.468944 L757.624224,297.164596 L758.475155,297.481366 L758.888199,299.015528 L761.854037,300.071429 L762.279503,301.127329 L763.701863,301.763975 L765.180124,302.503106 L766.692547,302.049689 L767.326087,302.552795 L768.223602,302.28882 L769.524845,302.990683 L769.692547,303.543478 L769.192547,304.372671 L768.416149,304.708075 L767.804348,304.680124 L766.534161,305.484472 L765.26087,305.39441 L763.931677,305.645963 L763.546584,306.310559 L763.847826,307.363354 L763.13354,307.863354 L762.857143,308.360248 L762.161491,307.947205 L761.052795,308.195652 L760.363354,308.857143 L759.86646,309.052795 L759.391304,308.360248 L758.897516,308.195652 L758.785714,309.217391 L758.229814,309.993789 L758.618012,310.431677 L758.425466,311.540373 L758.478261,312.708075 L758.285714,312.981366 L758.698758,313.838509 L758.313665,314.506211 L757.76087,314.670807 L756.680124,316.385093 L755.73913,316.413043 L755.378882,315.916149 L755.326087,316.521739 L754.658385,317.021739 L754.248447,318.301242 L753.639752,318.804348 L753.583851,320.13354 L754.13354,320.248447 L754.692547,320.962733 L753.965839,323.406832 L753.136646,324.63354 L754.692547,325.959627 L754.521739,326.73913 L753.304348,327.074534 L754.580745,327.462733 L756.745342,328.732919 L758.686335,330.624224 L759.406832,330.571429 L760.354037,332.232919 L760.354037,333.068323 L760.074534,333.568323 L760.686335,335.236025 L760.959627,336.121118 L763.847826,338.450311 L765.456522,339.39441 L765.627329,339.89441 L769.568323,342.055901 L773.121118,344.667702 L773.89441,346.052795 L777.167702,348.493789 L778.223602,350.385093 L778.444099,351.552795 L778.89441,351.552795 L778.835404,352.549689 L780.496894,354.270186 L780.496894,355.046584 L780.885093,355.658385 L780.559006,356.263975 L781.835404,357.81677 L782.164596,360.493789 L782.723602,360.940994 L783.304348,363.291925 L783.773292,363.763975 L783.832298,365.062112 L783.580745,365.89441 L784.049689,367.139752 L783.717391,367.664596 L784.242236,369.521739 L784.298137,370.21118 L784.965839,370.484472 L785.295031,371.537267 L786.15528,373.226708 L785.987578,374.332298 L785.652174,374.310559 L785.627329,373.751553 L785.15528,373.198758 L784.552795,373.559006 L784.630435,374.695652 L785.319876,375.413043 L785.186335,376.074534 L784.440994,376.658385 L784.378882,377.493789 L783.223602,378.375776 L784.242236,379.925466 L783.692547,381.223602 L784.161491,381.832298 L783.192547,382.745342 L782.39441,383.049689 L782.164596,384.847826 L781.39441,385.15528 L779.736025,386.841615 L778.652174,387.42236 L777.186335,388.447205 L777.021739,389.692547 L775.695652,389.692547 L774.835404,390.661491 L771.65528,392.515528 L769.745342,392.71118 L768.916149,392.295031 L767.531056,392.652174 L767.254658,392.378882 L767.444099,391.459627 L767.391304,390.580745 L767.062112,391.434783 L766.832298,391.791925 L765.593168,391.459627 L766.419255,392.127329 L766.397516,392.652174 L766.009317,392.919255 L764.810559,392.723602 L766.807453,393.645963 L766.36646,394.310559 L766.916149,395.475155 L765.841615,396.034161 L764.251553,394.860248 L765.593168,396.304348 L765.453416,397.024845 L764.84472,397.832298 L764.21118,397.60559 L763.627329,396.745342 L762.798137,396.888199 L763.186335,397.968944 L763.13354,398.326087 L763.431677,398.742236 L762.857143,399.15528 L762.468944,399.708075 L761.717391,399.763975 L760.307453,401.009317 L759.701863,401.456522 L758.726708,401.31677 L758.400621,402.121118 L758.201863,403.667702 L757.28882,404.496894 L756.928571,404.465839 L757.012422,404.801242 L753.776398,406.270186 L752.02795,406.024845 L753.139752,405.332298 L754.465839,404.745342 L755.186335,403.916149 L754.444099,404.223602 L753.413043,403.667702 L753.583851,401.425466 L753.776398,401.201863 L753.329193,401.093168 L753.611801,400.124224 L753.475155,397.801242 L754.549689,396.034161 L756.599379,394.419255 L757.232919,393.677019 L756.186335,394.149068 L754.630435,393.928571 L753.531056,394.285714 L752.832298,393.84472 L752.142857,394.121118 L750.736025,393.732919 L750.953416,393.372671 L750.900621,392.15528 L750.552795,391.897516 L751.916149,390.229814 L753.5,389.965839 L754.341615,387.850932 L755.829193,387.795031 L756.618012,388.322981 L760.055901,387.478261 L761.481366,388.322981 L761.854037,389.329193 L764.177019,389.170807 L763.496894,387.639752 L763.76087,386.627329 L762.434783,385.254658 L760.795031,384.782609 L760.481366,382.192547 L761.962733,381.13354 L764.658385,381.23913 L765.39441,379.810559 L767.515528,378.437888 L769.518634,377.857143 L769.841615,376.900621 L771.003106,376.425466 L772.062112,374.257764 L771.798137,372.568323 L772.273292,370.608696 L771.745342,369.180124 L772.062112,366.906832 L770.78882,363.950311 L769.47205,363.26087 L768.599379,360.996894 L768.835404,360.987578 L770.208075,360.139752 L769.993789,357.97205 L769.47205,356.968944 L769.149068,355.062112 L771.21118,353.425466 L771.21118,351.68323 L770.10559,351.521739 L769.518634,350.677019 L769.732919,348.720497 L770.78882,347.664596 L770.313665,346.552795 L768.881988,347.13354 L768.149068,346.919255 L767.251553,345.704969 L765.608696,345.602484 L765.024845,344.860248 L765.291925,343.642857 L764.177019,343.167702 L763.546584,343.378882 L762.596273,342.369565 L762.385093,341.10559 L761.590062,339.782609 L759.791925,339.782609 L758.84472,339.304348 L758.21118,337.562112 L755.934783,335.021739 L756.037267,333.913043 L754.559006,331.798137 L752.440994,330.84472 L750.590062,328.304348 L749.114907,328.149068 L746.944099,326.984472 L744.667702,326.826087 L743.611801,324.919255 L742.447205,324.919255 L742.13354,323.975155 L743.189441,322.810559 L741.65528,321.065217 L741.440994,319.847826 L742.559006,319.798137 L744.667702,319.055901 L746.074534,318.819876 L746.875776,318.021739 L747.720497,315.158385 L748.779503,314.791925 L748.779503,313.779503 L746.689441,313.270186 L746.732919,311.965839 L746.465839,310.487578 L744.565217,310.118012 L743.506211,308.798137 L741.440994,308.798137 L739.801242,309.804348 L738.009317,309.270186 L734.937888,309.217391 L733.406832,306.736025 L730.869565,304.357143 L731.447205,303.136646 L731.18323,301.552795 L729.863354,300.444099 L728.652174,298.590062 L726.108696,297.52795 L725.63354,296.593168 Z" id="VT"></path>
                <polygon id="CB" points="750.552795 391.897516 751.916149 390.229814 753.5 389.965839 754.341615 387.850932 755.829193 387.795031 756.618012 388.322981 760.055901 387.478261 761.481366 388.322981 761.854037 389.329193 764.177019 389.170807 763.496894 387.639752 763.76087 386.627329 762.434783 385.254658 760.795031 384.782609 760.481366 382.192547 761.962733 381.13354 764.658385 381.23913 765.39441 379.810559 767.515528 378.437888 769.518634 377.857143 769.841615 376.900621 771.003106 376.425466 772.062112 374.257764 771.798137 372.568323 772.273292 370.608696 771.745342 369.180124 772.062112 366.906832 770.78882 363.950311 769.47205 363.26087 768.599379 360.996894 767.515528 361.037267 766.031056 360.086957 764.97205 359.770186 764.28882 358.608696 761.801242 359.136646 760.481366 360.354037 762.068323 361.937888 761.801242 363.31677 762.279503 364.689441 762.170807 365.692547 759.897516 364.84472 758.57764 362.680124 756.459627 362.627329 755.829193 361.621118 754.127329 360.369565 753.18323 360.829193 751.916149 359.822981 749.847826 360.086957 748.263975 359.667702 746.680124 359.667702 744.614907 360.406832 743.978261 359.770186 741.86646 359.714286 738.431677 360.829193 737 360.829193 735.468944 362.993789 734.990683 365.161491 733.776398 366.804348 733.621118 369.65528 734.248447 372.568323 735.521739 373.254658 736.214286 374.68323 736.049689 377.378882 735.850932 378.506211 735.869565 378.512422 736.86646 379.677019 736.92236 381.062112 737.891304 381.913043 737.944099 383.329193 738.968944 384.795031 739.555901 384.571429 740.10559 385.652174 739.996894 386.81677 740.490683 387.645963 740.68323 388.751553 741.822981 388.891304 742.736025 388.751553 742.763975 387.506211 743.649068 386.732919 744.254658 386.313665 744.254658 387.201863 744.754658 388.335404 744.639752 389.276398 743.729814 390.329193 744.201863 391.021739 744.397516 391.574534 745.195652 391.627329 746.388199 390.524845 746.493789 390.111801 747.298137 390.717391 748.763975 391.189441 749.208075 390.906832"></polygon>
                <path d="M719.695633,396.583841 L718.633521,397.270177 L718.739111,398.226699 L719.804329,399.12732 L720.121099,397.639742 L719.695633,396.583841 Z M719.959608,396.583841 L718.633521,397.086947 L719.590043,397.381978 L719.959608,396.583841 Z M734.161472,377.950301 L734.267062,379.195643 L735.304329,380.065208 L736.07141,379.913034 L734.161472,377.950301 Z M706.527931,409.013101 L706.211161,409.963412 L706.527931,410.575213 L706.450292,412.087635 L707.397497,410.842294 L707.397497,409.065896 C707.397497,409.065896 706.661472,408.982045 706.527931,409.013101 Z M712.422341,412.111792 L712.686316,413.618003 L712.891285,412.829183 L712.788801,412.189432 L712.422341,412.111792 Z M715.527931,418.537258 L716.083832,419.701854 L716.611782,419.493779 L716.400602,418.586947 L715.869546,418.322972 L715.527931,418.537258 Z M711.397497,312.73291 L712.239111,314.453407 L714.201844,313.978251 L715.624205,315.673904 L715.99377,318.208065 L714.829174,319.055891 L715.88818,320.903717 L717.052776,321.326077 L718.322962,320.270177 L721.018615,320.322972 L721.068304,321.593158 L720.223584,323.279494 L721.068304,324.711171 L721.018615,325.875767 L720.167683,326.984463 L720.804329,328.785705 L720.804329,331.322972 L720.934764,335.167692 L722.947186,334.114897 L724.742217,333.689432 L724.953397,332.204959 L727.279484,331.142848 L729.723584,332.419245 L731.20495,332.307444 L732.472031,333.897506 L735.54967,333.580736 L737.136627,330.298127 L739.568304,329.770177 L742.854018,330.618003 L743.906813,332.73291 L747.086938,335.02173 L748.881969,336.344711 L749.621099,337.931668 L749.363335,339.204959 L748.835385,340.099369 L749.621099,341.847817 L749.515509,343.906823 L749.142838,345.018624 L750.468925,345.968935 L752.006192,347.661481 L753.381969,347.767071 L754.645944,348.295022 L754.177,349.090053 L756.02172,350.304338 L756.341596,351.313655 L755.866441,352.950301 L755.968925,353.900612 L755.437869,355.276388 L755.968925,356.440984 L755.866441,359.083841 L754.913025,360.136636 L753.167683,360.987568 L751.900602,359.981357 L749.832279,360.245332 L748.248428,359.826077 L746.664577,359.826077 L744.59936,360.565208 L743.962714,359.928562 L741.850913,359.872661 L738.41613,360.987568 L736.984453,360.987568 L735.453397,363.152164 L734.975136,365.319866 L733.760851,366.962723 L733.605571,369.813655 L734.2329,372.726699 L735.506192,373.413034 L736.198739,374.841605 L736.034143,377.537258 L735.835385,378.664587 L735.189422,378.590053 L735.105571,379.611792 L734.829174,379.723593 L734.614888,379.36645 L733.086938,378.093158 L732.506192,378.065208 L732.531037,377.400612 L731.621099,376.925456 L729.683211,375.046574 L728.633521,374.658376 L727.801223,375.354028 L727.968925,375.680115 L727.832279,375.959618 L727.192528,375.518624 L725.614888,375.12732 L724.152155,375.487568 L723.124205,375.12732 L722.018615,375.239121 L722.406813,374.07763 L722.875757,373.574525 L722.211161,372.419245 L722.322962,370.478251 L722.739111,370.040363 L722.350913,369.068314 L721.077621,368.816761 L720.826068,368.62732 L720.357124,368.763966 L719.835385,368.375767 L718.698739,368.903717 L717.819857,368.984463 L717.285695,368.540363 L716.813646,369.124214 L715.990664,369.133531 L715.54967,368.913034 L715.54967,369.248438 L715.214267,370.242227 L716.437869,370.854028 L716.655261,372.186326 L715.881969,373.459618 L715.934764,375.071419 L715.661472,375.959618 L716.208056,376.406823 L715.990664,378.462723 L714.937869,379.791916 L714.714267,381.291916 L713.661472,382.844711 L713.273273,388.413034 L711.527931,390.658376 L711.527931,392.204959 L710.83849,393.667692 L711.586938,393.804338 L711.807434,394.164587 L711.114888,395.055891 L711.229795,395.714276 L711.586938,397.239121 L711.586938,398.208065 L713.027931,400.313655 L712.304329,401.720487 L712.748428,402.279494 L713.552776,402.052786 L713.739111,401.450301 L714.46582,400.645953 L714.822962,400.8944 L715.928552,401.114897 L716.568304,401.720487 L716.7329,403.242227 L717.394391,404.133531 L717.260851,405.704959 L718.034143,405.984463 L718.779484,407.618003 L719.580726,407.590053 L719.552776,406.785705 L719.667683,406.18322 L720.027931,407.313655 L720.857124,408.527941 L720.881969,409.748438 L721.577621,410.139742 L722.155261,413.15527 L721.881969,413.568314 L721.630416,414.093158 L721.273273,413.599369 L720.111782,414.369556 L719.913025,415.41614 L722.04967,416.223593 L722.295012,415.145953 L722.739111,415.453407 L722.875757,416.751543 L723.850913,417.562102 L725.937869,419.624214 L726.819857,420.298127 L727.422341,419.872661 L728.913025,420.037258 L730.273273,420.558997 L731.223584,422.677009 L732.024826,423.723593 L733.366441,424.580736 L733.531037,425.291916 L733.183211,425.652164 L733.183211,426.978251 L732.177,427.717382 L731.167683,426.86645 L729.847807,427.027941 L728.208056,428.456512 L726.248428,427.981357 L726.304329,426.922351 L727.149049,425.863345 L727.363335,423.751543 L726.413025,422.798127 L724.875757,422.798127 L724.503087,421.953407 L722.499981,421.372661 L721.124205,420.161481 L720.167683,421.372661 L719.692528,423.055891 L719.083832,422.062102 L715.928552,419.791916 L715.826068,419.201854 L716.437869,418.475146 L716.49377,417.695643 L715.717372,417.586947 L715.214267,416.369556 L713.767062,416.145953 L713.767062,415.145953 L712.108677,412.928562 L711.052776,412.928562 L710.217372,410.257754 L708.88818,410.043469 L708.88818,408.928562 L708.052776,408.316761 L708.108677,407.599369 L706.717372,408.263966 L706.773273,409.652164 L705.835385,409.543469 L705.167683,408.543469 L704.776379,406.046574 L705.114888,405.381978 L704.88818,403.267071 L705.835385,402.819866 L705.78259,399.990674 L706.555882,400.161481 L707.108677,399.052786 L706.28259,398.881978 L707.332279,397.388189 L706.996875,396.773282 L707.94408,395.388189 L707.108677,395.279494 L707.409919,392.863345 L707.798118,391.76086 L708.487559,390.596264 L708.701844,388.745332 L710.279484,387.580736 L712.027931,382.928562 L712.878863,382.400612 L712.981348,379.968935 L712.027931,378.332289 L712.136627,376.217382 L711.499981,374.891295 L711.183211,372.726699 L710.332279,371.826077 L710.49377,370.239121 L710.177,368.81055 L710.70495,367.596264 L709.754639,364.478251 L707.745323,362.518624 L705.524826,360.773282 L703.621099,358.3944 L703.57141,357.071419 L702.512403,354.531046 L704.046565,353.639742 L704.251534,352.52173 L703.413025,348.773282 L703.987559,347.711171 L705.366441,346.97204 L705.208056,345.493779 L703.677,344.751543 L703.413025,343.167692 L702.558987,341.263966 L701.400602,340.841605 L699.655261,337.037258 L697.751534,335.711171 L697.332279,334.602475 L696.270167,333.599369 L695.055882,331.484463 L693.947186,331.164587 L693.788801,329.996885 L695.692528,329.204959 L697.062093,328.198748 L696.534143,326.984463 L696.534143,324.813655 L697.596254,323.813655 L697.226689,321.273282 L698.38818,319.692537 L701.136627,320.807444 L702.832279,319.431668 L704.447186,319.453407 L704.925447,318.686326 L704.978242,316.857133 L705.906813,316.003096 L707.754639,316.267071 L708.313646,315.478251 L707.518615,314.385084 L707.546565,313.565208 L709.189422,312.978251 L711.341596,312.869556 L711.397497,312.73291 Z" id="TH"></path>
                <polygon id="IN" points="543.413043 214.996894 543.897516 215.944099 544 217.161491 545.956522 218.161491 545.636646 221.021739 546.431677 222.397516 545.956522 223.295031 546.748447 223.826087 547.649068 225.096273 547.649068 226.201863 548.335404 226.416149 548.813665 227.996894 550.447205 228.791925 551.301242 227.419255 552.940994 227.468944 553.624224 228.263975 555.319876 228.52795 556.745342 230.062112 557.854037 230.431677 558.701863 232.180124 559.97205 232.391304 560.496894 233.60559 560.614907 233.447205 560.810559 235.987578 559.642857 239.903727 559.642857 242.34472 557.953416 244.881988 558.388199 246.717391 559.97205 246.878882 561.23913 247.934783 562.565217 247.984472 563.829193 248.888199 566.42236 249.630435 569.807453 251.847826 572.02795 254.596273 574.881988 255.229814 576.273292 256.21118 578.28882 256.21118 580.720497 257.804348 584.434783 257.484472 585.701863 258.649068 589.512422 257.590062 593.009317 258.440994 593.428571 260.34472 595.335404 262.037267 599.254658 263.099379 600.630435 262.360248 603.180124 262.254658 609.534161 264.583851 611.121118 263.736025 613.86646 265.217391 618.428571 264.263975 618.956522 260.875776 617.57764 258.015528 618.217391 254.521739 617.732919 252.944099 617.925466 252.956522 619.248447 251.791925 620.937888 251.583851 621.782609 253.118012 621.891304 254.968944 623.31677 256.024845 623.406832 255.987578 623.214286 257.664596 622.680124 258.878882 624.111801 261.152174 626.593168 261.68323 627.599379 261.052795 631.195652 263.111801 633.15528 263.111801 634.636646 261.313665 636.270186 261.10559 637.807453 261.78882 640.450311 261.052795 642.459627 261.152174 645.419255 260.201863 645.36646 259.037267 645.36646 256.981366 643.093168 255.968944 642.885093 254.493789 643.363354 252.720497 644.363354 252.642857 647.059006 252.009317 648.251553 251.903727 648.996894 250.127329 650.080745 249.301242 651.220497 249.677019 651.23913 248.717391 652.779503 248.298137 653.282609 246.779503 654.503106 245.273292 656.090062 245.031056 658.801242 244.39441 660.434783 242.329193 660.332298 240.745342 661.388199 240.534161 663.024845 239.36646 664.354037 241.273292 666.254658 240.745342 669.059006 241.642857 669.841615 240.900621 669.636646 239.583851 672.810559 237.732919 673.978261 238.096273 674.767081 239.158385 675.773292 238.89441 676.086957 239.583851 675.024845 241.590062 675.614907 242.754658 676.512422 242.487578 677.462733 242.223602 677.782609 243.332298 678.838509 244.763975 678.838509 245.767081 677.673913 247.037267 678.043478 248.251553 679.630435 248.515528 680.52795 248.145963 681.903727 248.726708 683.388199 250.257764 683.546584 251.375776 682.118012 252.692547 682.118012 254.652174 682.484472 255.86646 681.059006 255.229814 679.838509 254.232919 677.782609 255.708075 675.397516 256.450311 674.65528 258.192547 672.916149 260.360248 671.273292 260.940994 668.84472 264.751553 668.475155 266.496894 669.208075 267.444099 668.208075 270.357143 666.149068 273.686335 666.254658 274.791925 668 275.642857 666.413043 279.5 665.720497 282.621118 664.559006 285.372671 662.60559 285.42236 661.335404 285.003106 659.807453 284.89441 660.701863 288.493789 660.649068 290.39441 660.487578 293.037267 658.956522 292.826087 659.220497 294.779503 658.956522 296.580745 659.322981 298.062112 658.481366 300.493789 657.686335 300.919255 657 300.602484 656.680124 301.978261 656.680124 302.773292 656.406832 302.503106 656.049689 301.906832 655.984472 301.121118 655.673913 300.621118 655.145963 299.490683 654.568323 297.52795 654.139752 294.574534 653.618012 293.459627 653.618012 291.925466 653.139752 289.872671 652.487578 288.835404 652.114907 288.145963 650.841615 288.254658 649.916149 287.614907 649.26087 288.145963 649.708075 288.835404 649.282609 289.5 649.26087 290.298137 648.490683 291.409938 648.965839 291.782609 648.832298 292.944099 648.093168 292.97205 646.950311 291.465839 645.785714 290.350932 645.496894 289.602484 644.751553 288.916149 644.009317 286.953416 644.009317 286.080745 644.596273 285.571429 644.832298 284.618012 646.236025 283.639752 646.767081 284.167702 647.583851 284.298137 648.170807 283.574534 648.170807 282.621118 649.071429 282.142857 650.018634 279.720497 650.285714 277.919255 651.074534 276.381988 650.335404 276.065217 649.071429 274.745342 648.223602 274.959627 647.692547 274.583851 646.478261 274.695652 643.990683 274.791925 641.767081 274.531056 638.810559 274.745342 636.906832 274.745342 635.372671 274.055901 633.996894 274.167702 632.627329 273.636646 632.677019 272.57764 632.093168 270.987578 631.885093 270.093168 631.565217 268.350932 630.562112 266.549689 629.822981 266.704969 629.720497 267.232919 628.28882 266.76087 627.546584 266.018634 626.487578 265.118012 625.850932 265.071429 625.537267 265.913043 626.593168 266.549689 625.850932 266.92236 624.319876 266.704969 623.263975 265.381988 623.31677 264.593168 622.310559 263.428571 621.729814 262.583851 621.307453 263.636646 620.667702 263.692547 620.723602 264.695652 621.465839 265.335404 620.776398 267.232919 619.357143 268.875776 619.139752 270.618012 622.574534 271.838509 623.900621 271.307453 625.798137 271.465839 625.481366 272.36646 625.906832 274.263975 624.953416 275.009317 624.055901 274.695652 623 275.326087 622.363354 277.279503 620.987578 277.596273 620.937888 280.512422 622.574534 282.462733 624.481366 283.204969 626.276398 285.475155 626.276398 287.903727 626.965839 289.757764 626.704969 291.083851 627.074534 293.357143 629.180124 296.341615 629.204969 298.335404 629.708075 299.559006 629.92236 301.850932 629.57764 301.97205 630.409938 303.630435 629.630435 304.956522 628.496894 303.73913 628.496894 304.546584 627.692547 304.099379 627.177019 302.42236 626.875776 301.583851 626.692547 302.217391 626.487578 303.071429 626.326087 302.698758 626.049689 303.21118 624.891304 303.192547 624.763975 303.431677 623.540373 303.018634 623.158385 301.192547 623.462733 300.086957 622.354037 299.093168 621.07764 299.093168 621.192547 299.503106 622.046584 299.726708 622.627329 300.416149 622.189441 300.829193 621.745342 301.860248 621.636646 302.906832 620.552795 304.124224 615.987578 305.810559 615.21118 306.450311 614.913043 307.555901 614.186335 308.993789 614.440994 309.878882 615.21118 311.431677 615.130435 311.900621 615.599379 312.121118 613.940994 313.559006 613.555901 314.89441 612.776398 314.975155 613.083851 315.885093 610.400621 317.795031 610.263975 318.736025 606.276398 320.785714 605.829193 320.229814 605.804348 319.484472 605.506211 319.124224 604.950311 319.124224 603.704969 320.118012 602.928571 320.229814 602.590062 322.170807 603.782609 321.701863 604.173913 321.198758 604.835404 321.521739 599.841615 325.959627 598.565217 329.462733 592.015528 334.732919 591.015528 336.621118 589.515528 338.118012 586.742236 339.062112 584.686335 340.782609 584.465839 342.338509 584.745342 344.055901 583.524845 345.835404 581.801242 346.940994 578.52795 346.444099 577.086957 347.664596 577.086957 349.217391 575.086957 351.770186 573.975155 351.661491 573.198758 350.549689 572.586957 350.549689 570.145963 352.990683 569.42236 354.322981 569.478261 356.931677 570.704969 360.537267 569.540373 361.872671 569.76087 363.869565 569.76087 369.534161 571.590062 370.142857 571.86646 373.751553 570.204969 378.574534 568.31677 381.962733 568.31677 384.795031 569.034161 385.903727 569.608696 392.018634 569.608696 393.677019 568.195652 394.204969 567.450311 393.84472 565.512422 394.149068 564.68323 395.611801 565.040373 396.220497 563.15528 398.723602 562.487578 399.562112 562.71118 400.496894 565.10559 401.720497 565.381988 402.13354 565.428571 402.661491 565.096273 402 563.962733 401.571429 560.826087 402.661491 560.326087 402.60559 557.773292 403.717391 556.934783 405.052795 556.826087 405.826087 556.496894 406.161491 556.826087 406.717391 556.161491 408.658385 553.276398 410.434783 550.891304 410.217391 548.670807 408.658385 546.503106 406.10559 543.897516 400.667702 543.732919 397.614907 542.950311 394.838509 541.28882 391.78882 541.28882 390.400621 540.680124 390.347826 539.956522 388.295031 539.285714 385.798137 537.124224 383.298137 535.847826 381.242236 535.291925 381.189441 533.295031 379.07764 532.409938 377.192547 531.745342 376.57764 531.515528 373.524845 530.689441 372.251553 529.409938 368.919255 529.021739 366.649068 528.245342 365.037267 527.468944 363.869565 527.298137 361.204969 526.854037 361.096273 524.97205 358.931677 524.97205 358.096273 524.468944 357.987578 522.745342 354.875776 522.692547 353.934783 521.748447 353.375776 521.195652 351.217391 519.97205 350.437888 518.810559 347.279503 518.754658 343.167702 515.642857 337.118012 515.642857 335.118012 514.254658 333.009317 515.86646 332.897516 513.704969 330.127329 513.76087 328.571429 514.757764 328.347826 513.981366 327.291925 513.869565 325.959627 511.652174 321.965839 511.31677 319.465839 512.645963 318.804348 511.484472 318.136646 511.425466 316.863354 512.198758 315.195652 512.046584 313.093168 511.350932 310.959627 510.524845 310.409938 509.888199 306.947205 511.465839 305.981366 512.021739 305.149068 513.204969 305.149068 511.934783 304.869565 510.220497 305.121118 509.307453 305.068323 509.478261 303.680124 508.782609 302.465839 509.02795 301.02795 509.416149 300.720497 510.385093 300.947205 511.602484 299.726708 512.186335 298.779503 510.888199 299.586957 509.996894 299.173913 508.226708 299.391304 507.673913 298.204969 507.481366 299.121118 507.400621 300.583851 506.34472 303.406832 507.428571 304.76087 507.173913 307.363354 506.043478 308.524845 505.990683 309.326087 503.493789 310.602484 499.704969 312.953416 497.934783 313.559006 495.276398 312.981366 489.627329 308.440994 487.307453 305.39441 487.276398 304.869565 486.590062 304.928571 485.614907 304.403727 482.375776 301.164596 482.099379 300.173913 482.375776 299.36646 483.263975 299.279503 483.540373 299.726708 484.428571 299.447205 484.406832 301.080745 485.614907 301.220497 486.419255 300.531056 486.888199 300.468944 487.689441 300.97205 487.860248 300.416149 490.875776 298.037267 491.785714 298.009317 493.201863 295.850932 493.642857 295.931677 494.223602 294.521739 492.729814 294.413043 492.28882 294.161491 492.512422 294.63354 492.36646 295.270186 489.326087 296.571429 487.555901 296.571429 486.173913 297.046584 481.397516 295.378882 479.124224 292.990683 478.180124 292.552795 478.295031 291.049689 479.73913 289.167702 481.341615 288.279503 479.291925 288.608696 477.248447 289.913043 477.319876 288.015528 478.854037 287.012422 479.860248 286.745342 480.493789 284.89441 481.602484 285.158385 482.822981 284.52795 487.84472 284.791925 490.748447 283.732919 491.335404 283.099379 493.02795 282.571429 492.444099 283.624224 493.130435 284.475155 494.773292 283.468944 496.149068 282.993789 495.562112 282.307453 495.782609 281.251553 494.139752 276.596273 492.71118 274.695652 493.080745 273.686335 492.07764 272.841615 490.645963 272.947205 488.270186 271.413043 487.950311 268.714286 488.055901 266.92236 486.996894 264.645963 485.627329 264.593168 484.832298 265.015528 483.086957 264.434783 481.869565 264.487578 481.869565 262.63354 483.031056 259.677019 484.149068 259.304348 486.096273 256.503106 486.416149 255.229814 487.791925 254.543478 488.745342 253.857143 490.335404 254.543478 490.645963 255.968944 491.704969 256.186335 494.456522 254.757764 498.313665 254.543478 500.642857 251.953416 502.071429 247.624224 505.453416 245.23913 506.295031 243.649068 506.618012 241.273292 508.257764 238.947205 510.63354 237.782609 511.428571 235.987578 511.372671 234.608696 510.425466 233.869565 512.537267 231.540373 513.704969 230.645963 513.913043 228.903727 514.285714 225.251553 513.543478 222.555901 513.121118 221.916149 515.450311 219.698758 516.819876 219.223602 518.195652 218.322981 519.093168 218.484472 520.996894 216.363354 523.170807 212.773292 525.338509 210.813665 527.186335 210.708075 528.139752 208.962733 529.670807 208.962733 533.692547 211.664596 535.801242 210.496894 537.813665 211.28882 538.552795 213.295031 540.406832 213.195652 543.36646 215.046584"></polygon>
                <polygon id="BR" points="132.593168 27.6180124 134.217391 26.5 136.857143 25.6521739 138.767081 26.6055901 140.673913 25.6521739 141.940994 25.5465839 141.201863 23.4254658 143.31677 23.3198758 144.062112 21.4161491 145.332298 20.9906832 145.863354 21.8416149 147.453416 21.8416149 147.453416 20.2515528 145.543478 19.2950311 145.968944 17.0714286 147.02795 16.8602484 148.400621 14.4254658 150.944099 13.2608696 150.944099 11.7795031 149.779503 11.2484472 151.47205 9.02173913 153.801242 7.96583851 156.875776 7.54037267 157.192547 5.63354037 158.462733 5 158.993789 3.51552795 160.798137 3.0931677 162.071429 3.94099379 163.652174 2.98447205 165.136646 5.31987578 166.937888 4.47204969 168.52795 4.68322981 169.903727 7.11801242 171.807453 5.63354037 173.928571 5 174.776398 6.0621118 175.835404 6.0621118 179.015528 7.22360248 179.431677 8.91925466 178.903727 10.8229814 180.177019 12.3074534 180.177019 14.5310559 181.872671 16.3322981 182.714286 18.3447205 184.624224 20.9906832 186.10559 22.0496894 186.745342 24.4875776 189.180124 25.121118 191.934783 27.5590062 192.142857 28.9347826 194.052795 30.2049689 193.201863 30.947205 191.714286 33.3850932 187.906832 33.9099379 186.319876 32.4285714 185.68323 33.5931677 185.785714 35.3944099 187.273292 37.7267081 187.062112 39.7360248 188.757764 41.6428571 188.757764 43.5031056 188.559006 43.4596273 185.444099 44.2515528 183.270186 44.4658385 182.220497 47.2670807 182.059006 49.7515528 180.468944 49.9627329 179.198758 48.8509317 177.086957 49.4875776 175.84472 48.6645963 174.310559 48.7453416 172.956522 50.4161491 171.73913 50.015528 171.447205 48.6118012 169.437888 48.3447205 167.145963 49.7515528 166.139752 49.2763975 163.916149 48.9565217 163.282609 49.5931677 162.282609 49.6459627 161.065217 48.5372671 158.52795 49.5403727 158.208075 48.6925466 156.413043 47.7950311 152.186335 47.1583851 150.385093 46.1552795 149.484472 46.1024845 147.947205 47.3726708 145.627329 47.4782609 140.490683 48.2173913 139.223602 48.9068323 136.847826 47.689441 135.677019 47.8354037 135.736025 47.1055901 134.254658 44.7298137 133.670807 42.5590062 134.782609 40.7608696 136.267081 40.2329193 136.21118 35.6335404 135.36646 34.8944099 135.049689 33.0962733 134.046584 31.5590062 132.934783 28.1770186"></polygon>
                <polygon id="UI" points="135.65528 47.8043526 136.826087 47.6583898 139.201863 48.8757811 140.468944 48.1863401 145.60559 47.4472097 147.925466 47.3416196 149.462733 46.0714333 150.363354 46.1242283 152.164596 47.1273339 156.391304 47.7639799 158.186335 48.6614954 158.506211 49.5093215 161.043478 48.5062159 162.26087 49.6149116 163.26087 49.5621165 163.89441 48.9254706 166.118012 49.2453464 167.124224 49.7205016 169.416149 48.3136693 171.425466 48.5807501 171.717391 49.9844768 172.934783 50.3850979 174.28882 48.7142905 175.822981 48.6335451 177.065217 49.4565265 179.177019 48.8198805 180.447205 49.9316818 182.037267 49.7205016 182.198758 47.2360296 183.248447 44.4347873 185.42236 44.2205016 188.537267 43.4285762 189.916149 43.7453464 191.608696 43.3757811 191.447205 41.8416196 192.562112 40.8385141 196.208075 42.0527998 199.962733 42.0527998 201.813665 41.0496942 203.503106 41.1552842 204.611801 44.5372718 206.149068 45.8074582 205.301242 47.4472097 207.313665 50.0900669 211.385093 49.5093215 212.863354 50.7795078 213.071429 52.3136693 214.450311 52.5248495 214.450311 54.5341662 215.242236 56.9099426 218.571429 60.1397563 219.89441 58.6552842 221.959627 59.7670855 223.649068 59.2919302 225.236025 59.6087004 227.720497 57.7049737 228.881988 57.5465886 230.524845 61.1428619 232.795031 62.5714333 233.481366 64.0000047 234.490683 62.9937936 237.13354 63.5745389 239.090062 63.6273339 240.468944 64.4720544 242.052795 64.2080793 243.956522 65.3726755 246.177019 65.7981414 247.28882 64.6832346 247.92236 66.3757811 248.925466 66.9596321 248.978261 68.9161538 247.757764 70.5527998 246.229814 70.8726755 245.751553 74.043483 247.86646 75.5248495 248.186335 77.6397563 247.28882 80.3354085 247.549689 82.1863401 246.229814 83.1925513 242.68323 83.406837 241.102484 85.9409985 240.149068 86.3633588 239.717391 89.801247 238.34472 90.2888246 238.177019 89.5124271 237.39441 89.4006259 235.568323 90.180129 233.73913 90.0124271 232.791925 90.7298184 232.18323 92.0093215 230.574534 92.1180172 229.791925 93.2298184 228.23913 94.8944147 227.686335 94.7298184 226.189441 94.8944147 224.965839 95.8354085 223.024845 95.3944147 221.52795 96.3385141 220.583851 96.1708122 219.63354 94.5621165 218.97205 94.6180172 219.419255 95.5062159 220.248447 96.5621165 219.916149 97.5000047 218.357143 99.7205016 217.47205 100.223607 217.139752 99.5590109 217.692547 99.2236072 219.142857 97.5000047 218.916149 96.8913091 218.139752 96.3944147 217.863354 97.2267128 215.642857 99.5590109 214.313665 99.7795078 214.093168 100.667707 212.531056 100.667707 211.481366 99.8913091 210.593168 100.723607 208.981366 100.444104 208.76087 101.055905 209.704969 101.667707 212.031056 101.496899 212.92236 102.555905 213.810559 103.220502 214.639752 102.776402 215.142857 103.500005 214.419255 104.385098 214.478261 105.049694 215.142857 104.6087 215.807453 104.6087 215.590062 105.773297 216.475155 104.940999 217.248447 105.440999 217.580745 107.105595 218.419255 107.993794 220.080745 108.493794 220.801242 108.105595 218.357143 105.773297 215.807453 102.667707 215.086957 100.776402 215.698758 100.388203 216.807453 101.944104 217.363354 103.888203 220.916149 107.770191 221.748447 108.105595 222.97205 106.829197 223.801242 106.770191 225.189441 107.661495 225.745342 106.164601 228.074534 105.885098 230.018634 105.993794 229.462733 106.937893 228.742236 107.546589 229.409938 108.881992 228.518634 109.937893 226.018634 110.15839 223.13354 109.661495 221.416149 110.602489 220.139752 112.378887 217.807453 112.326092 214.419255 114.875781 211.86646 116.040377 209.208075 115.931682 207.928571 114.931682 208.313665 114.375781 209.208075 111.711185 209.093168 110.655284 206.763975 108.829197 205.925466 108.937893 204.322981 108.15839 203.319876 108.993794 202.037267 108.437893 203.546584 106.164601 206.152174 104.6087 208.313665 104.220502 208.925466 103.832303 208.096273 102.829197 207.763975 101.000005 207.080745 100.68634 206.52795 101.73603 205.36646 101.071433 203.708075 100.350936 201.931677 100.655284 200.385093 101.459632 199.055901 100.68634 198.024845 100.599384 196.953416 99.6583898 197.754658 99.1614954 198.062112 98.6087004 195.900621 97.8882035 193.23913 97.8882035 192.602484 96.97516 194.242236 96.97516 196.78882 96.6428619 198.108696 97.0590109 199.055901 96.5590109 200.602484 95.6180172 198.388199 96.1708122 197.273292 95.7826134 196.388199 95.1180172 195.885093 94.2826134 195.273292 95.285719 194.664596 96.1149116 193.332298 96.1149116 193.385093 95.7267128 192.552795 94.9503153 191.111801 96.7826134 189.391304 96.8913091 188.335404 97.7267128 188.335404 99.5590109 186.838509 101.496899 186.059006 101.496899 186.509317 102.444104 183.729814 105.773297 182.782609 105.773297 182.177019 104.829197 182.118012 105.885098 181.956522 106.770191 182.677019 107.661495 182.397516 108.937893 182.381988 108.959632 181.136646 107.937893 178.863354 108.149073 177.667702 109.024849 174.968944 108.968949 172.950311 108.549694 171.782609 106.500005 172.838509 105.717396 174.052795 106.086961 174.099379 104.76398 175.478261 102.229818 176.220497 102.335408 176.164596 100.537272 176.378882 97.8913091 177.804348 97.8385141 179.708075 97.2049737 180.872671 98.1583898 183.037267 98.1024892 183.301242 97.3105637 182.406832 96.0403774 182.720497 94.8229861 182.456522 93.5031103 180.341615 92.232924 178.543478 90.5931724 178.282609 89.801247 176.645963 88.9534209 176.801242 87.2080793 176.326087 84.6180172 174.475155 83.6708122 172.198758 81.3913091 171.512422 81.3913091 171.142857 82.2391352 168.763975 81.97516 166.490683 79.9130482 164.586957 79.9130482 163.524845 78.2236072 162.950311 78.8043526 161.360248 78.8043526 160.885093 79.543483 159.456522 78.6956569 159.139752 79.1739178 157.97205 78.6956569 158.291925 80.6552842 158.034161 81.5000047 158.301242 83.3167749 156.60559 83.611806 154.909938 84.6739178 149.990683 85.5217439 148.776398 86.9472097 147.245342 87.0496942 144.916149 87.7919302 143.378882 87.0496942 142.698758 85.8913091 140.73913 84.990688 138.677019 84.9378929 136.034161 83.406837 134.608696 83.406837 133.649068 84.301247 132.204969 84.3571476 131.698758 83.0341662 129.841615 81.8167749 128.10559 80.1708122 128.416149 79.9658432 128.732919 77.4813712 130.245342 74.2701911 131.642857 74.3602532 131.748447 72.1397563 131.434783 70.1304395 135.925466 65.1087004 136.562112 62.8850979 137.673913 61.7236072 138.888199 61.6708122 139.295031 59.4875824 138.763975 58.5838557 138.549689 57.4409985 139.192547 56.6211228 137.413043 55.5093215 136.565217 53.3571476 135.639752 52.4037314 135.555901 49.0310606"></polygon>
                <path d="M303.86646,165.649068 L300.590062,160.686335 L298.78882,160.15528 L297.630435,157.822981 L296.360248,157.822981 L295.509317,158.565217 L293.60559,156.767081 L292.437888,157.400621 L291.15528,157.450311 L291.456522,157.934783 L291.757764,157.953416 L292.791925,159.15528 L293.714286,159.07764 L294.232919,160.39441 L294.127329,161.456522 L297.332298,163.204969 L297.565217,164.611801 L299.478261,165.593168 L301.403727,165.658385 L303.462733,166.822981 L303.86646,165.649068 Z M291.574534,143.804348 L291.701863,142.57764 L294.450311,141.518634 L298.583851,143.84472 L301.335404,143.953416 L303.984472,145.329193 L304.409938,142.68323 L303.350932,141.195652 L301.440994,140.031056 L302.186335,137.385093 L304.298137,137.596273 L307.689441,140.350932 L308.645963,142.152174 L312.034161,142.468944 L312.667702,141.195652 L314.785714,140.031056 L317.335404,136.937888 L318.89441,138.046584 L321.164596,141.006211 L321.267081,142.434783 L322.223602,144.496894 L324.708075,146.23913 L324.97205,147.403727 L326.555901,148.618012 L328.515528,148.568323 L330.419255,149.360248 L331.47205,150.89441 L330.360248,150.736025 L329.357143,151.475155 L327.406832,151.580745 L325.180124,153.431677 L325.341615,155.335404 L325.60559,156.869565 L324.916149,157.767081 L324.76087,159.090062 L325.236025,159.881988 L325.236025,160.937888 L324.543478,161.571429 L324.543478,164.114907 L324.118012,165.065217 L323.649068,164.217391 L324.118012,162.63354 L323.121118,161.571429 L322.540373,162.10559 L322.114907,163.267081 L322.645963,165.170807 L322.484472,166.332298 L322.860248,166.965839 L322.810559,169.742236 L322.180124,170.152174 L320.965839,169.888199 L320.490683,169.040373 L319.273292,168.456522 L316.829193,165.779503 L319.21118,164.161491 L317.515528,163.099379 L317.118012,162.357143 L318.018634,161.614907 L317.043478,160.63354 L316.400621,159.543478 L315.714286,159.385093 L315.580745,158.962733 L314.810559,158.931677 L313.437888,159.97205 L312.381988,160.180124 L311.450311,161.428571 L310.57764,161.801242 L309.329193,163.549689 L308.562112,163.57764 L308.059006,164.295031 L307.822981,165.145963 L306.521739,165.714286 L305.487578,165.360248 L305.574534,165.34472 L305.574534,163.754658 L306.099379,163.121118 L305.046584,161.214286 L306.841615,160.791925 L305.152174,159.204969 L303.031056,159.096273 L299.748447,157.295031 L298.78882,155.071429 L299.748447,154.012422 L299.639752,152.534161 L296.673913,150.093168 L296.568323,148.611801 L297.099379,146.916149 L295.614907,145.434783 L292.965839,145.118012 L291.574534,143.804348 Z" id="AZ"></path>
                <polygon id="LI" points="126.878882 20.3913043 126.639752 17.8136646 127.490683 16.6490683 126.748447 15.8571429 125.847826 15.6459627 125.583851 14.2142857 124.57764 13.6925466 121.881988 14.326087 119.981366 13.3726708 117.97205 10.6242236 115.468944 11.1614907 115.096273 10.9534161 115.701863 9.89751553 115.208075 8.06521739 115.055901 5.8757764 116.34472 5.49689441 116.903727 4.00931677 118.97205 2.12732919 122.282609 1.33229814 124.84472 1.58074534 126.586957 1.47515528 127.543478 2.26708075 128.965839 1.15838509 130.450311 0.947204969 130.767081 1.8447205 132.037267 1.89751553 133.251553 3.27329193 135.52795 3.2173913 136.21118 3.53726708 138.586957 2.00310559 141.18323 3.2173913 143.453416 3.59006211 145.360248 5.75776398 146.947205 6.02173913 148.636646 8.29503106 150.754658 8.40062112 151.468944 9.0310559 149.779503 11.2484472 150.944099 11.7795031 150.944099 13.2608696 148.400621 14.4254658 147.02795 16.8602484 145.968944 17.0714286 145.543478 19.2950311 147.453416 20.2515528 147.453416 21.8416149 145.863354 21.8416149 145.332298 20.9906832 144.062112 21.4161491 143.31677 23.3198758 141.201863 23.4254658 141.940994 25.5465839 140.673913 25.6521739 138.767081 26.6055901 136.857143 25.6521739 134.217391 26.5 132.593168 27.6180124 131.664596 26.1180124 131.770186 24.3695652 130.981366 21.6708075 129.97205 21.568323 128.335404 20.2453416"></polygon>
                <polygon id="AR" points="280.518634 144.841615 282.804348 144.055901 286.080745 143.31677 287.037267 143.52795 291.170807 143.42236 292.965839 145.118012 295.614907 145.434783 297.099379 146.916149 296.568323 148.611801 296.673913 150.093168 299.639752 152.534161 299.748447 154.012422 298.78882 155.071429 299.748447 157.295031 303.031056 159.096273 305.152174 159.204969 306.841615 160.791925 305.046584 161.214286 306.099379 163.121118 305.574534 163.754658 305.574534 165.34472 303.878882 165.664596 300.590062 160.686335 298.78882 160.15528 297.630435 157.822981 296.360248 157.822981 295.509317 158.565217 293.60559 156.767081 292.437888 157.400621 291.15528 157.450311 290.611801 156.562112 289.347826 155.295031 287.916149 155.400621 285.645963 155.295031 283.52795 154.02795 283.42236 151.118012 283.900621 148.84472 283.10559 147.310559 281.782609 146.993789 281.677019 146.093168"></polygon>
                <path d="M141.34472,188.813665 L141.742236,189.437888 L141.21118,189.419255 L141.34472,188.813665 Z M141.425466,190.177019 L141.673913,189.875776 L141.909938,190.850932 L142.652174,191.838509 L142.139752,192.900621 L141.425466,192.540373 L141.459627,191.754658 L141.043478,191.068323 L141.425466,190.177019 Z M139.34472,168.453416 L140.378882,167.549689 L142.232919,167.26087 L143.341615,168.478261 L144.618012,168.956522 L145.863354,169.621118 L146.021739,169.913043 L146.97205,169.962733 L147.13354,169.729814 L148.875776,171.478261 L149.490683,172.593168 L149.515528,173.201863 L149.729814,173.944099 L149.596273,175.031056 L150.574534,175.987578 L151,175.670807 L152.301242,175.801242 L151.767081,177.282609 L151.07764,176.916149 L150.468944,177.257764 L149.381988,176.546584 L148.984472,175.801242 L149.118012,175.006211 L148.540373,174.447205 L147.611801,173.040373 L147.236025,172.431677 L146.285714,172.512422 L144.959627,171.795031 L144.378882,170.891304 L143.481366,170.680124 L142.89441,169.881988 L142.232919,169.593168 L141.940994,169.114907 L141.248447,168.531056 L139.984472,168.586957 L139.34472,168.453416 Z M153.037267,177.36646 L153.701863,177.310559 L154.285714,178.214286 L155.531056,179.329193 L155.506211,180.124224 L154.89441,180.099379 L153.332298,178.562112 L152.670807,178.006211 L153.037267,177.36646 Z M156.273292,180.257764 L156.959627,180.021739 L157.596273,180.627329 L157.698758,181.319876 L156.878882,180.947205 L156.273292,180.257764 Z M158.388199,182.090062 L158.419255,181.503106 L159.052795,181.689441 L158.388199,182.090062 Z M158.78882,185.329193 L158.285714,184.503106 L159.31677,183.602484 L159.981366,183.729814 L160.136646,184.503106 L159.478261,185.350932 L158.78882,185.329193 Z M157.009317,185.614907 L156.378882,185.059006 L156.667702,183.897516 L157.378882,183.897516 L157.698758,184.63354 L157.009317,185.614907 Z M150.391304,181.267081 L150.15528,180.791925 L150.602484,180.232919 L151.130435,180.947205 L150.391304,181.267081 Z M151.108696,182.965839 L151.108696,181.745342 L151.767081,181.931677 L151.742236,182.590062 C151.742236,182.590062 151.161491,182.965839 151.108696,182.965839 Z M151.369565,184.31677 L152.037267,183.841615 L152.037267,184.795031 L151.369565,184.31677 Z M150.78882,188.854037 L151.478261,187.84472 L152.431677,187.872671 L152.217391,188.642857 L151.425466,188.934783 L150.78882,188.854037 Z M162.869565,181.475155 L162.391304,180.869565 L162.60559,180.071429 L164.142857,179.779503 L163.900621,180.524845 L162.869565,181.475155 Z M150.947205,167.496894 L151.450311,167.310559 L152.059006,167.978261 L152.804348,168.23913 L152.934783,169.462733 L152.456522,169.649068 L152.059006,168.822981 L151.689441,168.717391 L150.947205,167.496894 Z M142.599379,165.854037 L143.158385,165.456522 L143.481366,165.773292 L143.102484,166.490683 L142.599379,165.854037 Z M143.956522,165.826087 L144.403727,165.692547 L145.170807,165.956522 L145.409938,166.888199 L145.170807,167.391304 L143.956522,165.826087 Z M150.574534,151.021739 L151.161491,150.810559 L152.167702,151.313665 L152.301242,152.108696 L151.369565,152.562112 L150.97205,152.322981 L150.15528,152.347826 L150.574534,151.021739 Z M154.127329,157.335404 L155.291925,157.307453 L155.795031,157.732919 L156.534161,157.043478 L157.276398,157.444099 L156.378882,158.425466 L156.198758,159.829193 L155.34472,159.459627 L154.763975,159.565217 L154.099379,159.006211 L153.757764,157.89441 L154.127329,157.335404 Z M157.301242,153.515528 L157.565217,153.009317 L158.549689,152.878882 L159.450311,153.118012 L159.478261,153.782609 L158.68323,154.074534 L157.301242,153.515528 Z M160.990683,166.909938 L159.900621,166.009317 L160.562112,164.897516 L162.201863,164.31677 L163.003106,163.807453 L164.531056,163.571429 L164.773292,163.940994 L164.478261,164.763975 L164.826087,164.81677 L165.062112,165.875776 L165.037267,167.419255 L163.583851,167.524845 L162.57764,167.046584 L162.975155,166.462733 L163.583851,165.956522 L163.692547,165.055901 L162.627329,165.080745 L162.285714,165.931677 L162.127329,166.807453 L161.434783,166.965839 L160.990683,166.909938 Z M162.975155,171.158385 L163.28882,172.959627 L163.024845,174.152174 L162.021739,174.63354 L161.226708,174.024845 L161.198758,173.440994 L161.863354,173.177019 L161.832298,172.086957 L160.878882,171.369565 L160.878882,170.891304 L161.729814,170.440994 L162.627329,170.813665 L162.975155,171.158385 Z M165.434783,178.903727 L166.65528,177.92236 L167.503106,178.006211 L168.375776,178.717391 L168.618012,178.425466 L169.012422,178.506211 L169.173913,179.065217 L168.354037,179.462733 L168.006211,179.885093 L167.28882,179.860248 L166.680124,179.170807 L165.888199,179.226708 L165.118012,179.434783 L165.434783,178.903727 Z M165.568323,189.332298 L164.906832,188.829193 L165.251553,188.298137 L166.391304,187.872671 L166.975155,188.136646 L166.496894,188.909938 C166.496894,188.909938 165.543478,189.304348 165.568323,189.332298 Z M175.42236,194.13354 L174.97205,193.65528 L175.341615,192.863354 L175.10559,192.568323 L175.21118,191.798137 L176.801242,190.475155 L178.47205,189.785714 L179.397516,189.381988 L179.319876,190.127329 L178.813665,190.524845 L178.549689,191.319876 L178.15528,191.956522 L178.177019,192.434783 L177.487578,192.459627 L176.695652,193.232919 L176.034161,194.02795 L175.42236,194.13354 Z M171.57764,198.509317 L171.34472,197.02795 L170.89441,196.121118 L171.689441,195.145963 L171.872671,196.018634 L172.559006,196.916149 L172.031056,198.301242 L171.57764,198.509317 Z M171.903727,194.773292 L171.689441,194.450311 L172.086957,193.78882 L172.086957,194.506211 L171.903727,194.773292 Z M126.285714,178.689441 L126.841615,179.329193 L125.944099,179.198758 L125.754658,179.677019 L124.934783,179.462733 L123.931677,178.453416 L124.142857,177.658385 L124.726708,177.36646 L125.624224,177.791925 L126.285714,178.689441 Z M123.583851,173.468944 L123.614907,171.689441 L124.434783,172.378882 L124.885093,173.413043 L124.698758,174.024845 L125.332298,174.686335 L125.521739,175.378882 L125.813665,175.773292 L125.363354,176.487578 L124.490683,176.015528 L123.481366,175.878882 L123.481366,175.055901 L123.13354,174.686335 L123.111801,175.431677 L122.73913,175.822981 L122.07764,175.139752 L122.07764,173.596273 L122.950311,173.360248 L123.583851,173.468944 Z M123.481366,171.074534 L123.39441,170.586957 L124.043478,169.403727 L124.549689,169.313665 L124.76087,170.559006 L124.310559,171.118012 L123.860248,171.223602 L123.481366,171.074534 Z M117.785714,160.652174 L117.726708,162.083851 L118.549689,163.012422 L119.503106,163.357143 L119.661491,163.863354 L119.31677,164.127329 L118.124224,163.571429 L116.832298,162.192547 L116.723602,161.770186 L115.956522,161.450311 L115.850932,160.704969 L117.127329,160.229814 L117.785714,160.652174 Z M147.145963,197.658385 L146.670807,196.76087 L146.602484,197.807453 L146.139752,198.736025 L146.270186,199.838509 L147.329193,200.313665 L149.779503,199.993789 L150.78882,200.263975 L151.767081,199.92236 L153.229814,200.341615 L154.819876,201.270186 L155,202.226708 L156.832298,202.149068 L158.335404,201.189441 L160.034161,201.354037 L162.736025,201.270186 L164.593168,201.322981 L165.649068,200.658385 L166.096273,199.630435 L165.857143,198.614907 L165.857143,197.981366 L165.459627,198.562112 L165.409938,199.307453 L164.515528,200.049689 L163.878882,199.490683 L163.108696,199.782609 L162.335404,199.677019 L162.496894,198.990683 L162.127329,198.02795 L161.409938,198.055901 L159.42236,197.791925 L157.860248,197.10559 L155.795031,197.180124 L154.071429,198.273292 L152.751553,198.614907 L151.636646,198.02795 L151.108696,197.450311 L150.232919,197.583851 L150.835404,197.02795 L150.307453,196.149068 L149.170807,196.229814 L149.381988,196.78882 L149.754658,196.89441 L149.329193,197.263975 L148.245342,197.319876 L147.981366,196.229814 L147.636646,196.121118 L147.503106,196.732919 L147.692547,197.47205 L147.145963,197.658385 Z M163.537267,140.751553 L162.652174,140.751553 L160.906832,142.07764 L160.801242,143.767081 L161.381988,145.037267 L160.431677,145.826087 L157.310559,145.618012 L155.881988,146.307453 L154.614907,145.562112 L153.18323,145.562112 L152.186335,146.357143 L150.810559,146.254658 L150.596273,145.037267 L148.692547,145.090062 L146.897516,144.773292 L145.627329,145.987578 L143.770186,146.462733 L141.34472,146.409938 L140.599379,146.040373 L139.649068,146.888199 L138.322981,146.940994 L136.639752,148 L132.990683,147.841615 L131.456522,148.68323 L131.350932,149.319876 L129.285714,150.059006 L126.375776,151.857143 L126.059006,153.919255 L124.900621,156.034161 L121.990683,156.987578 L121.881988,158.677019 L120.875776,160.847826 L119.919255,161.34472 L120.074534,161.453416 L120.186335,163.565217 L122.854037,165.565217 L124.363354,167.745342 L125.083851,167.909938 L124.919255,168.57764 L126.97205,171.462733 L127.475155,173.459627 L128.413043,173.850932 L129.636646,172.350932 L130.745342,173.742236 L132.468944,173.959627 L133.192547,172.854037 L134.406832,172.959627 L136.350932,174.127329 L137.518634,173.571429 L137.736025,174.571429 L138.680124,174.518634 L139.456522,175.127329 L141.012422,175.403727 L139.906832,176.071429 L138.906832,177.065217 L137.906832,176.236025 L136.571429,175.906832 L133.686335,174.015528 L132.416149,174.459627 L131.189441,175.186335 L129.916149,174.571429 L128.857143,175.906832 L128.07764,176.124224 L127.583851,177.403727 L129.136646,179.180124 L130.745342,179.956522 L132.301242,181.397516 L132.468944,182.453416 L131.857143,183.173913 L131.965839,184.562112 L133.298137,186.282609 L134.189441,187.285714 L134.57764,186.338509 L134.245342,185.614907 L134.798137,184.338509 L135.298137,185.950311 L137.236025,186.779503 L137.686335,187.835404 L137.409938,189.055901 L138.23913,190.059006 L138.23913,188.003106 L138.959627,186.338509 L140.18323,186.338509 L140.732919,187.667702 L142.897516,189.108696 L142.015528,187.608696 L142.232919,186.614907 L141.456522,185.173913 L140.462733,182.785714 L139.571429,181.397516 L139.627329,180.84472 L140.518634,180.732919 L142.124224,181.562112 L141.627329,182.180124 L142.124224,182.732919 L142.959627,181.841615 L144.621118,182.397516 L144.677019,181.841615 L144.009317,181.34472 L143.872671,180.726708 L143.28882,180.562112 L142.068323,179.78882 L142.177019,179.065217 L140.732919,177.956522 L142.124224,177.347826 L143.400621,177.403727 L144.180124,176.73913 L146.173913,178.127329 L146.397516,178.73913 L147.782609,178.900621 L148.173913,178.068323 L146.953416,176.28882 L147.285714,174.627329 L146.78882,173.68323 L143.400621,171.57764 L142.350932,171.298137 L141.847826,170.462733 L140.900621,170.518634 L140.295031,169.742236 L138.850932,169.574534 L137.409938,168.298137 L138.959627,168.074534 L139.850932,167.024845 L139.791925,166.248447 L138.350932,165.857143 L139.130435,164.857143 L139.068323,164.02795 L140.189441,164.447205 L141.102484,165.192547 L140.73913,165.996894 L140.847826,166.770186 L141.65528,166.580745 L142.149068,164.863354 L141.18323,163.701863 L138.959627,160.975155 L138.015528,160.251553 L137.795031,159.254658 L136.074534,157.810559 L136.689441,157.031056 L136.406832,154.145963 L137.357143,152.645963 L139.130435,152.257764 L139.347826,153.701863 L138.518634,153.701863 L138.680124,154.478261 L140.959627,155.534161 L141.18323,157.310559 L142.624224,158.475155 L144.232919,158.419255 L143.071429,157.642857 L142.459627,156.534161 L142.680124,155.534161 L144.180124,156.034161 L145.341615,157.642857 L146.341615,158.034161 L146.900621,157.090062 L145.78882,156.254658 L144.791925,155.86646 L144.847826,155.034161 L147.568323,155.145963 L148.559006,156.145963 L149.006211,155.645963 L147.453416,154.201863 L145.838509,153.981366 L144.512422,152.425466 L145.28882,151.537267 L146.732919,151.978261 L147.891304,151.31677 L148.450311,149.372671 L149.509317,148.984472 L151.111801,150.204969 L152.338509,150.31677 L153.667702,148.928571 L153.726708,148.208075 L154.335404,148.208075 L155.332298,149.372671 L158.329193,149.372671 L160.580745,149.962733 L162.170807,149.562112 L163.018634,147.872671 L162.701863,146.279503 L164.608696,145.118012 L164.714286,143.31677 L163.229814,142.68323 L163.537267,140.751553 Z" id="GR"></path>
                <polygon id="AL" points="122.664596 141.872671 122.310559 144.397516 122.86646 147.127329 124.031056 149.170807 124.798137 150.89441 126.357143 152.006211 126.059006 153.919255 124.900621 156.034161 121.990683 156.987578 121.881988 158.677019 120.875776 160.847826 119.919255 161.34472 118.627329 160.450311 117.298137 157.009317 114.630435 156.89441 113.847826 156.006211 114.406832 154.341615 113.630435 153.003106 113.630435 151.223602 114.298137 149.670807 113.406832 147.335404 114.071429 144.111801 114.73913 143.779503 114.965839 142.667702 112.819876 141.596273 112.940994 138.900621 113.947205 136.785714 115.487578 134.937888 116.012422 135.043478 116.913043 136.36646 118.180124 134.779503 118.208075 134.689441 118.754658 135.080745 119.73913 136.729814 120.403727 136.885093 121.916149 137.86646 122.360248 138.953416 122.335404 141.21118"></polygon>
                <polygon id="MZ" points="135.102484 137.102484 138.065217 139.431677 140.018634 142.869565 140.282609 144.614907 140.555901 146.083851 139.649068 146.888199 138.322981 146.940994 136.639752 148 132.990683 147.841615 131.456522 148.68323 131.350932 149.319876 129.285714 150.059006 126.375776 151.857143 126.357143 152.006211 124.798137 150.89441 124.031056 149.170807 122.86646 147.127329 122.310559 144.397516 122.664596 141.872671 122.785714 142.114907 123.372671 141.503106 123.285714 140.335404 125.003106 139.378882 126.537267 138.953416 127.754658 138.055901 130.611801 137.369565 131.984472 137.583851 134.046584 137.102484"></polygon>
                <polygon id="BG" points="134.543478 119.63354 136.534161 119.813665 137.484472 120.608696 137.375776 121.717391 136.847826 122.512422 137.639752 123.832298 139.437888 122.667702 141.39441 122.776398 142.186335 123.618012 142.925466 123.413043 145.465839 124.360248 147.580745 123.357143 149.006211 123.779503 150.220497 123.248447 151.708075 123.779503 152.978261 123.779503 155.723602 124.096273 156.627329 123.459627 158.47205 122.881988 159.10559 121.822981 163.444099 119.813665 165.347826 119.496894 167.624224 119.71118 170.018634 120.701863 170.78882 121.524845 172.189441 120.993789 174.096273 121.891304 174.413043 122.636646 176.161491 122.723602 176.254658 123.065217 175.981366 125.841615 175.031056 126.726708 173.704969 126.562112 171.708075 128.338509 172.040373 131.559006 171.540373 133 169.487578 134.555901 169.763975 135.332298 170.984472 135.496894 172.428571 137.608696 173.537267 139.385093 173.540373 139.487578 171.913043 139.07764 170.854037 139.925466 168.84472 138.338509 166.726708 138.338509 165.878882 139.28882 164.714286 139.397516 163.546584 140.667702 163.537267 140.751553 162.652174 140.751553 160.906832 142.07764 160.801242 143.767081 161.381988 145.037267 160.431677 145.826087 157.310559 145.618012 155.881988 146.307453 154.614907 145.562112 153.18323 145.562112 152.186335 146.357143 150.810559 146.254658 150.596273 145.037267 148.692547 145.090062 146.897516 144.773292 145.627329 145.987578 143.770186 146.462733 141.34472 146.409938 140.599379 146.040373 140.555901 146.083851 140.282609 144.614907 140.018634 142.869565 138.065217 139.431677 135.102484 137.102484 135.208075 137.102484 135.680124 135.782609 134.732919 134.301242 134.571429 133.086957 137.167702 130.704969 137.639752 129.226708 136.639752 127.322981 134.521739 125.15528 133.776398 122.192547 134.944099 121.02795"></polygon>
                <polygon id="RO" points="132.226708 84.3881988 133.670807 84.3322981 134.630435 83.4378882 136.055901 83.4378882 138.698758 84.9689441 140.76087 85.0217391 142.720497 85.9223602 143.400621 87.0807453 144.937888 87.8229814 147.267081 87.0807453 148.798137 86.9782609 150.012422 85.552795 154.931677 84.7049689 156.627329 83.6428571 161.217391 82.8416149 162.071429 86.1273292 165.034161 88.7732919 165.347826 90.257764 169.263975 93.3291925 169.795031 95.3385093 171.068323 97.4565217 170.745342 104.341615 171.704969 106.354037 172.97205 108.580745 174.990683 109 177.689441 109.055901 178.885093 108.180124 181.158385 107.968944 182.403727 108.990683 181.642857 109.745342 182.419255 110.354037 182.419255 111.465839 181.363354 113.354037 179.810559 113.686335 177.257764 113.850932 176.872671 115.403727 175.925466 116.403727 176.537267 117.459627 176.425466 119.627329 175.649068 120.956522 176.161491 122.723602 174.413043 122.636646 174.096273 121.891304 172.189441 120.993789 170.78882 121.524845 170.018634 120.701863 167.624224 119.71118 165.347826 119.496894 163.444099 119.813665 159.10559 121.822981 158.47205 122.881988 156.627329 123.459627 155.723602 124.096273 152.978261 123.779503 151.708075 123.779503 150.220497 123.248447 149.006211 123.779503 147.580745 123.357143 145.465839 124.360248 142.925466 123.413043 142.186335 123.618012 141.39441 122.776398 139.437888 122.667702 137.639752 123.832298 136.847826 122.512422 137.375776 121.717391 137.484472 120.608696 136.534161 119.813665 134.543478 119.63354 134.096273 118.068323 133.885093 116.959627 135.102484 115.583851 132.565217 115.055901 131.350932 116.695652 130.18323 115.639752 128.649068 116.270186 127.959627 115.055901 125.540373 114.254658 125.248447 113.484472 126.099379 111.65528 124.161491 110.195652 122.254658 109.186335 121.782609 107.891304 119.419255 105.102484 118.97205 104.170807 117.627329 103.708075 119.083851 102.204969 120.350932 101.835404 121.040373 100.568323 122.996894 100.723602 124.310559 99.4565217 124.263975 98.0310559 126.857143 94.1677019 128.385093 89.673913 129.919255 86.8167702 131.664596 86.5 132.413043 84.863354"></polygon>
                <polygon id="SE" points="107.822981 106.614907 108.838509 105.484472 110.515528 104.621118 111.751553 104.795031 112.189441 104.102484 113.937888 102.63354 115.052795 103.003106 116.583851 103.347826 118.97205 104.170807 119.419255 105.102484 121.782609 107.891304 122.254658 109.186335 124.161491 110.195652 126.099379 111.65528 125.248447 113.484472 125.540373 114.254658 127.959627 115.055901 128.649068 116.270186 130.18323 115.639752 131.350932 116.695652 132.565217 115.055901 135.102484 115.583851 133.885093 116.959627 134.096273 118.068323 134.944099 121.02795 133.776398 122.192547 134.521739 125.15528 136.639752 127.322981 137.639752 129.226708 137.167702 130.704969 134.571429 133.086957 134.732919 134.301242 135.680124 135.782609 135.208075 137.102484 134.046584 137.102484 131.984472 137.583851 130.611801 137.369565 127.754658 138.055901 126.537267 138.953416 125.003106 139.378882 123.285714 140.335404 123.372671 141.503106 122.785714 142.114907 122.335404 141.21118 122.360248 138.953416 121.916149 137.86646 120.403727 136.885093 119.73913 136.729814 118.754658 135.080745 118.208075 134.689441 118.391304 133.984472 119.5 133.034161 119.397516 131.39441 117.549689 131.074534 116.385093 129.965839 114.742236 129.965839 114.055901 129.173913 114.055901 128.012422 112.506211 126.496894 113.006211 126 111.363354 124.096273 111.363354 122.512422 112.046584 122.034161 113.313665 122.723602 113.84472 121.875776 113.006211 120.975155 111.891304 120.92236 109.773292 119.229814 109.723602 118.226708 111.204969 116.006211 111.413043 114.102484 110.515528 114.049689 109.878882 114.524845 109.481366 114.018634 109.298137 112.835404 110.726708 112.304348 111.413043 112.304348 111.413043 111.723602 110.040373 111.406832 109.298137 110.770186 108.875776 108.869565 107.975155 106.698758"></polygon>
                <polygon id="HU" points="117.627329 103.708075 119.083851 102.204969 120.350932 101.835404 121.040373 100.568323 122.996894 100.723602 124.310559 99.4565217 124.263975 98.0310559 126.857143 94.1677019 128.385093 89.673913 129.919255 86.8167702 131.664596 86.5 132.413043 84.863354 131.720497 83.0652174 129.863354 81.8478261 128.127329 80.2018634 126.484472 81.2639752 124.208075 80.7391304 121.248447 80.9503106 119.555901 80.4720497 117.127329 80.6863354 115.857143 82.6428571 114.534161 83.7018634 114.372671 85.0745342 112.313665 82.9068323 109.931677 84.9161491 107.869565 85.6024845 107.661491 86.9782609 103.745342 87.3478261 101.263975 88.1956522 98.6677019 87.7173913 93.7701863 84.8850932 94.121118 87.3478261 93.8571429 88.826087 90.6863354 88.7763975 90.3695652 89.4099379 91.689441 90.9440994 91.052795 92.6335404 90.8975155 94.0093168 91.689441 95.3850932 90.5465839 96.8229814 90.2173913 96.9285714 92.0621118 99.0465839 92.3354037 101.462733 93.6459627 101.729814 96.6614907 104.586957 98.1956522 105.167702 99.3571429 106.065217 103.161491 106.698758 105.860248 107.652174 107.024845 106.170807 107.822981 106.614907 108.838509 105.484472 110.515528 104.621118 111.751553 104.795031 112.189441 104.102484 113.937888 102.63354 115.052795 103.003106 116.583851 103.347826"></polygon>
                <polygon id="SV" points="93.7701863 84.8850932 98.6677019 87.7173913 101.263975 88.1956522 103.745342 87.3478261 107.661491 86.9782609 107.869565 85.6024845 109.931677 84.9161491 112.313665 82.9068323 114.372671 85.0745342 114.534161 83.7018634 115.857143 82.6428571 117.127329 80.6863354 119.555901 80.4720497 121.248447 80.9503106 124.208075 80.7391304 126.484472 81.2639752 128.437888 79.9968944 128.754658 77.5124224 130.267081 74.3012422 130.080745 74.2857143 127.024845 72.4906832 124.267081 72.3850932 123.341615 72.810559 122.201863 72.2795031 121.009317 72.4378882 120.080745 73.3944099 119.049689 72.6770186 117.301242 72.6770186 116.164596 72.5434783 114.996894 72.9440994 114.124224 74.2701863 112.748447 74.3229814 112.347826 74.1055901 112.36646 74.1801242 108.978261 73.863354 107.397516 75.2919255 105.546584 75.4503106 103.481366 77.5124224 100.782609 77.8819876 97.9782609 78.8881988 97.2950311 78.3074534 95.6024845 78.3571429 93.8571429 79.5217391 93.4937888 79.4378882 93.3354037 81.7826087"></polygon>
                <polygon id="CZ" points="77.8509317 57.0310559 78.3881988 58.189441 79.0217391 57.447205 80.2919255 57.6863354 81.0124224 57.3136646 84.0031056 57.7670807 83.8975155 58.6149068 85.1708075 59.9161491 86.363354 59.757764 87.447205 60.6863354 86.7298137 62.3012422 87.3136646 63.1801242 87.8447205 63.4689441 87.7795031 64.8726708 88.7795031 65.2981366 89.4689441 64.5559006 90.4192547 64.5559006 88.7236025 62.3354037 89.4130435 61.8602484 92.8540373 63.7639752 95.0217391 63.5 94.6521739 64.7670807 96.2360248 66.0372671 98.984472 65.4037267 101.152174 66.0900621 105.596273 69.3167702 106.968944 71.6956522 108.23913 71.7484472 108.875776 71.0062112 110.832298 71.0652174 111.944099 72.2236025 112.36646 74.1801242 108.978261 73.863354 107.397516 75.2919255 105.546584 75.4503106 103.481366 77.5124224 100.782609 77.8819876 97.9782609 78.8881988 97.2950311 78.3074534 95.6024845 78.3571429 93.8571429 79.5217391 90.636646 78.7795031 89.363354 77.8291925 87.4099379 78.2546584 85.3447205 78.1459627 83.5496894 76.878882 80.8509317 76.7732919 79.3726708 76.189441 78.7857143 77.5652174 78.0496894 78.2546584 77.947205 79.363354 75.9347826 79.4689441 75.2453416 80.2608696 71.5465839 78.1459627 70.5093168 78.0341615 70.5186335 77.984472 67.5807453 74.5900621 66.1490683 73.6335404 63.6273292 71.9099379 62.1987578 71.1118012 61.8012422 70.0248447 61.9099379 68.2484472 60.3757764 65.8602484 58.4378882 64.689441 58.363354 63.6024845 58.9968944 63.1273292 59.6987578 63.7080745 60.9161491 64.2919255 63.5031056 61.9130435 64.7732919 61.8074534 66.2049689 60.1708075 67.7888199 60.1149068 68.5807453 58.8975155 71.015528 58.8478261 72.0714286 59.1118012 73.2919255 58.3726708 73.2919255 57.0465839 75.5621118 57.5776398 76.515528 56.9409938 77.5745342 57.4720497"></polygon>
                <polygon id="PL" points="112.347826 74.1055901 112.748447 74.3229814 114.124224 74.2701863 114.996894 72.9440994 116.164596 72.5434783 117.301242 72.6770186 119.049689 72.6770186 120.080745 73.3944099 121.009317 72.4378882 122.201863 72.2795031 123.341615 72.810559 124.267081 72.3850932 127.024845 72.4906832 130.080745 74.2857143 131.664596 74.3913043 131.770186 72.1708075 131.456522 70.1614907 135.947205 65.1397516 136.583851 62.9161491 137.695652 61.7546584 138.909938 61.7018634 139.31677 59.5186335 138.785714 58.6149068 138.571429 57.4720497 139.214286 56.6521739 137.434783 55.5403727 136.586957 53.3881988 135.661491 52.4347826 135.57764 49.0621118 135.736025 47.1055901 134.254658 44.7298137 133.670807 42.5590062 134.782609 40.7608696 136.267081 40.2329193 136.21118 35.6335404 135.36646 34.8944099 135.049689 33.0962733 134.046584 31.5590062 132.934783 28.1770186 131.664596 26.1180124 131.770186 24.3695652 130.981366 21.6708075 129.97205 21.568323 128.335404 20.2453416 118.65528 21.1987578 109.338509 20.673913 108.493789 21 105.993789 23.2173913 103.885093 23.7173913 103.326087 23.2173913 102.437888 22.9409938 99.2763975 22.052795 98.6086957 20.3322981 99.1086957 19.1118012 100.776398 19.3322981 101.552795 19.8354037 101.60559 19.3322981 99.5559006 18.3354037 95.8354037 17.3913043 92.9503106 18.8913043 90.8416149 18.7236025 88.673913 19.5559006 87.3416149 21.3881988 85.2329193 21.4409938 83.9068323 22.9409938 83.9068323 24.1055901 81.6273292 24.1614907 78.1863354 26.0496894 75.8571429 26.2173913 75.0248447 27.9937888 74.4689441 29.7670807 73.9658385 30.0434783 74.0807453 30.7670807 73.3509317 30.8043478 74.1335404 34.0993789 73.9223602 36.5310559 71.863354 37.5900621 71.863354 38.5962733 74.1335404 41.0248447 73.8664596 42.5093168 74.9285714 43.8819876 74.9285714 44.9937888 75.5621118 46.5279503 74.9813665 47.7950311 76.3043478 50.810559 77.2795031 51.3478261 78.1459627 52.484472 78.2515528 56.3881988 77.8509317 57.0310559 78.3881988 58.189441 79.0217391 57.447205 80.2919255 57.6863354 81.0124224 57.3136646 84.0031056 57.7670807 83.8975155 58.6149068 85.1708075 59.9161491 86.363354 59.757764 87.447205 60.6863354 86.7298137 62.3012422 87.3136646 63.1801242 87.8447205 63.4689441 87.7795031 64.8726708 88.7795031 65.2981366 89.4689441 64.5559006 90.4192547 64.5559006 88.7236025 62.3354037 89.4130435 61.8602484 92.8540373 63.7639752 95.0217391 63.5 94.6521739 64.7670807 96.2360248 66.0372671 98.984472 65.4037267 101.152174 66.0900621 105.596273 69.3167702 106.968944 71.6956522 108.23913 71.7484472 108.875776 71.0062112 110.832298 71.0652174 111.944099 72.2236025"></polygon>
                <path d="M17.1086957,57.9409938 L17.7236025,56.3322981 L18.1987578,53.8913043 L17.7701863,51.7608696 L18.7173913,50.5993789 L19.6180124,49.1180124 L21.5776398,48.6428571 L23.4254658,49.0621118 L24.484472,48.484472 L23.6925466,47.1055901 L24.6397516,46.4192547 L24.8540373,44.8322981 L25.2763975,43.9347826 L24.5341615,43.2484472 L22.7360248,43.3043478 L22.5279503,42.3478261 L23.1614907,40.9223602 L24.6925466,41.6086957 L25.6428571,40.8167702 L25.6708075,39.3819876 L26.2515528,38.1055901 L26.3571429,37.2795031 L26.7826087,36.7484472 L26.8167702,36.4378882 L25.4037267,35.984472 L24.2919255,34.984472 L22.2391304,33.9285714 L20.0714286,34.2639752 L18.8043478,35.3695652 L17.5807453,34.8726708 L16.8012422,35.3695652 L15.0279503,35.4285714 L13.3602484,37.2608696 L10.6987578,38.7018634 L10.1428571,38.3136646 L8.58695652,38.9254658 L8.52795031,40.7018634 L7.08695652,41.8074534 L7.53416149,43.5310559 L7.19875776,45.0838509 L6.59006211,46.363354 L6.08695652,47.2515528 L4.97515528,48.0807453 L5.03726708,49.1925466 L6.69565217,50.6925466 C6.69565217,50.6925466 8.24332141,51.020328 8.20186335,51.1335404 C8.1604053,51.2467527 6.53416149,51.1335404 6.53416149,51.1335404 L5.75776398,51.8012422 L5.25465839,52.2484472 L5.92236025,53.0807453 L4.25465839,52.689441 L2.98136646,52.0776398 L1.75465839,52.5807453 L2.20496894,53.2453416 L0.763975155,54.0217391 L1.53416149,54.4565217 L2.22049689,55.515528 L3.33540373,55.515528 L4.07142857,56.3074534 L4.86645963,55.515528 L6.55590062,54.7763975 L7.61801242,54.6677019 L8.04347826,53.6118012 L10.5248447,53.6614907 L11.3695652,54.5093168 L12.6397516,54.5093168 L13.3291925,55.515528 L15.2795031,55.4099379 L15.9440994,56.6242236 L15.8602484,57.552795 L17.1086957,57.9409938 Z" id="NL"></path>
                <path d="M33.9192547,17.9627329 L35.8540373,17.8664596 L38.5434783,18.6086957 L39.3416149,18.9751553 L40.6335404,18.7515528 L42.052795,20.2763975 L43.4968944,20.4409938 L42.7173913,22.1086957 L41.9968944,22.8291925 L42.3850932,23.6614907 L43.552795,23.9937888 L43.9937888,25.2204969 L45.1242236,24.3913043 L45.515528,23.6180124 L46.2111801,23.1987578 L46.7608696,23.9782609 L48.6118012,25.3012422 L49,24.7795031 L50.1677019,23.863354 L50.7453416,24.1956522 L50.7732919,25.4440994 L49.8043478,26.6055901 L48.9223602,26.4689441 L47.621118,27.3540373 L49.4720497,27.9037267 L50.1397516,27.5993789 L51.4596273,27.7391304 L51.9378882,28.5403727 L53.4565217,28.4037267 L53.7080745,27.3540373 L54.7298137,25.9378882 L57.4130435,25.5248447 L57.4968944,24.8602484 L58.5962733,24.9937888 L59.1459627,25.5496894 L60.6490683,24.4968944 L62.2546584,24.326087 L62.9254658,23.9937888 L63.4223602,24.7701863 L64.6956522,24.9937888 L66.5279503,26.826087 L68.0279503,26.5465839 L68.863354,27.8229814 L68.5807453,29.2142857 L69.9192547,30.2670807 L71.136646,30.0993789 L72.0248447,30.878882 L73.3509317,30.8043478 L74.1335404,34.0993789 L73.9223602,36.5310559 L71.863354,37.5900621 L71.863354,38.5962733 L74.1335404,41.0248447 L73.8664596,42.5093168 L74.9285714,43.8819876 L74.9285714,44.9937888 L75.5621118,46.5279503 L74.9813665,47.7950311 L76.3043478,50.810559 L77.2795031,51.3478261 L78.1459627,52.484472 L78.2515528,56.3881988 L77.5745342,57.4720497 L76.515528,56.9409938 L75.5621118,57.5776398 L73.2919255,57.0465839 L73.2919255,58.3726708 L72.0714286,59.1118012 L71.015528,58.8478261 L68.5807453,58.8975155 L67.7888199,60.1149068 L66.2049689,60.1708075 L64.7732919,61.8074534 L63.5031056,61.9130435 L60.9161491,64.2919255 L59.6987578,63.7080745 L58.9968944,63.1273292 L58.363354,63.6024845 L58.4378882,64.689441 L60.3757764,65.8602484 L61.9099379,68.2484472 L61.8012422,70.0248447 L62.1987578,71.1118012 L63.6273292,71.9099379 L66.1490683,73.6335404 L67.5807453,74.5900621 L70.5186335,77.984472 L70.2515528,79.363354 L70.3322981,80.8229814 L69.1645963,80.8229814 L68.326087,82.2826087 L66.6242236,83.1180124 L64.6677019,85.6024845 L64.6677019,86.5559006 L66.4689441,87.4534161 L66.6801242,88.826087 L65.9378882,89.3571429 L64.3012422,88.4037267 L62.6645963,88.878882 L60.9689441,88.4037267 L59.8043478,88.5621118 L57.4813665,90.0962733 L56.2111801,90.363354 L55.0465839,89.9906832 L53.7763975,90.3074534 L52.7204969,89.621118 L50.7111801,89.3043478 L48.757764,89.568323 L48.9099379,90.5745342 L48.4347826,91.1521739 L46.5869565,90.6801242 L45.5807453,89.568323 L44.2670807,90.0559006 L43.4161491,90.4813665 L43.0310559,90.484472 L42.3043478,89.9906832 L40.2950311,88.5093168 L39.2857143,88.4565217 L38.5434783,89.1459627 L37.6490683,88.878882 L37.1242236,87.4534161 L35.6397516,87.9813665 L35.7981366,88.878882 L35.2670807,89.7826087 L33.4751553,89.1459627 L32.1521739,89.8850932 L30.9440994,89.5248447 L30.3012422,88.0869565 L29.0279503,87.2950311 L28.9223602,85.1801242 L29.6677019,82.6428571 L30.6708075,81.689441 L30.6708075,80.5807453 L31.4658385,78.3571429 L33.1024845,76.6677019 L31.673913,75.7173913 L30.3012422,75.7173913 L28.5496894,74.9192547 L27.2360248,75.3447205 L26.2795031,74.9720497 L25.0093168,74.9720497 L23.7950311,75.3975155 L22.5279503,74.3385093 L22.5279503,73.4409938 L21.1521739,72.3819876 L21.257764,70.0590062 L20.4627329,69.3695652 L20.1459627,67.7857143 L18.4068323,65.6149068 L17.9254658,65.6149068 L18.7763975,63.6055901 L17.8757764,62.2298137 L17.9254658,61.3291925 L16.8167702,59.0559006 L17.2919255,58 L17.1086957,57.9409938 L17.7236025,56.3322981 L18.1987578,53.8913043 L17.7701863,51.7608696 L18.7173913,50.5993789 L19.6180124,49.1180124 L21.5776398,48.6428571 L23.4254658,49.0621118 L24.484472,48.484472 L23.6925466,47.1055901 L24.6397516,46.4192547 L24.8540373,44.8322981 L25.2763975,43.9347826 L24.5341615,43.2484472 L22.7360248,43.3043478 L22.5279503,42.3478261 L23.1614907,40.9223602 L24.6925466,41.6086957 L25.6428571,40.8167702 L25.6708075,39.3819876 L26.2515528,38.1055901 L26.3571429,37.2795031 L26.7826087,36.7484472 L26.8167702,36.4378882 L26.621118,35.0962733 L25.015528,34.8198758 L24.3478261,33.5403727 L24.6273292,32.0993789 L27.9006211,31.2111801 L28.8447205,30.7670807 L30.4596273,31.931677 L30.4596273,33.5931677 L31.673913,35.0372671 L32.3975155,34.2639752 L31.7298137,32.9875776 L31.7298137,31.931677 L32.3975155,31.6521739 L33.4503106,32.5962733 L33.3416149,34.2639752 C33.3416149,34.2639752 34.7731009,36.0132245 34.9503106,36.0962733 C35.1275202,36.179322 34.2826087,34.7049689 34.2826087,34.7049689 L34.2267081,32.5962733 L33.947205,31.3757764 L34.8416149,29.9347826 L36.0062112,29.7142857 L37.1708075,30.3229814 L38.7267081,29.7142857 L41.0372671,32.257764 C41.0372671,32.257764 44.1786819,33.0329276 44.2173913,32.8726708 C44.2561007,32.712414 41.1925466,31.6149068 41.1925466,31.6149068 L38.8850932,29.2142857 L37.1149068,29.0993789 L36.1180124,28.4906832 L36.1180124,27.4347826 L37.2826087,26.5465839 L35.9503106,25.7173913 L35.9503106,23.9937888 L34.673913,24.5496894 L34.6149068,23.2732919 L35.8416149,23.2732919 L37.1708075,22.7732919 L35.5590062,21.2732919 L35.6677019,20.2204969 L34.8944099,20.1677019 L33.8913043,19.5 L34.0062112,18.2795031 L33.9192547,17.9627329 Z" id="GE"></path>
                <polygon id="TW" points="850.037267 284.829193 849.555901 284.829193 848.763975 283.186335 847.130435 282.608696 846.170807 283.139752 846.332298 284.145963 845.009317 284.618012 843.428571 286.416149 841.947205 288.956522 842.313665 289.642857 842.049689 290.645963 841.416149 291.229814 839.826087 294.034161 839.031056 296.937888 838.509317 297.354037 838.984472 298.052795 839.031056 300.897516 839.248447 303.869565 839.984472 304.341615 840.198758 305.18323 839.881988 305.291925 839.826087 306.186335 840.621118 307.409938 841.416149 307.621118 841.627329 308.568323 843.689441 309.251553 844.748447 310.841615 844.636646 312.534161 844.748447 313.757764 845.804348 313.378882 846.863354 313.757764 846.543478 312.276398 846.916149 310.524845 846.170807 308.360248 847.39441 306.714286 849.242236 303.916149 849.291925 302.121118 849.819876 301.593168 849.13354 301.329193 849.555901 298.524845 849.714286 296.571429 849.397516 294.453416 850.189441 292.919255 850.565217 289.108696 851.040373 287.15528 851.571429 287.046584 851.307453 285.779503"></polygon>
                <path d="M301.439263,140.023927 L302.184089,137.399453 L298.403348,136.199997 C298.403348,136.199997 298.984036,134.144096 300.011884,135.172047 C301.036626,136.199997 301.036626,134.144096 301.036626,134.144096 C301.036626,134.144096 300.167148,133.265214 300.167148,131.802481 C300.167148,130.342854 298.701455,131.802481 298.701455,131.802481 L297.381711,133.119252 L296.350758,132.094407 L294.003166,133.265214 L293.419373,134.737264 L291.525152,135.172047 L290.500409,134.144096 L291.962996,132.681363 L290.211618,131.802481 L286.988337,131.802481 L286.988337,130.044717 L286.112648,129.172047 L283.76195,129.460867 C283.76195,129.460867 283.76195,129.460867 282.007467,129.460867 L281.125567,128.58509 L279.079187,128.58509 L276.445909,129.460867 L274.980217,127.995028 L272.936942,127.995028 L270.300559,127.119252 L267.66107,127.119252 C267.66107,127.119252 265.313478,124.699997 262.906886,124.699997 C260.484767,124.699997 260.705242,126.892544 260.705242,126.892544 L262.605674,128.510556 L262.720569,129.45155 L264.493684,129.675152 L266.064956,132.119252 L266.949961,133.234158 L267.338121,136.29627 L268.620602,138.63478 L268.105126,139.467078 L268.452917,140.743475 L268.235547,141.047823 L269.1485,141.184469 L269.455923,142.50745 L270.309875,142.774531 L270.999247,141.87391 L272.91831,142.609935 L273.812631,142.45155 L274.868427,141.547823 L276.088802,141.87391 L279.16303,144.470183 L280.569052,144.827596 L282.8109,144.053886 L286.080206,143.316301 L287.041952,143.535401 L291.173331,143.425457 L291.578384,143.811798 L291.702679,142.571731 L294.455357,141.516591 L298.588883,143.839337 L301.336418,143.945819 L303.985914,145.332113 L304.406473,142.672045 L303.378903,141.229874 L301.439263,140.023927 Z" id="GO"></path>
            </g>
            <g id="route" transform="translate(9.000000, 11.000000)" stroke="#00D4FA" stroke-width="0.16">
                <polyline opacity="0.294553895" points="15.3459519 41.2101484 10.8552431 38.0860311 1.45706206 31.5478605 13.5880898 31.5478605 64.8849487 31.5478605"></polyline>
                <polyline points="10.8552431 38.0860311 1.45706206 31.5478605 13.5880898 31.5478605"></polyline>
                <polyline opacity="0.411062047" points="64.8849487 31.5478605 81.6622025 31.5478605 82.5499341 45.6186588 103.622765 54.8212335 131.499517 54.8212335 174.691381 48.562882 165.503344 27.8413921"></polyline>
                <circle id="posan" fill="#001519" cx="81.5" cy="31.5" r="1.5"></circle>
                <circle id="amsterdam" fill="#001519" cx="1.5" cy="31.5" r="1.5"></circle>
                <circle id="cologne" fill="#001519" cx="15.5" cy="41.5" r="1.5"></circle>
                <circle id="wroclaw" fill="#001519" cx="82.5" cy="45.5" r="1.5"></circle>
                <circle id="krakov" fill="#001519" cx="103.5" cy="54.5" r="1.5"></circle>
                <circle id="kiev" fill="#001519" cx="174.5" cy="48.5" r="1.5"></circle>
                <circle id="minsk" fill="#001519" cx="150.5" cy="15.5" r="1.5"></circle>
                <circle id="wizebsk" fill="#001519" cx="165.5" cy="1.5" r="1.5"></circle>
                <circle id="grodno" fill="#001519" cx="126.5" cy="18.5" r="1.5"></circle>
                <circle id="brest" fill="#001519" cx="127.5" cy="33.5" r="1.5"></circle>
                <circle id="vilnius" fill="#001519" cx="134.5" cy="6.5" r="1.5"></circle>
                <circle id="kaunas" fill="#001519" cx="126.5" cy="5.5" r="1.5"></circle>
                <circle id="bialystok" fill="#001519" cx="120.5" cy="21.5" r="1.5"></circle>
                <circle id="lodz" fill="#001519" cx="98.5" cy="37.5" r="1.5"></circle>
                <circle id="gdansk" fill="#001519" cx="91.5" cy="12.5" r="1.5"></circle>
                <circle id="lviv" fill="#001519" cx="131.5" cy="54.5" r="1.5"></circle>
            </g>
            <path d="M5.19925848,10.2760057 L8.65916249,5.81750287 L11.6237361,11.1687646 L5.19925848,10.2760057 Z M19.5590773,4.0626785 L26.8297443,14.3275543 L19.1134916,14.3275543 L19.5590773,4.0626785 Z" id="yolo" stroke="#979797"></path>
        </g>
    </g>
</svg>