<?xml version="1.0" encoding="UTF-8"?>
<svg width="1023px" height="451px" viewBox="0 0 1023 451" version="1.1" xmlns="http://www.w3.org/2000/svg" xmlns:xlink="http://www.w3.org/1999/xlink">
    <!-- Generator: Sketch 43.2 (39069) - http://www.bohemiancoding.com/sketch -->
    <title>Group</title>
    <desc>Created with Sketch.</desc>
    <defs></defs>
    <g id="Page-1" stroke="none" stroke-width="1" fill="none" fill-rule="evenodd" stroke-linejoin="round">
        <g id="Artboard" transform="translate(-159.000000, -42.000000)" stroke-width="2" stroke="#FFFFFF">
            <g id="Group" transform="translate(160.000000, 43.000000)">
                <polygon id="AL" points="118.807722 118 116 122.351865 116.701931 125.019138 116.701931 125.019138 118.105792 126.422965 117.403861 129.090238 117.263475 135.126696 118.246178 139.338179 122.457761 142.286217 122.738533 144.251576 124.142394 144.813107 127.090502 140.601624 127.230888 137.653586 129.477066 136.390141 129.477066 134.144017 126.248185 131.897893 124.98471 128.247941 125.546255 125.299903 125.546255 125.299903 124.844324 122.0711 123.019305 121.228803 121.194286 118.982679 119.369266 119.684593 118.807722 118"></polygon>
                <polygon id="AM" points="316.988726 152.040093 315.725251 145.863252 312.215598 144.319041 308.705946 141.932534 310.109807 139.124879 305.757838 136.036459 306.740541 133.930717 303.652046 132.386507 301.686641 130 292 131.403828 293.825019 134.492248 293.825019 138.844114 299.721236 140.949855 303.090502 143.617128 304.494363 143.336362 307.021313 145.722869 310.250193 145.722869 310.530965 147.126696 314.461776 152.320858 316.988726 152.040093"></polygon>
                <path d="M304.807722,143.670907 L303.403861,143.951672 L305.088494,147.320858 L309.580849,151.391958 L314.775135,152.655403 L310.844324,147.461241 L310.563552,146.057414 L307.334672,146.057414 L304.807722,143.670907 L304.807722,143.670907 Z M319.407876,130.61531 L313.371274,125.280766 L311.265483,125 L309.721236,126.263445 L314.213591,131.036459 L313.371274,132.019138 L309.440463,131.457607 L303.544247,128.930717 L302,130.334545 L303.965405,132.721052 L307.0539,134.265262 L306.071197,136.371003 L310.423166,139.459424 L309.019305,142.267079 L312.528958,144.653586 L316.03861,146.197796 L317.302085,152.374638 L324.742548,145.776648 L327.409884,145.074734 L330.07722,147.742007 L328.392587,152.093872 L333.727259,156.866886 L335.552278,156.445738 L334.429189,151.953489 L336.815753,149.847748 L337.377297,146.759327 L337.236911,139.74019 L343.133127,139.038276 L340.325405,136.651769 L336.815753,136.371003 L331.902239,130.053779 L327.129112,125.561531 L327.129112,125.561531 L323.479073,129.0711 L322.777143,131.176841 L319.407876,130.61531 L319.407876,130.61531 Z" id="AZ"></path>
                <polygon id="BG" points="181.081236 108.632631 176.869653 107.649952 171.254208 104.561531 163.111815 106.52689 159.882934 108.773014 149.353977 108.351865 143.738533 106.948038 141.071197 107.649952 138.544247 104 137 105.965359 137.982703 109.194162 141.913514 112.844114 139.52695 115.511386 138.544247 118.319041 139.386564 119.301721 138.403861 120.565165 142.334672 123.372821 143.457761 129.128514 148.792432 129.409279 154.26749 127.022772 159.742548 129.97081 166.200309 129.128514 165.779151 124.917031 172.798456 122.109376 179.11583 123.232438 176.167722 118.319041 177.992741 112.1422"></polygon>
                <polygon id="BY" points="160.796448 2 154.338687 5.22880343 150.688649 6.63263101 151.952124 10.2825827 147.03861 13.0902379 146.33668 17.8632516 139.598147 20.9516723 133.140386 20.9516723 133.982703 24.7420068 136.369266 27.9708102 136.790425 31.3399964 133 33.0245895 135.667336 37.0956894 136.369266 40.8860239 139.457761 40.4648756 142.827027 38.2187515 148.021313 37.937986 155.040618 38.6398998 162.902239 40.7456411 168.236911 40.8860239 171.044633 42.1494687 173.290811 40.6052584 175.396602 42.7109998 181.433205 42.2898515 184.240927 43.132148 183.960154 38.7802825 185.644788 36.8149239 191.400618 36.3937757 188.592896 30.9188481 186.487104 28.1111929 187.610193 27.2688964 193.085251 27.5496619 195.331429 25.7246861 192.944865 23.4785619 188.171737 21.9343516 188.312124 20.3901413 185.223629 18.8459309 180.029344 13.3710034 180.87166 11.1248793 179.467799 7.05377928 172.729266 5.08842067 169.500386 6.07109998 168.096525 4.10574137"></polygon>
                <polygon id="CZ" points="76.442471 44.9826793 74.4770656 44 72.9328185 45.6845931 68.1596911 47.3691862 65.7731274 49.4749276 61 51.2999034 62.403861 53.9671758 63.3865637 57.6171275 67.0366023 59.7228689 71.1077992 63.3728206 76.442471 66.1804757 80.0925097 62.6709068 82.4790734 61.968993 88.0945174 64.6362654 91.3233977 64.2151171 94.552278 65.8997102 95.3945946 63.9343516 98.4830888 64.0747344 100.729266 63.2324378 100.869653 62.3901413 102.133127 61.968993 102.4139 60.0036344 103.958147 59.5824861 104.800463 58.0382758 106.906255 58.0382758 103.256216 53.6864103 98.2023166 53.265262 97.2196139 50.4576069 92.4464865 49.6153103 91.6041699 51.7210517 87.8137452 50.0364586 87.9541313 47.6499517 82.7598456 46.8076552 79.3905792 44.1403828"></polygon>
                <polygon id="DE" points="68.1178378 19.5806689 60.3966023 16.2114827 56.8869498 18.5979896 50.2888031 20.1422 50.148417 17.194162 43.2694981 15.2288034 42.9887259 12 38.7771429 13.2634448 33.7232432 12.1403828 34.2847876 16.9133965 35.9694208 20.0018172 31.7578378 24.2132999 30.3539768 22.3883241 24.8789189 22.8094723 23.615444 24.6344482 25.019305 27.4421034 23.615444 35.3035378 22.0711969 38.5323412 18 38.5323412 19.5442471 47.5168377 18.9827027 53.4129135 20.3865637 55.3782722 20.1057915 59.1686066 23.4750579 61.4147307 33.442471 63.0993238 30.2135907 68.9953997 29.5116602 75.3126238 35.4078764 75.3126238 36.8117375 73.3472652 44.3925869 76.0145376 46.4983784 75.5933893 50.148417 77.9798962 50.9907336 75.733772 57.167722 76.1549203 61.9408494 74.4703272 65.3101158 74.7510927 67.6966795 76.5760686 68.2582239 75.0318582 66.8543629 69.4165479 69.2409266 68.2934859 71.3467181 64.2223859 67.2755212 60.5724342 63.6254826 58.4666928 62.6427799 54.8167411 61.2389189 52.1494687 66.0120463 50.3244929 68.39861 48.2187515 73.1717375 46.5341584 74.7159846 44.8495653 76.68139 45.8322446 79.6294981 44.9899481 76.4006178 39.5150205 76.5410039 36.5669826 74.5755985 31.9343516 71.7678764 28.8459309 73.4525097 26.5998068 71.4871042 22.2479413"></polygon>
                <polygon id="GE" points="290.357992 117.019138 279.829035 112.948038 269.019305 111.54421 262.701931 110 262 110.982679 265.088494 113.649952 269.300077 114.632631 274.073205 117.861434 277.021313 123.75751 276.600154 127.547845 284.181004 127.126696 292.042625 131.338179 301.729266 129.934352 303.273514 128.530524 309.16973 131.057414 313.100541 131.618945 313.942857 130.636265 309.450502 125.863252 310.994749 124.599807 306.081236 122.634448 303.133127 119.124879 295.973436 117.299903 291.902239 118.703731"></polygon>
                <polygon id="HU" points="119.217606 66.561531 117.813745 68.6672724 114.725251 69.6499517 113.882934 69.0884207 110.654054 70.4922482 107.986718 70.7730138 107.56556 72.4576069 101.80973 73.5806689 99.1423938 72.5979896 95.4923552 70.3518655 95.211583 74.0018172 91.2807722 74.0018172 92.8250193 75.826793 91 81.4421034 92.1230888 81.5824861 93.807722 84.530524 96.0538996 85.6535861 101.669344 89.3035378 107.56556 90.9881309 110.09251 89.7246861 115.286795 87.4785619 119.779151 87.7593275 125.113822 86.2151171 128.763861 80.1786585 131.431197 74.2825827 135.502394 72.4576069 134.660077 70.2114827 130.58888 67.8249759 129.185019 68.6672724 121.463784 66"></polygon>
                <polygon id="IN" points="591.28556 229.449372 579.352741 223.272531 570.648803 217.65722 566.156448 207.830427 571.912278 209.093872 571.069961 204.461241 566.858378 199.82861 565.73529 192.528707 555.065946 182 549.87166 189.580669 541.869653 190.984496 529.936834 188.738372 527.269498 192.66909 531.761853 200.530524 535.83305 206.566983 542.852355 210.918848 537.658069 216.11301 539.061931 222.430234 533.586873 231.274348 530.638764 240.399227 524.32139 249.804872 515.33668 249.102958 508.457761 258.36822 514.073205 262.43932 515.898224 269.318075 520.811737 273.810324 523.338687 281.531375 506.492355 281.531375 502 287.427451 511.967413 295.00812 514.634749 298.517689 511.265483 301.746492 522.496371 312.555965 528.111815 313.679027 538.781158 308.344482 541.167722 316.627065 542.290811 327.57692 545.800463 338.947923 550.854363 356.215002 558.996757 368.568685 560.821776 374.043613 563.629498 385.274233 568.402625 393.837582 571.49112 398.049064 575.000772 407.033561 579.352741 419.527626 587.073977 427.950592 590.162471 425.423702 592.549035 419.246861 599.56834 416.719971 597.04139 413.771933 600.129884 407.033561 604.201081 406.612412 603.218378 391.451075 605.885714 382.887726 604.903012 375.44744 602.235676 363.936054 603.920309 357.057299 607.429961 356.636151 614.168494 353.407347 617.818533 351.161223 617.397375 347.090123 624.41668 341.194047 629.610965 335.578737 637.051429 325.05003 647.44 319.153954 650.809266 313.81941 649.545792 307.081037 658.811274 305.256061 664.00556 305.396444 664.70749 302.027258 662.461313 294.727355 658.811274 287.988982 659.372819 282.654437 654.178533 280.26793 655.301622 277.039127 659.653591 273.669941 653.19583 268.896927 654.880463 262.860468 661.618996 266.650803 665.409421 267.212334 667.094054 273.389175 674.674903 274.65262 681.694208 274.512237 686.467336 276.056448 684.221158 283.496734 680.851892 284.058265 679.307645 289.112044 684.221158 293.744675 684.501931 288.129365 686.607722 287.988982 692.925097 302.167641 696.294363 300.061899 695.030888 296.271565 696.294363 293.323527 695.030888 284.058265 701.488649 286.023624 703.59444 278.72372 703.173282 274.371855 706.12139 266.791186 704.857915 261.737406 713.421467 255.560565 719.177297 257.104775 717.352278 251.629848 719.598456 249.945255 718.334981 246.576069 709.771429 245.312624 711.456062 241.522289 706.542548 236.047362 702.050193 239.697313 695.171274 237.591572 687.730811 243.206882 682.255753 249.945255 676.359537 251.068317 680.149961 253.875972 680.711506 259.3509 674.534517 259.631665 667.936371 259.070134 663.444015 260.473962 655.72278 256.964393 655.301622 255.2798 653.19583 248.120279 648.984247 250.085638 649.124633 253.875972 651.230425 259.631665 651.090039 263.141234 644.632278 263.281617 635.086023 261.175875 629.049421 260.333579 623.714749 255.841331 613.045405 254.577886 602.235676 249.664489 594.093282 245.312624 586.091274 241.803055 587.354749 233.520472 591.28556 229.449372"></polygon>
                <path d="M981.938842,194.075586 L975.621467,192.25061 L974.07722,196.040944 L969.444479,194.917882 L967.619459,200.252427 L969.304093,204.46391 L975.200309,206.990799 L975.059923,201.796637 L978.008031,199.690896 L982.36,202.638934 L984.185019,197.164006 L981.938842,194.075586 L981.938842,194.075586 Z M1016.19305,166.981713 L1011.13915,157.576069 L1012.96417,148.591572 L1009.03336,141.291669 L997.662085,129.078369 L990.923552,130.762962 L991.204324,136.237889 L998.364015,146.205065 L999.767876,157.295303 L997.381313,160.804872 L991.063938,169.929751 L984.044633,165.577886 L984.044633,181.721903 L975.200309,179.896927 L961.723243,182.564199 L959.055907,188.741041 L953.580849,193.373672 L952.036602,198.988982 L946,201.796637 L951.615444,207.833096 L957.371274,210.500368 L958.634749,218.502185 L963.548263,222.011754 L967.057915,218.22142 L965.934826,203.060082 L955.686641,196.462092 L964.250193,196.32171 L971.269498,192.110227 L983.342703,190.144868 L986.711969,196.883241 L993.16973,200.252427 L999.346718,190.004486 L1012.12185,189.442955 L1019.7027,185.231472 L1020.54502,178.773865 L1017.03537,174.281617 L1016.19305,166.981713 L1016.19305,166.981713 Z M999.62749,104.932534 L992.187027,101.984496 L977.586873,93 L980.254208,99.7383724 L986.290811,111.670907 L978.990734,112.232438 L979.83305,118.830427 L986.290811,127.393776 L994.292819,127.393776 L992.046641,117.847748 L1007.20834,123.743824 L1007.76988,115.180476 L1016.75459,112.793969 L1008.33143,103.107559 L1005.94486,106.75751 L999.62749,104.932534 Z" id="JP"></path>
                <polygon id="KH" points="816.606178 372.228803 809.3061 369 806.498378 375.036459 799.619459 371.667272 792.178996 370.263445 782.211583 372.088421 778 379.388324 780.948108 390.197796 785.721236 399.463058 789.371274 404.095689 795.969421 405.359134 802.567568 401.849565 810.709961 401.147652 806.779151 395.813107 819.273514 388.934352 819.133127 378.124879 816.606178 372.228803"></polygon>
                <polygon id="LT" points="151.079228 6.45760686 144.059923 2.38650688 140.55027 1.82497585 139.286795 0 133.109807 0.842296547 122.019305 0.280765516 115 2.94803791 117.386564 9.9671758 124.405869 11.5113861 127.494363 12.774831 127.213591 15.1613378 128.055907 17.2670792 131.56556 18.1093758 133.530965 20.7766482 139.988726 20.7766482 146.727259 17.6882275 147.429189 12.9152137 152.342703 10.1075586 151.079228 6.45760686"></polygon>
                <polygon id="MK" points="141.986718 123.807655 138.055907 121 134.686641 121.140383 132.300077 121.701914 130.75583 121.982679 126.684633 123.386507 126.544247 125.0711 125.561544 125.0711 125.561544 125.0711 125 128.019138 126.263475 131.66909 129.492355 133.915214 134.125097 133.072917 136.792432 131.247941 140.723243 131.388324 141.705946 129.844114 143.109807 129.563348"></polygon>
                <polygon id="NL" points="22.0406178 38.1786585 23.5848649 34.9498551 24.9887259 27.0884207 23.5848649 24.2807655 18.1098069 24 8.98471042 27.6499517 3.50965251 40.1440171 0 42.530524 5.05389961 43.2324378 11.230888 41.407462 15.5828571 45.1977964 19.513668 47.163155 17.9694208 38.1786585"></polygon>
                <polygon id="PL" points="100.761853 16.5095689 100.059923 14.5442103 93.32139 13 85.3193822 15.9480379 75.3519691 19.8787551 71 22.265262 72.9654054 26.6171275 71.2807722 28.8632516 74.0884942 31.9516723 76.0538996 36.5843033 75.9135135 39.5323412 79.1423938 45.0072688 82.5116602 47.6745412 87.7059459 48.5168377 87.5655598 50.9033446 91.3559846 52.5879377 92.1983012 50.4821963 96.9714286 51.3244929 97.9541313 54.132148 103.008031 54.5532963 106.658069 58.9051618 107.079228 59.4666928 109.746564 58.203248 113.536988 61.2916687 117.467799 59.4666928 120.837066 60.3089894 125.610193 59.1859273 132.489112 62.4147307 134.033359 62.9762618 131.787181 59.0455446 137.121853 51.8860239 140.350734 50.9033446 140.771892 48.376455 136.419923 40.9361688 135.717992 37.1458343 133.050656 33.0747344 136.841081 31.3901413 136.419923 28.0209551 134.033359 24.7921517 133.191042 21.0018172 131.225637 18.3345448 127.715985 17.4922482 115.502394 17.632631 107.219614 16.6499517"></polygon>
                <polygon id="RO" points="161.396602 70 158.448494 70 157.044633 72.1057414 151.990734 72.9480379 149.744556 74.2114827 146.37529 72.1057414 141.882934 72.1057414 137.390579 71.1230621 134.723243 72.9480379 130.652046 74.7730138 127.98471 80.6690896 124.334672 86.7055482 119 88.2497585 123.071197 91.7593275 124.194286 94.4265999 128.686641 96.5323412 129.669344 100.04191 134.021313 102.5688 135.986718 100.743824 137.952124 101.726503 136.407876 103.270714 137.811737 104.674541 140.338687 108.324493 143.006023 107.622579 148.621467 109.026407 159.150425 109.447555 162.379305 107.201431 170.521699 105.236072 176.137143 108.324493 180.348726 109.307172 180.91027 98.9188481 183.156448 99.6207619 186.385328 97.795786 185.823784 95.5496619 182.454517 94.0054516 179.366023 95.4092792 175.996757 93.8650688 174.171737 89.9343516 174.45251 86.1440171 173.610193 82.3536827 168.837066 77.1595206 166.16973 73.5095689 163.64278 70.8422965"></polygon>
                <polygon id="RS" points="129.373282 96.5633482 124.880927 94.4576069 123.757838 91.7903345 119.686641 88.2807655 115.194286 88 110 90.2461241 110 90.2461241 112.105792 93.6153103 114.492355 96.1422 112.105792 99.3710034 112.105792 99.3710034 114.632741 99.3710034 113.22888 103.161338 117.019305 106.390141 116.317375 110.461241 114.632741 110.88239 116.738533 112.4266 117.861622 113.549662 120.388571 114.532341 123.196293 116.216934 122.634749 117.059231 124.319382 116.357317 125.021313 113.549662 126.284788 112.988131 127.407876 114.251576 128.811737 114.813107 129.934826 116.216934 131.057915 116.638083 132.602162 118.182293 133.725251 118.182293 133.02332 120.288034 132.32139 121.270714 132.602162 121.972627 134.988726 121.411096 138.357992 121.270714 139.340695 120.007269 138.498378 119.024589 139.481081 116.216934 141.867645 113.549662 137.936834 109.89971 136.954131 106.670907 138.498378 104.705548 137.094517 103.301721 138.638764 101.75751 136.673359 100.774831 134.707954 102.599807 130.355985 100.072917 129.373282 96.5633482"></polygon>
                <polygon id="SK" points="125.727259 58.9826793 120.954131 60.1057414 117.584865 59.2634448 113.654054 61.0884207 109.863629 58 107.196293 59.2634448 106.775135 58.7019138 104.669344 58.7019138 103.827027 60.2461241 102.28278 60.6672724 102.002008 62.632631 100.738533 63.0537793 100.598147 63.8960758 98.3519691 64.7383724 95.2634749 64.5979896 94.4211583 66.5633482 94 67.6864103 94.9827027 70.6344482 98.6327413 72.8805723 101.300077 73.8632516 107.055907 72.7401896 107.477066 71.0555965 110.144402 70.774831 113.373282 69.3710034 114.215598 69.9325344 117.304093 68.9498551 118.707954 66.8441137 120.954131 66.2825827 128.675367 68.9498551 130.079228 68.1075586 131.061931 64.5979896 132.606178 62.2114827"></polygon>
                <polygon id="TH" points="800.121853 371.889658 802.227645 367.818558 801.525714 360.237889 794.225637 352.516838 792.400618 343.672724 785.521699 336.372821 779.485097 335.81129 778.362008 338.89971 773.869653 339.180476 771.342703 337.495883 763.902239 342.830427 762.498378 334.82861 763.059923 325.422965 757.725251 325.001817 756.461776 319.667272 752.811737 317 748.600154 318.965359 744.669344 322.896076 739.194286 323.317224 737.088494 333.003634 734 334.547845 738.913514 342.409279 744.669344 348.866886 748.740541 354.762962 746.775135 362.624396 744.388571 364.168607 746.775135 368.660855 752.671351 375.820376 754.075212 380.733772 754.355985 384.945255 758.286795 393.087455 754.636757 401.370037 751.548263 410.635299 749.723243 419.198648 749.302085 424.673575 750.986718 429.727355 751.969421 424.39281 756.040618 428.744675 760.532973 433.658072 762.07722 438.15032 765.446486 441.519506 766.709961 439.975296 773.308108 443.906013 774.150425 448.538644 779.34471 447.415582 781.731274 443.76563 777.379305 439.132999 772.606178 438.009937 767.973436 432.956158 766.008031 425.235106 762.357992 417.092906 757.163707 416.812141 756.181004 410.354534 758.146409 402.493099 761.234903 389.437503 760.954131 379.61071 767.83305 379.470327 767.411892 386.489465 774.010039 386.349082 781.450502 390.420182 778.502394 379.61071 782.713977 372.310807 792.68139 370.485831 800.121853 371.889658"></polygon>
                <polygon id="TW" points="911.546255 295.461241 913.230888 281.1422 913.371274 275.667272 909.300077 273 904.667336 279.738372 902 288.582486 904.105792 295.180476 909.721236 302.761145 911.546255 295.461241"></polygon>
                <polygon id="UA" points="204.264247 34 197.525714 34.7019138 195.419923 34.2807655 194.016062 36.2461241 191.489112 35.9653586 191.489112 35.9653586 185.733282 36.3865069 184.048649 38.3518655 184.329421 42.703731 181.521699 41.8614344 175.485097 42.2825827 173.379305 40.1768413 171.133127 41.7210517 168.325405 40.4576069 162.990734 40.3172241 155.129112 38.2114827 148.109807 37.5095689 142.915521 37.7903345 139.546255 40.0364586 136.457761 40.4576069 140.80973 47.897893 140.388571 50.4247827 137.159691 51.407462 131.825019 58.5669826 134.071197 62.4976998 132.52695 61.9361688 130.982703 64.3226757 130 67.8322446 134.071197 70.2187515 134.913514 72.4648756 137.580849 70.6398998 142.073205 71.6225791 146.56556 71.6225791 149.934826 73.7283205 152.181004 72.4648756 157.234903 71.6225791 158.638764 69.5168377 161.586873 69.5168377 163.13112 68.2533929 167.623475 67.4110964 173.098533 70.0783688 175.906255 70.499517 179.415907 72.7456411 179.415907 75.6936791 182.083243 77.2378894 183.62749 80.8878411 186.435212 82.9935825 186.15444 84.39741 187.558301 85.2397066 185.873668 85.9416204 181.662085 85.6608549 180.819768 84.39741 179.415907 85.0993238 180.117838 86.6435342 178.573591 89.4511893 177.87166 92.3992272 176.187027 93.3819065 179.556293 94.9261169 182.644788 93.5222893 186.014054 95.0664996 190.646795 88.6088928 192.471815 83.835879 198.789189 82.712817 199.771892 86.0820031 211.00278 88.1877445 213.389344 90.1531031 207.071969 93.101141 206.089266 94.7857341 214.23166 97.3126238 213.389344 101.383724 217.600927 103.2087 226.445251 98.1549203 233.885714 96.61071 234.728031 93.5222893 227.56834 94.0838203 223.777915 91.978079 222.374054 86.5031514 227.849112 83.274348 234.306873 82.8531997 238.518456 80.0455446 243.993514 79.3436308 243.431969 75.4129135 246.520463 73.0264067 253.11861 72.3244929 253.539768 69.376455 251.012819 64.6034412 252.837838 60.1111929 252.276293 57.4439206 241.60695 54.6362654 237.535753 54.7766482 232.481853 50.7055482 227.56834 52.1093758 218.302857 49.0209551 218.022085 47.336362 214.933591 43.5460275 209.318147 43.265262 208.335444 40.5979896 209.598919 38.7730138 204.264247 34"></polygon>
                <polygon id="VN" points="812.748571 306.003634 804.465792 303.75751 800.254208 300.107559 800.534981 294.913397 793.234903 293.369186 789.02332 290 783.26749 294.773014 775.827027 295.755693 769.790425 295.755693 766 297.861434 771.615444 305.020955 776.388571 313.022772 785.934826 313.163155 790.146409 320.884207 785.513668 323.270714 783.688649 326.499517 793.936834 331.834062 801.938842 342.362769 807.975444 350.224203 814.713977 356.401044 817.521699 362.718269 817.240927 371.702765 819.767876 377.598841 819.908263 388.408313 807.4139 395.287068 811.34471 400.621613 803.202317 401.323527 796.60417 404.833096 802.921544 410.027258 801.096525 416.063716 804.325405 421.679027 813.590888 413.396444 819.346718 405.956158 827.91027 400.200465 833.946873 394.304389 833.385328 378.58152 827.769884 362.156738 822.014054 354.997217 814.152432 349.381907 805.167722 337.730138 797.727259 328.324493 798.429189 322.147652 803.623475 313.724686 812.748571 306.003634"></polygon>
            </g>
        </g>
    </g>
</svg>