<svg class="u-fluid" width="100%" viewBox="0 0 1039 458" version="1.1" xmlns="http://www.w3.org/2000/svg" xmlns:xlink="http://www.w3.org/1999/xlink">
    <g id="worldmap" stroke="none" stroke-width="1" fill="none" fill-rule="evenodd">
        <polygon vector-effect="non-scaling-stroke" id="AL" stroke="#FFFFFF" stroke-linejoin="round" points="120.669547 119.839644 117.817826 124.259356 118.530756 126.968211 118.530756 126.968211 119.956617 128.393925 119.243686 131.102781 119.1011 137.233349 120.099203 141.510489 124.376785 144.504488 124.661957 146.500487 126.087818 147.070772 129.082126 142.793632 129.224712 139.799633 131.506089 138.516491 131.506089 136.235349 128.226609 133.954208 126.943335 130.247352 127.513679 127.253354 127.513679 127.253354 126.800749 123.974213 124.94713 123.118785 123.093511 120.837643 121.239892 121.5505 120.669547 119.839644"></polygon>
        <polygon vector-effect="non-scaling-stroke" id="AM" stroke="#FFFFFF" stroke-linejoin="round" points="321.956228 154.410428 320.672953 148.137289 317.108301 146.569004 313.543649 144.145291 314.96951 141.293864 310.549342 138.157294 311.547444 136.018724 308.41055 134.450439 306.414345 132.026726 296.575906 133.45244 298.429525 136.589009 298.429525 141.008721 304.41814 143.147292 307.840206 145.856147 309.266067 145.571005 311.832616 147.994718 315.112096 147.994718 315.397268 149.420431 319.389679 154.695571 321.956228 154.410428"></polygon>
        <path vector-effect="non-scaling-stroke" d="M309.584337,145.910765 L308.158476,146.195908 L309.869509,149.61762 L314.432263,153.752189 L319.707948,155.035332 L315.715538,149.760192 L315.430366,148.334478 L312.150886,148.334478 L309.584337,145.910765 L309.584337,145.910765 Z M324.413289,132.651629 L318.282087,127.233918 L316.143296,126.948775 L314.574849,128.231917 L319.137604,133.079343 L318.282087,134.077343 L314.289677,133.507057 L308.301062,130.940773 L306.732615,132.366486 L308.72882,134.790199 L311.865714,136.358484 L310.867611,138.497055 L315.28778,141.633624 L313.861919,144.485051 L317.426571,146.908764 L320.991223,148.477049 L322.274498,154.750189 L329.83156,148.049335 L332.540695,147.336479 L335.249831,150.045334 L333.538798,154.465046 L338.957069,159.312472 L340.810688,158.884758 L339.669999,154.322475 L342.093963,152.183905 L342.664307,149.047335 L342.521721,141.918767 L348.510336,141.20591 L345.658615,138.782197 L342.093963,138.497055 L337.10345,132.081344 L332.255523,127.51906 L332.255523,127.51906 L328.548285,131.083344 L327.835355,133.221915 L324.413289,132.651629 L324.413289,132.651629 Z" id="AZ" stroke="#FFFFFF" stroke-linejoin="round"></path>
        <polygon vector-effect="non-scaling-stroke" id="BG" stroke="#FFFFFF" stroke-linejoin="round" points="183.918943 110.326235 179.641361 109.328236 173.937918 106.191666 165.667925 108.187665 162.388446 110.468807 151.69449 110.041093 145.991047 108.615379 143.281911 109.328236 140.715362 105.621381 139.146915 107.61738 140.145017 110.896521 144.137428 114.603376 141.713464 117.312232 140.715362 120.163659 141.570878 121.161658 140.572776 122.444801 144.565186 125.296228 145.705874 131.141653 151.124145 131.426796 156.685002 129.003083 162.245859 131.997081 168.804819 131.141653 168.377061 126.864512 175.506365 124.013085 181.922738 125.153656 178.928431 120.163659 180.78205 113.890519"></polygon>
        <polygon vector-effect="non-scaling-stroke" id="BY" stroke="#FFFFFF" stroke-linejoin="round" points="163.316275 2.0311804 156.757315 5.31032152 153.050077 6.73603505 154.333352 10.4428902 149.342839 13.2943173 148.629909 18.1417433 141.785777 21.2783131 135.226817 21.2783131 136.082334 25.1277396 138.506297 28.4068807 138.934055 31.8285932 135.084231 33.5394494 137.793367 37.6740187 138.506297 41.5234452 141.643191 41.0957312 145.065257 38.8145895 150.340942 38.5294468 157.470245 39.2423036 165.455066 41.3808739 170.873337 41.5234452 173.725058 42.8065874 176.006436 41.2383025 178.145227 43.3768728 184.276428 42.9491587 187.12815 43.8045869 186.842978 39.3848749 188.554011 37.388876 194.40004 36.9611619 191.548318 31.4008791 189.409527 28.5494521 190.550216 27.694024 196.111073 27.9791667 198.39245 26.1257391 195.968487 23.8445974 191.12056 22.2763125 191.263146 20.7080277 188.126252 19.1397428 182.850567 13.57946 183.706084 11.2983184 182.280223 7.16374911 175.436091 5.16775017 172.156612 6.16574964 170.730751 4.1697507"></polygon>
        <polygon vector-effect="non-scaling-stroke" id="CZ" stroke="#FFFFFF" stroke-linejoin="round" points="77.6403942 45.6839683 75.6441891 44.6859688 74.0757422 46.3968251 69.2278156 48.1076813 66.8038522 50.2462516 61.9559256 52.0996792 63.3817863 54.8085349 64.3798889 58.5153901 68.0871269 60.6539604 72.2221232 64.3608156 77.6403942 67.2122426 81.3476322 63.6479588 83.7715956 62.935102 89.4750387 65.6439577 92.7545185 65.2162437 96.0339983 66.9270999 96.8895148 64.931101 100.026409 65.0736723 102.307786 64.2182442 102.450372 63.3628161 103.733647 62.935102 104.018819 60.9391031 105.587266 60.511389 106.442782 58.9431041 108.581573 58.9431041 104.874335 54.5233922 99.7412364 54.0956781 98.7431338 51.2442511 93.8952071 50.3888229 93.0396907 52.5273932 89.1898665 50.816537 89.3324526 48.392824 84.0567677 47.5373959 80.6347018 44.8285402"></polygon>
        <polygon vector-effect="non-scaling-stroke" id="DE" stroke="#FFFFFF" stroke-linejoin="round" points="69.1853064 19.8859355 61.3430721 16.464223 57.7784201 18.887936 51.0768744 20.4562209 50.9342884 17.4622225 43.9475705 15.4662235 43.6623984 12.1870824 39.384816 13.4702246 34.2517172 12.3296538 34.8220615 17.1770798 36.5330944 20.3136495 32.2555121 24.5907901 30.8296513 22.7373625 25.2687942 23.1650766 23.9855195 25.0185042 25.4113803 27.8699312 23.9855195 35.853927 22.4170727 39.1330681 18.2820764 39.1330681 19.8505233 48.2576347 19.2801789 54.2456316 20.7060397 56.2416305 20.4208676 60.0910571 23.8429335 62.3721987 33.966545 64.0830549 30.6870652 70.0710518 29.9741348 76.4867627 35.9627501 76.4867627 37.3886109 74.4907637 45.0882591 77.1996194 47.2270503 76.7719054 50.9342884 79.1956184 51.7898048 76.9144767 58.0635923 77.3421908 62.911519 75.6313345 66.3335848 75.9164773 68.7575482 77.7699048 69.3278925 76.20162 67.9020317 70.4987658 70.325995 69.358195 72.4647862 65.2236258 68.3297899 61.5167706 64.6225519 59.3782003 63.6244493 55.6713451 62.1985886 52.9624894 67.0465152 51.1090618 69.4704786 48.9704915 74.3184052 47.2596353 75.8868521 45.548779 77.8830572 46.5467785 80.8773648 45.6913504 77.597885 40.1310676 77.7404711 37.1370692 75.744266 32.4322145 72.8925444 29.2956448 74.6035774 27.0145031 72.6073723 22.5947912"></polygon>
        <polygon vector-effect="non-scaling-stroke" id="GE" stroke="#FFFFFF" stroke-linejoin="round" points="294.908166 118.84349 284.214211 114.70892 273.235083 113.283207 266.818709 111.714922 266.105779 112.712922 269.242672 115.421777 273.520255 116.419777 278.368181 119.698918 281.362489 125.686915 280.934731 129.536341 288.634379 129.108627 296.619199 133.385768 306.457639 131.960054 308.026086 130.534341 314.014701 133.100625 318.007111 133.67091 318.862628 132.672911 314.299873 127.825485 315.86832 126.542343 310.877807 124.546344 307.8835 120.98206 300.61161 119.128632 296.476613 120.554346"></polygon>
        <polygon vector-effect="non-scaling-stroke" id="HU" stroke="#FFFFFF" stroke-linejoin="round" points="121.085855 67.5992386 119.659994 69.7378089 116.5231 70.7358084 115.667584 70.165523 112.388104 71.5912365 109.678968 71.8763792 109.25121 73.5872355 103.405181 74.7278063 100.696045 73.7298068 96.9888074 71.4486652 96.7036352 75.1555204 92.711225 75.1555204 94.2796719 77.0089479 92.4260529 82.7118021 93.5667415 82.8543734 95.2777745 85.8483718 97.5591517 86.9889427 103.262595 90.6957978 109.25121 92.4066541 111.81776 91.1235119 117.093444 88.8423703 121.656199 89.127513 127.07447 87.5592281 130.781708 81.4286599 133.490843 75.4406631 137.62584 73.5872355 136.770323 71.3060938 132.635327 68.8823808 131.209466 69.7378089 123.367232 67.0289532"></polygon>
        <polygon vector-effect="non-scaling-stroke" id="IN" stroke="#FFFFFF" stroke-linejoin="round" points="600.551543 233.026534 588.431726 226.753394 579.59139 221.05054 575.028635 211.070545 580.874664 212.353688 580.019148 207.648833 575.741566 202.943978 574.600877 195.530268 563.764335 184.837416 558.48865 192.53627 550.361244 193.961983 538.241427 191.680841 535.532291 195.672839 540.095046 203.656835 544.230042 209.787403 551.359346 214.207115 546.083661 219.482255 547.509522 225.897966 541.948665 234.879961 538.954357 244.147099 532.537984 253.69938 523.412475 252.986523 516.425757 262.396233 522.1292 266.530802 523.982819 273.516798 528.973332 278.079081 531.539881 285.920506 514.429552 285.920506 509.866797 291.908503 519.990409 299.607356 522.699544 303.17164 519.277478 306.450781 530.684365 317.428775 536.387808 318.569346 547.22435 313.151634 549.648313 321.563344 550.789002 332.68391 554.353654 344.232189 559.486753 361.768466 567.756745 374.314745 569.610364 379.875028 572.462086 391.280736 577.310012 399.977588 580.446906 404.254729 584.011558 413.379296 588.431726 426.068146 596.273961 434.622427 599.410855 432.056143 601.834818 425.783003 608.964122 423.216719 606.397572 420.22272 609.534466 413.379296 613.669462 412.951581 612.67136 397.553875 615.380495 388.857023 614.382393 381.300741 611.673257 369.60989 613.38429 362.623894 616.948942 362.19618 623.793074 358.917039 627.500312 356.635897 627.072554 352.501328 634.201858 346.513331 639.477543 340.810477 647.034605 330.117625 657.585975 324.129628 661.00804 318.711917 659.724766 311.868492 669.135447 310.015065 674.411132 310.157636 675.124062 306.735923 672.842685 299.322213 669.135447 292.478788 669.705791 287.061077 664.430106 284.637364 665.570795 281.358223 669.990963 277.93651 663.432004 273.089084 665.143037 266.958516 671.987168 270.807942 675.836993 271.378228 677.548026 277.651367 685.247674 278.93451 692.376978 278.791938 697.224904 280.360223 694.943527 287.916505 691.521461 288.48679 689.953014 293.619359 694.943527 298.324214 695.228699 292.621359 697.36749 292.478788 703.783864 306.878495 707.20593 304.739924 705.922655 300.890498 707.20593 297.8965 705.922655 288.48679 712.481615 290.482789 714.620406 283.069079 714.192648 278.649367 717.186955 270.950514 715.903681 265.817945 724.601431 259.544806 730.447461 261.11309 728.593842 255.552808 730.875219 253.841951 729.591944 250.420239 720.894193 249.137097 722.605226 245.28767 717.614714 239.727387 713.051959 243.434243 706.065241 241.295672 698.508179 246.998526 692.947322 253.841951 686.958707 254.982522 690.808531 257.833949 691.378875 263.394232 685.105088 263.679375 678.403542 263.109089 673.840787 264.534803 665.998553 260.970519 665.570795 259.259663 663.432004 251.988524 659.154421 253.984523 659.297007 257.833949 661.435799 263.679375 661.293213 267.243659 654.734253 267.38623 645.0384 265.24766 638.907198 264.392232 633.488927 259.829948 622.652385 258.546806 611.673257 253.556809 603.403265 249.137097 595.275858 245.572813 596.559133 237.161103 600.551543 233.026534"></polygon>
        <path vector-effect="non-scaling-stroke" d="M997.326718,197.101263 L990.910344,195.247835 L989.341897,199.097262 L984.636557,197.956691 L982.782938,203.374402 L984.493971,207.651543 L990.482586,210.217827 L990.34,204.942687 L993.334308,202.804117 L997.754476,205.798115 L999.608095,200.237833 L997.326718,197.101263 L997.326718,197.101263 Z M1032.11772,169.584992 L1026.98462,160.032711 L1028.83824,150.908144 L1024.84583,143.494434 L1013.29636,131.090726 L1006.45223,132.801583 L1006.7374,138.361865 L1014.00929,148.484431 L1015.43515,159.747568 L1013.01119,163.311852 L1006.59481,172.57899 L999.465509,168.159278 L999.465509,184.554984 L990.482586,182.701556 L976.794322,185.410412 L974.085187,191.683551 L968.52433,196.388406 L966.955883,202.09126 L960.824682,204.942687 L966.528125,211.073255 L972.374154,213.782111 L973.657429,221.908678 L978.647941,225.472962 L982.212593,221.623536 L981.071905,206.225829 L970.663121,199.524976 L979.360872,199.382405 L986.490176,195.105264 L998.752579,193.109265 L1002.17464,199.95269 L1008.7336,203.374402 L1015.00739,192.966694 L1027.98272,192.396408 L1035.68237,188.119268 L1036.53789,181.560985 L1032.97324,176.998702 L1032.11772,169.584992 L1032.11772,169.584992 Z M1015.29256,106.568454 L1007.7355,103.574455 L992.906549,94.4498886 L995.615685,101.293314 L1001.74689,113.411879 L994.33241,113.982164 L995.187927,120.683018 L1001.74689,129.37987 L1009.87429,129.37987 L1007.59292,119.685018 L1022.99221,125.673015 L1023.56256,116.976162 L1032.68807,114.552449 L1024.1329,104.715026 L1021.70894,108.421881 L1015.29256,106.568454 Z" id="JP" stroke="#FFFFFF" stroke-linejoin="round"></path>
        <polygon vector-effect="non-scaling-stroke" id="KH" stroke="#FFFFFF" stroke-linejoin="round" points="829.40314 378.031925 821.988664 374.752784 819.136943 380.883352 812.150225 377.46164 804.593163 376.035926 794.469551 377.889354 790.191969 385.303064 793.186276 396.281058 798.034203 405.690768 801.741441 410.395622 808.442987 411.678764 815.144532 408.114481 823.414525 407.401624 819.422115 401.983912 832.112276 394.997916 831.96969 384.019922 829.40314 378.031925"></polygon>
        <polygon vector-effect="non-scaling-stroke" id="LT" stroke="#FFFFFF" stroke-linejoin="round" points="153.446777 6.55828224 146.317473 2.423713 142.752821 1.85342759 141.469546 0 135.195759 0.855428119 123.931459 0.285142706 116.802155 2.99399842 119.226118 10.1225661 126.355422 11.690851 129.492316 12.9739931 129.207144 15.3977061 130.06266 17.5362764 133.627312 18.3917046 135.623517 21.1005603 142.182477 21.1005603 149.026608 17.9639905 149.739539 13.1165645 154.730052 10.2651374 153.446777 6.55828224"></polygon>
        <polygon vector-effect="non-scaling-stroke" id="MK" stroke="#FFFFFF" stroke-linejoin="round" points="144.211779 125.737841 140.219369 122.886414 136.797303 123.028986 134.37334 123.599271 132.804893 123.884414 128.669897 125.310127 128.527311 127.020983 127.529208 127.020983 127.529208 127.020983 126.958864 130.014982 128.242139 133.721837 131.521618 136.002979 136.226959 135.147551 138.936094 133.294123 142.928505 133.436694 143.926607 131.86841 145.352468 131.583267"></polygon>
        <polygon vector-effect="non-scaling-stroke" id="NL" stroke="#FFFFFF" stroke-linejoin="round" points="22.3860143 38.7738715 23.9544612 35.4947304 25.380322 27.5107346 23.9544612 24.6593075 18.3936041 24.3741648 9.12550902 28.08102 3.56465196 40.7698704 0 43.1935834 5.13309882 43.9064402 11.4068863 42.0530126 15.8270547 45.9024391 19.8194649 47.8984381 18.251018 38.7738715"></polygon>
        <polygon vector-effect="non-scaling-stroke" id="RO" stroke="#FFFFFF" stroke-linejoin="round" points="163.925834 71.091314 160.931526 71.091314 159.505666 73.2298843 154.372567 74.0853124 152.09119 75.3684546 148.669124 73.2298843 144.106369 73.2298843 139.543615 72.2318849 136.834479 74.0853124 132.699483 75.93874 129.990347 81.9267369 126.283109 88.0573051 120.864838 89.6255899 124.999835 93.1898738 126.140523 95.8987295 130.703278 98.0372998 131.70138 101.601584 136.121549 104.167868 138.117754 102.31444 140.113959 103.31244 138.545512 104.880725 139.971373 106.306438 142.537922 110.013293 145.247058 109.300437 150.950501 110.72615 161.644457 111.153864 164.923937 108.872723 173.193929 106.876724 178.897372 110.013293 183.174955 111.011293 183.745299 100.461013 186.026676 101.17387 189.306156 99.3204419 188.735812 97.0393003 185.313746 95.4710154 182.176852 96.8967289 178.754786 95.3284441 176.901167 91.3364462 177.186339 87.4870196 176.330823 83.6375931 171.482896 78.362453 168.773761 74.6555979 166.207211 71.9467421"></polygon>
        <polygon vector-effect="non-scaling-stroke" id="RS" stroke="#FFFFFF" stroke-linejoin="round" points="131.400679 98.0687902 126.837925 95.9302199 125.697236 93.2213642 121.56224 89.6570803 116.999485 89.3719376 111.7238 91.6530793 111.7238 91.6530793 113.862591 95.0747918 116.286555 97.6410761 113.862591 100.920217 113.862591 100.920217 116.429141 100.920217 115.00328 104.769644 118.853104 108.048785 118.140174 112.183354 116.429141 112.611068 118.567932 114.179353 119.708621 115.319924 122.27517 116.317923 125.126892 118.02878 124.556547 118.884208 126.26758 118.171351 126.980511 115.319924 128.263785 114.749638 129.404474 116.032781 130.830335 116.603066 131.971023 118.02878 133.111712 118.456494 134.680159 120.024779 135.820847 120.024779 135.107917 122.163349 134.394987 123.161348 134.680159 123.874205 137.104122 123.30392 140.526188 123.161348 141.524291 121.878206 140.668774 120.880207 141.666877 118.02878 144.09084 115.319924 140.09843 111.613069 139.100327 108.333928 140.668774 106.337929 139.242913 104.912215 140.81136 103.34393 138.815155 102.345931 136.81895 104.199358 132.398782 101.633074 131.400679 98.0687902"></polygon>
        <polygon vector-effect="non-scaling-stroke" id="SK" stroke="#FFFFFF" stroke-linejoin="round" points="127.697519 59.9022311 122.849593 61.0428019 119.427527 60.1873738 115.435117 62.0408014 111.585292 58.9042316 108.876157 60.1873738 108.448399 59.6170884 106.309608 59.6170884 105.454091 61.1853733 103.885644 61.6130873 103.600472 63.6090863 102.317197 64.0368003 102.174611 64.8922285 99.8932341 65.7476566 96.7563403 65.6050852 95.9008239 67.6010842 95.4730656 68.741655 96.4711682 71.7356534 100.178406 74.0167951 102.887542 75.0147945 108.733571 73.8742237 109.161329 72.1633675 111.870465 71.8782248 115.149944 70.4525112 116.005461 71.0227966 119.142355 70.0247972 120.568215 67.8862269 122.849593 67.3159415 130.691827 70.0247972 132.117688 69.1693691 133.11579 65.6050852 134.684237 63.1813722"></polygon>
        <polygon vector-effect="non-scaling-stroke" id="TH" stroke="#FFFFFF" stroke-linejoin="round" points="812.660492 377.687493 814.799283 373.552923 814.086352 365.85407 806.671876 358.012646 804.818257 349.030651 797.831539 341.61694 791.700338 341.046655 790.559649 344.183225 785.996895 344.468367 783.430345 342.757511 775.873283 348.175223 774.447423 340.048655 775.017767 330.496375 769.599496 330.068661 768.316221 324.650949 764.608983 321.942094 760.331401 323.938092 756.338991 327.93009 750.778133 328.357804 748.639342 338.195228 745.502449 339.763513 750.492961 347.747508 756.338991 354.305791 760.473987 360.293788 758.477782 368.277783 756.053818 369.846068 758.477782 374.408351 764.466397 381.67949 765.892258 386.669488 766.17743 390.946628 770.16984 399.215767 766.462602 407.627477 763.325708 417.037186 761.472089 425.734039 761.044331 431.294321 762.755364 436.42689 763.753467 431.009179 767.888463 435.428891 772.451217 440.418888 774.019664 444.981171 777.44173 448.402884 778.725005 446.834599 785.426551 450.826597 786.282067 455.531451 791.557752 454.390881 793.981715 450.684025 789.561547 445.979171 784.71362 444.8386 780.00828 439.706031 778.012074 431.864607 774.304836 423.595468 769.029152 423.310326 768.031049 416.752043 770.027254 408.768048 773.164148 395.508912 772.878976 385.528917 779.865693 385.386346 779.437935 392.514913 786.139481 392.372342 793.696543 396.506911 790.702235 385.528917 794.979818 378.115207 805.103429 376.261779 812.660492 377.687493"></polygon>
        <polygon vector-effect="non-scaling-stroke" id="TW" stroke="#FFFFFF" stroke-linejoin="round" points="925.831015 300.067541 927.542048 285.525263 927.684634 279.96498 923.549638 277.256125 918.844297 284.09955 916.135162 293.081545 918.273953 299.782399 923.977396 307.481252 925.831015 300.067541"></polygon>
        <polygon vector-effect="non-scaling-stroke" id="UA" stroke="#FFFFFF" stroke-linejoin="round" points="207.465254 34.5300668 200.621122 35.2429236 198.482331 34.8152095 197.05647 36.8112085 194.489921 36.5260658 194.489921 36.5260658 188.643892 36.9537798 186.932859 38.9497788 187.218031 43.3694907 184.366309 42.5140626 178.235108 42.9417766 176.096317 40.8032064 173.814939 42.3714912 170.963218 41.0883491 165.544947 40.9457777 157.560126 38.8072074 150.430823 38.0943506 145.155138 38.3794933 141.733072 40.660635 138.596178 41.0883491 143.016346 48.6446308 142.588588 51.2109151 139.309108 52.2089146 133.890837 59.4800536 136.172215 63.4720515 134.603768 62.9017661 133.035321 65.3254791 132.037218 68.8897629 136.172215 71.3134759 137.027731 73.5946176 139.736867 71.74119 144.299621 72.7391895 148.862376 72.7391895 152.284442 74.8777597 154.565819 73.5946176 159.698918 72.7391895 161.124778 70.6006192 164.119086 70.6006192 165.687533 69.317477 170.250287 68.4620489 175.811144 71.1709046 178.662866 71.5986186 182.227518 73.8797603 182.227518 76.8737587 184.936654 78.4420436 186.5051 82.1488988 189.356822 84.2874691 189.07165 85.7131826 190.497511 86.5686107 188.786478 87.2814675 184.508895 86.9963248 183.653379 85.7131826 182.227518 86.4260394 182.940448 87.9943242 181.372002 90.8457513 180.659071 93.8397497 178.948038 94.8377492 182.370104 96.4060341 185.506998 94.9803205 188.929064 96.5486054 193.634404 89.9903232 195.488023 85.1428972 201.904397 84.0023263 202.902499 87.4240388 214.309386 89.5626091 216.733349 91.5586081 210.316975 94.5526065 209.318873 96.2634627 217.588865 98.8297471 216.733349 102.964316 221.010931 104.817744 229.993854 99.6851752 237.550916 98.1168903 238.406433 94.9803205 231.134543 95.550606 227.284719 93.4120357 225.858858 87.8517529 231.419715 84.5726118 237.978675 84.1448977 242.256257 81.2934706 247.817114 80.5806139 247.24677 76.588616 250.383664 74.164903 257.085209 73.4520462 257.512967 70.4580478 254.946418 65.6106218 256.800037 61.0483385 256.229693 58.3394828 245.393151 55.4880557 241.258155 55.6306271 236.125056 51.4960578 231.134543 52.9217714 221.723862 49.7852016 221.43869 48.0743454 218.301796 44.2249188 212.598353 43.9397761 211.60025 41.2309204 212.883525 39.3774928 207.465254 34.5300668"></polygon>
        <polygon vector-effect="non-scaling-stroke" id="VN" stroke="#FFFFFF" stroke-linejoin="round" points="825.485082 310.774292 817.072503 308.493151 812.794921 304.786296 813.080093 299.511155 805.665617 297.942871 801.388035 294.521158 795.542005 299.368584 787.984943 300.366584 781.853742 300.366584 778.003918 302.505154 783.707361 309.776293 788.555288 317.90286 798.251141 318.045431 802.528723 325.886856 797.823383 328.310569 795.969764 331.58971 806.378547 337.007421 814.505954 347.700273 820.637155 355.684269 827.481287 361.957408 830.333009 368.373119 830.047836 377.497686 832.614386 383.485682 832.756972 394.463677 820.066811 401.449673 824.059221 406.867384 815.789229 407.580241 809.087683 411.144525 815.504056 416.419665 813.650437 422.550233 816.929917 428.253087 826.340598 419.841378 832.186628 412.285096 840.884378 406.43967 847.01558 400.451673 846.445235 384.483682 840.741792 367.802834 834.895763 360.531695 826.910943 354.82884 817.785434 342.995418 810.228371 333.443138 810.941302 327.169998 816.216987 318.615717 825.485082 310.774292"></polygon>
        <polyline vector-effect="non-scaling-stroke" id="Path-3" stroke="#00D4FA" points="33 47 16 39 92 39 154 55 193 55 139 8 127 35 96 22 79 54 134 84 188 100 128 110 128 133 170 123 292 121 311 142 337 137 573 259 629 276 597 387 586 405 599 430 616 394 777 380 767 339 788 355 811 397 832 411 929 292 993 185 1015 187"></polyline>
        <polygon vector-effect="non-scaling-stroke" id="PL" stroke="#FFFFFF" stroke-linejoin="round" points="102.340883 16.7669564 101.627953 14.7709575 94.7838211 13.2026726 86.6564147 16.196671 76.5328031 20.1886689 72.1126347 22.6123819 74.1088398 27.0320939 72.3978068 29.3132355 75.2495284 32.4498053 77.2457335 37.1546599 77.1031474 40.1486583 80.3826272 45.7089411 83.8046931 48.4177968 89.080378 49.2732249 88.9377919 51.6969379 92.787616 53.4077942 93.6431325 51.2692239 98.4910592 52.124652 99.4891617 54.9760791 104.622261 55.4037931 108.329499 59.8235051 108.757257 60.3937905 111.466392 59.1106483 115.316216 62.2472181 119.308627 60.3937905 122.730693 61.2492186 127.578619 60.1086478 134.565337 63.3877889 136.133784 63.9580743 133.852407 59.9660764 139.270678 52.6949374 142.550157 51.6969379 142.977916 49.1306536 138.557747 41.5743719 137.844817 37.7249453 135.135681 33.5903761 138.985505 31.8795199 138.557747 28.4578074 136.133784 25.1786663 135.278267 21.3292397 133.282062 18.620384 129.71741 17.7649559 117.312422 17.9075273 108.899843 16.9095278"></polygon>
    </g>
</svg>