<?xml version="1.0" encoding="UTF-8"?>
<svg width="2000px" height="878px" viewBox="0 0 2000 878" version="1.1" xmlns="http://www.w3.org/2000/svg" xmlns:xlink="http://www.w3.org/1999/xlink" style="background: #222230;">
    <!-- Generator: Sketch 43.2 (39069) - http://www.bohemiancoding.com/sketch -->
    <title>Artboard</title>
    <desc>Created with Sketch.</desc>
    <defs></defs>
    <g id="Page-1" stroke="none" stroke-width="1" fill="none" fill-rule="evenodd">
        <g id="Artboard">
            <g id="world" opacity="0.499433877" stroke="#FFFFFF" stroke-linejoin="round">
                <polygon vector-effect="non-scaling-stroke" id="AL" points="233.374503 231.169278 227.875954 239.680986 229.250591 244.89784 229.250591 244.89784 231.999866 247.643552 230.625228 252.860406 230.350301 264.666969 232.274793 272.904106 240.522617 278.670102 241.072472 282.514099 243.821746 283.612384 249.595223 275.375247 249.870151 269.609251 254.26899 267.13811 254.26899 262.74497 247.945658 258.35183 245.471311 251.212978 246.571021 245.446982 246.571021 245.446982 245.196384 239.131844 241.622327 237.484416 238.04827 233.091276 234.474213 234.464133 233.374503 231.169278"></polygon>
                <polygon vector-effect="non-scaling-stroke" id="AM" points="622.39686 298.713803 619.922513 286.632668 613.049327 283.612384 606.17614 278.944673 608.925415 273.453249 600.402663 267.412681 602.327156 263.294113 596.278751 260.273829 592.429767 255.606118 573.459772 258.35183 577.033829 264.392398 577.033829 272.904106 588.580783 277.022675 595.179042 282.239528 597.928316 281.690386 602.87701 286.358097 609.200342 286.358097 609.750197 289.103809 617.448166 299.262945 622.39686 298.713803"></polygon>
                <polygon vector-effect="non-scaling-stroke" id="AZ" points="614.698891 245.721553 610.574979 245.172411 607.550777 247.643552 616.348456 256.978974 614.698891 258.900973 607.000922 257.802688 595.453969 252.860406 592.429767 255.606118 596.278751 260.273829 602.327156 263.294113 600.402663 267.412681 608.925415 273.453249 606.17614 278.944673 613.049327 283.612384 619.922513 286.632668 622.39686 298.713803 636.968016 285.808954 642.191637 284.436098 647.415259 289.652952 644.11613 298.16466 654.563373 307.500082 658.13743 306.676369 655.93801 297.890089 660.611777 293.77152 661.711487 287.730953 661.43656 274.002391 672.983513 272.629535 667.484964 267.961824 660.611777 267.412681 650.989316 255.056976 641.641782 246.270696 634.493669 253.134977 633.119031 257.253545 626.520772 256.15526"></polygon>
                <polygon vector-effect="non-scaling-stroke" id="BG" points="354.617513 214.145861 346.369689 212.223862 335.372591 206.183295 319.426798 210.027292 313.103467 214.420432 292.483907 213.596718 281.486809 210.851006 276.263187 212.223862 271.314493 205.08501 268.290291 208.929007 270.214783 215.244146 277.912752 222.382998 273.238985 227.599852 271.314493 233.091276 272.964057 235.013275 271.039565 237.484416 278.737534 242.975841 280.936954 254.233262 291.384197 254.782404 302.106368 250.114693 312.828539 255.880689 325.475202 254.233262 324.65042 245.996125 338.396793 240.5047 350.768529 242.70127 344.995052 233.091276 348.569109 221.010142"></polygon>
                <polygon vector-effect="non-scaling-stroke" id="BY" points="330.423897 8.49200236 316.127669 4.37343376 303.481006 10.6885723 296.332892 13.4342847 298.807239 20.5731369 289.184778 26.0645617 287.81014 35.3999838 274.613622 41.4405511 261.966959 41.4405511 263.616524 48.8539746 268.290291 55.1691131 269.115073 61.7588228 261.692031 65.0536777 266.915653 73.0162437 268.290291 80.4296671 274.338695 79.6059534 280.936954 75.2128136 291.10927 74.6636711 304.855643 76.0365273 320.251581 80.1550959 330.698824 80.4296671 336.197373 82.9008083 340.596213 79.8805247 344.720125 83.9990933 356.542005 83.1753795 362.040555 84.822807 361.4907 76.3110985 364.789829 72.4671012 376.061855 71.6433875 376.061855 71.6433875 370.563306 60.9351091 366.439394 55.4436843 368.638814 53.7962569 379.360985 54.3453994 383.759824 50.7759733 379.086057 46.3828334 369.738524 43.3625498 370.013451 40.3422662 363.965047 37.3219825 353.792731 26.6137042 355.442296 22.2205643 352.693021 14.2579984 339.496503 10.414001 333.173171 12.3359997 330.423897 8.49200236"></polygon>
                <polygon vector-effect="non-scaling-stroke" id="CZ" points="156.119886 88.3922331 150.34641 90.0396605 146.497425 88.1176618 143.473223 91.4125167 134.12569 94.7073716 129.451923 98.8259402 120.104389 102.395366 122.853664 107.61222 124.778156 114.751072 131.92627 118.869641 139.899166 126.008493 150.34641 131.499918 157.494524 124.635637 162.168291 123.262781 173.165389 128.479634 179.488721 127.65592 185.812052 130.950775 187.461617 127.106778 193.510021 127.381349 197.908861 125.733922 198.183788 124.086494 200.658135 123.262781 201.20799 119.418783 204.232192 118.595069 205.881757 115.574786 210.005669 115.574786 202.857555 107.063077 192.960166 106.239364 191.035674 100.747939 181.68814 99.1005114 180.038576 103.21908 172.615534 99.9242251 172.890462 95.2565141 162.718146 93.6090866 156.119886 88.3922331"></polygon>
                <polygon vector-effect="non-scaling-stroke" id="DE" points="140.174094 43.9116923 133.575835 38.6948387 118.454824 32.105129 111.581638 36.77284 98.6600471 39.7931237 98.3851196 34.0271276 84.9136741 30.1831303 84.3638191 23.8679918 76.1159953 26.3391329 66.2186067 24.142563 67.3183165 33.4779852 70.6174461 39.5185524 62.3696223 47.7556896 59.6203476 44.1862635 48.8981767 45.0099772 46.4238295 48.5794033 49.1731041 54.0708281 46.4238295 69.4468176 43.3996274 75.7619561 35.4267311 75.7619561 38.4509331 93.3345154 37.3512233 104.866507 40.1004979 108.710505 39.550643 116.123928 46.1489021 120.517068 65.6687518 123.811923 59.3454202 135.343915 57.9707829 147.699621 69.5177362 147.699621 72.2670108 143.855623 87.1130937 149.072477 91.2370057 148.248763 98.3851196 152.916474 100.034684 148.523335 112.131493 149.347048 121.479026 146.052193 128.077285 146.601336 132.751052 150.170762 133.850762 147.150478 131.101487 136.167629 135.775254 133.971059 139.899166 126.008493 131.92627 118.869641 124.778156 114.751072 122.853664 107.61222 120.104389 102.395366 129.451923 98.8259402 134.12569 94.7073716 143.473223 91.4125167 146.497425 88.1176618 150.34641 90.0396605 156.119886 88.3922331 149.796555 77.6839547 150.071482 71.9179587 146.222498 62.8571078 140.723949 56.8165405 144.023078 52.4234007 140.174094 43.9116923"></polygon>
                <polygon vector-effect="non-scaling-stroke" id="GE" points="570.160643 230.345564 549.541083 222.382998 528.371669 219.637286 515.999933 216.617002 514.625296 218.539001 520.6737 223.755854 528.921523 225.677853 538.269057 231.992991 544.042534 243.524983 543.217751 250.938407 558.063834 250.114693 573.459772 258.35183 592.429767 255.606118 595.453969 252.860406 607.000922 257.802688 614.698891 258.900973 616.348456 256.978974 607.550777 247.643552 610.574979 245.172411 600.952518 241.328414 595.179042 234.464133 581.157741 230.894706 573.184845 233.640419"></polygon>
                <path vector-effect="non-scaling-stroke" d="M300.456803,353.078908 L308.979555,359.119475 L320.251581,358.02119 L330.973752,359.394047 L330.973752,362.41433 L338.671721,360.21776 L337.297083,365.434614 L316.402596,367.082041 L316.402596,364.061758 L298.257384,360.766903 L300.456803,353.078908 Z M332.073461,250.389264 L332.073461,250.389264 L328.774332,261.097543 L325.75013,263.019541 L316.952451,262.470399 L309.52941,260.822972 L292.758835,265.216111 L303.481006,275.100676 L296.607819,277.846388 L288.634923,277.846388 L280.387099,269.060109 L277.912752,272.629535 L282.311591,283.063242 L290.00956,291.300379 L285.060866,295.144377 L293.858544,303.381514 L301.281586,308.323796 L302.381296,318.482932 L288.634923,313.815221 L293.858544,322.876072 L284.785938,324.79807 L291.384197,340.448631 L282.036664,340.723202 L269.39,332.760636 L263.066669,318.757503 L259.492612,306.95094 L253.16928,298.713803 L245.196384,288.829238 L243.821746,283.612384 L249.595223,275.375247 L249.870151,269.609251 L254.26899,267.13811 L254.26899,262.74497 L263.341596,261.097543 L268.565218,257.528117 L276.263187,257.802688 L278.187679,254.782404 L280.936954,254.233262 L291.384197,254.782404 L302.106368,250.114693 L312.828539,255.880689 L325.475202,254.233262 L324.65042,245.996125 L332.073461,250.389264 Z" id="GR"></path>
                <polygon vector-effect="non-scaling-stroke" id="HU" points="237.773342 130.401633 233.374503 131.499918 230.625228 135.618486 224.576824 137.540485 222.927259 136.4422 216.603928 139.187912 211.380306 139.737055 210.555524 143.03191 199.283498 145.22848 194.059876 143.306481 186.911762 138.913341 186.361907 146.052193 178.663938 146.052193 181.68814 149.62162 178.114083 160.604469 180.313503 160.87904 183.612633 166.645036 188.011472 168.841606 199.00857 175.980459 210.555524 179.275313 215.504218 176.804172 215.504218 176.804172 225.676534 172.411032 234.474213 172.960175 244.921456 169.939891 252.06957 158.133328 257.293192 146.601336 265.266088 143.03191 263.616524 138.63877 255.643627 133.971059 252.894353 135.618486 237.773342 130.401633"></polygon>
                <path vector-effect="non-scaling-stroke" d="M1924.17839,380.536032 L1911.80665,376.966606 L1908.78245,384.380029 L1899.70984,382.183459 L1896.13579,392.617167 L1899.43492,400.854304 L1910.98187,405.796586 L1910.70694,395.63745 L1916.48042,391.518882 L1925.00317,397.284878 L1928.57723,386.576599 L1924.17839,380.536032 L1924.17839,380.536032 Z M1991.26069,327.543783 L1981.3633,309.14751 L1984.93736,291.57495 L1977.23939,277.297246 L1954.97026,253.409548 L1941.77375,256.704403 L1942.3236,267.412681 L1956.3449,286.907239 L1959.09418,308.598367 L1954.42041,315.462648 L1942.04867,333.309779 L1928.3023,324.79807 L1928.3023,356.373763 L1910.98187,352.804337 L1884.58883,358.02119 L1879.36521,370.102325 L1868.64304,379.163176 L1865.61884,390.146025 L1853.79696,395.63745 L1864.79406,407.444014 L1876.06608,412.660867 L1878.54043,428.311428 L1888.16289,435.175709 L1895.03608,427.762285 L1892.83666,398.108591 L1872.76695,385.203743 L1889.53753,384.929172 L1903.2839,376.692035 L1926.92766,372.848037 L1933.52592,386.027457 L1946.17258,392.617167 L1958.26939,372.573466 L1983.28779,371.475181 L1998.13387,363.238044 L1999.78344,350.607767 L1992.91025,341.821487 L1991.26069,327.543783 L1991.26069,327.543783 Z M1958.81925,206.183295 L1944.24809,200.417299 L1915.65564,182.84474 L1920.87926,196.024159 L1932.70114,219.362714 L1918.40491,220.460999 L1920.05448,233.365848 L1932.70114,250.114693 L1948.372,250.114693 L1943.97317,231.443849 L1973.66533,242.975841 L1974.76504,226.226995 L1992.3604,221.559284 L1975.86475,202.613869 L1971.19098,209.752721 L1958.81925,206.183295 Z" id="JP"></path>
                <polygon vector-effect="non-scaling-stroke" id="KH" points="1600.58877 728.966935 1586.29254 722.651797 1580.79399 734.45836 1567.32254 727.86865 1552.75139 725.122938 1533.23154 728.692364 1524.98371 742.970068 1530.75719 764.112054 1540.10472 782.233756 1547.25284 791.294606 1560.17443 793.765748 1573.09602 786.901467 1589.04181 785.52861 1581.34384 775.094903 1605.81239 761.640913 1605.53746 740.498927 1600.58877 728.966935"></polygon>
                <polygon vector-effect="non-scaling-stroke" id="LT" points="296.332892 13.4342847 282.586518 5.47171872 275.713332 4.37343376 273.238985 0.804007649 261.142177 2.45143509 239.422907 1.35315013 225.676534 6.57000368 230.350301 20.2985657 244.096674 23.3188493 250.145078 25.7899905 249.595223 30.4577015 251.244788 34.5762701 258.117974 36.2236976 261.966959 41.4405511 274.613622 41.4405511 287.81014 35.3999838 289.184778 26.0645617 298.807239 20.5731369 296.332892 13.4342847"></polygon>
                <polygon vector-effect="non-scaling-stroke" id="MK" points="278.737534 242.975841 271.039565 237.484416 264.441306 237.758987 259.767539 238.857272 256.743337 239.406415 248.770441 242.152127 248.495513 245.446982 246.571021 245.446982 245.471311 251.212978 247.945658 258.35183 254.26899 262.74497 263.341596 261.097543 268.565218 257.528117 276.263187 257.802688 278.187679 254.782404 280.936954 254.233262"></polygon>
                <polygon vector-effect="non-scaling-stroke" id="NL" points="35.4267311 75.7619561 43.3996274 75.7619561 46.4238295 69.4468176 49.1731041 54.0708281 46.4238295 48.5794033 35.7016585 48.0302609 17.8313736 55.1691131 7.1092026 79.6059534 0.236016076 84.2736645 0.236016076 84.2736645 10.1334047 85.6465207 22.230213 82.0770946 30.7529642 89.490518 38.4509331 93.3345154 35.4267311 75.7619561"></polygon>
                <polygon vector-effect="non-scaling-stroke" id="PL" points="211.105379 32.9288427 198.458715 32.6542714 197.084078 28.8102741 183.88756 25.7899905 168.216695 31.5559865 148.696845 39.2439812 140.174094 43.9116923 144.023078 52.4234007 140.723949 56.8165405 146.222498 62.8571078 150.071482 71.9179587 149.796555 77.6839547 156.119886 88.3922331 162.718146 93.6090866 172.890462 95.2565141 172.615534 99.9242251 180.038576 103.21908 181.68814 99.1005114 191.035674 100.747939 192.960166 106.239364 202.857555 107.063077 210.005669 115.574786 210.830451 116.673071 216.054073 114.20193 223.477114 120.242497 231.175083 116.673071 237.773342 118.320498 247.120876 116.123928 260.592322 122.439067 263.616524 123.537352 259.217684 115.849357 269.664928 101.846224 275.988259 99.9242251 276.813042 94.9819428 268.290291 80.4296671 266.915653 73.0162437 261.692031 65.0536777 269.115073 61.7588228 268.290291 55.1691131 263.616524 48.8539746 261.966959 41.4405511 258.117974 36.2236976 251.244788 34.5762701 227.326099 34.8508414 211.105379 32.9288427"></polygon>
                <polygon vector-effect="non-scaling-stroke" id="RO" points="317.502306 137.265914 311.728829 137.265914 308.979555 141.384482 299.082166 143.03191 294.683327 145.503051 288.085068 141.384482 279.287389 141.384482 270.48971 139.462484 265.266088 143.03191 257.293192 146.601336 252.06957 158.133328 244.921456 169.939891 234.474213 172.960175 242.447109 179.824456 244.646529 185.041309 253.444208 189.159878 255.3687 196.024159 263.891451 200.966441 267.740436 197.397015 271.58942 199.319014 268.565218 202.339298 271.314493 205.08501 276.263187 212.223862 281.486809 210.851006 292.483907 213.596718 313.103467 214.420432 319.426798 210.027292 335.372591 206.183295 346.369689 212.223862 354.617513 214.145861 355.717223 193.827589 360.116062 195.200445 366.439394 191.631019 365.339684 187.237879 358.741425 184.217596 352.693021 186.963308 346.094762 183.943024 342.520705 176.25503 343.07056 168.841606 341.420995 161.428183 332.073461 151.269047 326.84984 144.130195 321.901145 138.913341"></polygon>
                <polygon vector-effect="non-scaling-stroke" id="RS" points="244.646529 185.041309 242.447109 179.824456 234.474213 172.960175 225.676534 172.411032 215.504218 176.804172 219.62813 183.393882 224.301897 188.336164 219.62813 194.651303 224.576824 194.651303 221.82755 202.064726 229.250591 208.379865 227.875954 216.342431 224.576824 217.166144 228.700736 220.186428 230.900156 222.382998 235.84885 224.304997 241.347399 227.599852 240.247689 229.247279 243.546819 227.874423 244.921456 222.382998 247.395803 221.284713 249.595223 223.755854 252.344498 224.854139 254.543917 227.599852 256.743337 228.423565 259.767539 231.443849 261.966959 231.443849 260.592322 235.562418 259.217684 237.484416 259.767539 238.857272 264.441306 237.758987 271.039565 237.484416 272.964057 235.013275 271.314493 233.091276 273.238985 227.599852 277.912752 222.382998 270.214783 215.244146 268.290291 208.929007 271.314493 205.08501 268.565218 202.339298 271.58942 199.319014 267.740436 197.397015 263.891451 200.966441 255.3687 196.024159 253.444208 189.159878"></polygon>
                <polygon vector-effect="non-scaling-stroke" id="SK" points="260.592322 122.439067 247.120876 116.123928 237.773342 118.320498 231.175083 116.673071 223.477114 120.242497 216.054073 114.20193 210.830451 116.673071 210.005669 115.574786 205.881757 115.574786 204.232192 118.595069 201.20799 119.418783 200.658135 123.262781 198.183788 124.086494 197.908861 125.733922 193.510021 127.381349 187.461617 127.106778 185.812052 130.950775 184.98727 133.147345 186.911762 138.913341 194.059876 143.306481 199.283498 145.22848 210.555524 143.03191 211.380306 139.737055 216.603928 139.187912 222.927259 136.4422 224.576824 137.540485 230.625228 135.618486 233.374503 131.499918 237.773342 130.401633 252.894353 135.618486 255.643627 133.971059 257.56812 127.106778 260.592322 122.439067"></polygon>
                <polygon vector-effect="non-scaling-stroke" id="TH" points="1567.32254 727.86865 1571.44646 719.906084 1570.07182 705.079237 1555.77559 689.977819 1552.20153 672.679831 1538.73009 658.402127 1526.90821 657.303842 1524.70879 663.344409 1515.91111 663.893551 1510.96241 660.598696 1496.39126 671.032404 1493.64198 655.381843 1494.74169 636.98557 1484.29445 636.161856 1481.8201 625.728149 1474.67199 620.511295 1466.42417 624.355293 1458.7262 632.043288 1448.00403 632.867001 1443.88011 651.812417 1437.83171 654.8327 1447.45417 670.20869 1458.7262 682.838967 1466.69909 694.370959 1462.85011 709.746948 1458.17634 712.767232 1462.85011 721.553512 1474.39706 735.556645 1477.14634 745.166638 1477.69619 753.403775 1485.39416 769.328907 1478.24605 785.52861 1472.19764 803.650312 1468.62359 820.399158 1467.7988 831.107436 1471.09793 840.992001 1473.02242 830.558294 1480.99532 839.070002 1489.793 848.679996 1492.8172 857.466275 1499.41546 864.055985 1501.88981 861.035701 1514.8114 868.723696 1516.46096 877.784547 1526.63328 875.587977 1531.30705 868.449125 1522.78429 859.388274 1513.43676 857.191704 1504.36415 847.307139 1500.51517 832.205721 1493.36706 816.280589 1483.19474 815.731447 1481.27025 803.10117 1485.11923 787.72518 1491.16764 762.190055 1490.61778 742.970068 1504.08923 742.695497 1503.26445 756.424059 1516.18604 756.149488 1530.75719 764.112054 1524.98371 742.970068 1533.23154 728.692364 1552.75139 725.122938 1567.32254 727.86865"></polygon>
                <polygon vector-effect="non-scaling-stroke" id="TW" points="1786.1648 579.051038 1789.46393 551.044772 1789.73886 540.336493 1781.76596 535.11964 1772.69336 548.299059 1767.46974 565.597048 1771.59365 578.501896 1782.59075 593.328743 1786.1648 579.051038"></polygon>
                <polygon vector-effect="non-scaling-stroke" id="UA" points="401.080254 67.7993901 387.883736 69.1722463 383.759824 68.3485326 381.01055 72.1925299 376.061855 71.6433875 376.061855 71.6433875 364.789829 72.4671012 361.4907 76.3110985 362.040555 84.822807 356.542005 83.1753795 344.720125 83.9990933 340.596213 79.8805247 336.197373 82.9008083 330.698824 80.4296671 320.251581 80.1550959 304.855643 76.0365273 291.10927 74.6636711 280.936954 75.2128136 274.338695 79.6059534 268.290291 80.4296671 276.813042 94.9819428 275.988259 99.9242251 269.664928 101.846224 259.217684 115.849357 263.616524 123.537352 260.592322 122.439067 257.56812 127.106778 255.643627 133.971059 263.616524 138.63877 265.266088 143.03191 270.48971 139.462484 279.287389 141.384482 288.085068 141.384482 294.683327 145.503051 299.082166 143.03191 308.979555 141.384482 311.728829 137.265914 317.502306 137.265914 320.526508 134.794773 329.324187 133.147345 340.046358 138.364199 345.544907 139.187912 352.418094 143.581052 352.418094 149.347048 357.641715 152.367332 360.665917 159.506184 366.164467 163.624753 365.614612 166.370465 368.363886 168.017893 365.064757 169.390749 356.816933 168.841606 355.167368 166.370465 352.418094 167.743321 353.792731 170.763605 350.768529 176.25503 349.393891 182.021026 346.094762 183.943024 352.693021 186.963308 358.741425 184.217596 365.339684 187.237879 374.41229 174.607602 377.986347 165.27218 390.358083 163.07561 392.282575 169.66532 414.276772 173.783889 418.950539 177.627886 406.578803 183.393882 404.654311 186.688737 420.600104 191.631019 418.950539 199.593585 427.198363 203.163011 444.518793 193.278447 459.089948 190.258163 460.739513 184.217596 446.718213 185.315881 439.295171 181.197312 436.545897 170.489034 447.268068 164.173895 459.914731 163.350181 468.162555 157.858757 478.884726 156.485901 477.785016 148.797906 483.83342 144.130195 496.755011 142.757339 497.579793 136.991342 492.631099 127.65592 496.205156 118.869641 495.105446 113.652787 474.210959 108.161362 466.238062 108.435934 456.340674 100.473368 446.718213 103.21908 428.573 97.1785128 428.023145 93.8836579 421.974741 86.4702344 410.977643 85.9210919 409.053151 80.7042384 411.527498 77.1348123 401.080254 67.7993901"></polygon>
                <polygon vector-effect="non-scaling-stroke" id="VN" points="1591.79109 600.467595 1575.57037 596.074455 1567.32254 588.935603 1567.8724 578.776467 1553.57617 575.756183 1545.32835 569.166474 1534.05632 578.501896 1519.48517 580.423894 1507.66328 580.423894 1500.24024 584.542463 1511.23734 598.545596 1520.58488 614.196157 1539.27994 614.470728 1547.52777 629.572146 1538.45516 634.239857 1534.8811 640.554996 1554.95081 650.988703 1570.62167 671.581546 1582.44355 686.957535 1595.64007 699.03867 1601.13862 711.394376 1600.58877 728.966935 1605.53746 740.498927 1605.81239 761.640913 1581.34384 775.094903 1589.04181 785.52861 1573.09602 786.901467 1560.17443 793.765748 1572.54617 803.924884 1568.97211 815.731447 1575.29544 826.714296 1593.44065 810.514593 1604.71268 795.962318 1621.48325 784.704897 1633.30513 773.172905 1632.20542 742.420926 1621.20833 710.296091 1609.9363 696.292958 1594.54036 685.310108 1576.945 662.520695 1562.37385 644.124422 1563.74849 632.043288 1573.9208 615.569013 1591.79109 600.467595"></polygon>
                <polygon vector-effect="non-scaling-stroke" id="IN-Copy" points="1157.4057 448.904269 1134.03687 436.823135 1116.99136 425.840285 1108.19368 406.620299 1119.46571 409.09144 1117.81614 400.030589 1109.56832 390.969739 1107.3689 376.692034 1086.47441 356.099192 1076.3021 370.926038 1060.63123 373.671751 1037.2624 369.278611 1032.03878 376.966606 1040.83646 392.342595 1048.80935 404.149158 1062.55573 412.660866 1052.38341 422.820002 1055.13268 435.175707 1044.41051 452.473695 1038.63704 470.320825 1026.2653 488.717098 1008.66994 487.344242 995.198497 505.465943 1006.1956 513.428509 1009.76965 526.8825 1019.39211 535.668779 1024.34081 550.770197 991.349513 550.770197 982.551834 562.302189 1002.07168 577.129036 1007.29531 583.993317 1000.69705 590.308455 1022.69124 611.45044 1033.68834 613.64701 1054.58283 603.213303 1059.2566 619.413006 1061.45602 640.829562 1068.3292 663.069832 1078.22659 696.842094 1094.17238 721.004363 1097.74644 731.712641 1103.24499 753.67834 1112.59252 770.427185 1118.64093 778.664322 1125.51411 796.236881 1134.03687 820.673721 1149.15788 837.147995 1155.20628 832.205713 1159.88005 820.124579 1173.62642 815.182296 1168.67773 809.4163 1174.72613 796.236881 1182.69903 795.413167 1180.77453 765.759474 1185.99816 749.010629 1184.07366 734.458353 1178.85004 711.943512 1182.14917 698.489522 1189.02236 697.665808 1202.21888 691.350669 1209.36699 686.95753 1208.54221 678.994964 1222.28858 667.462972 1232.4609 656.480123 1247.03205 635.88728 1267.37668 624.355288 1273.97494 613.921581 1271.5006 600.742162 1289.64581 597.172736 1299.81812 597.447307 1301.19276 590.857597 1296.79392 576.579893 1289.64581 563.400474 1290.74552 552.966767 1280.5732 548.299056 1282.77262 541.983918 1291.29537 535.394208 1278.64871 526.058786 1281.94784 514.252223 1295.14436 521.665646 1302.5674 522.763931 1305.86653 534.845066 1320.71261 537.316207 1334.45898 537.041635 1343.80652 540.061919 1339.40768 554.614194 1332.80942 555.712479 1329.78522 565.597044 1339.40768 574.657895 1339.95753 563.675045 1344.08145 563.400474 1356.45318 591.132169 1363.05144 587.0136 1360.57709 579.600177 1363.05144 573.834181 1360.57709 555.712479 1373.22376 559.556477 1377.34767 545.278773 1376.52289 536.767064 1382.29636 521.940218 1379.82202 512.055653 1396.59259 499.974519 1407.86462 502.994802 1404.29056 492.286524 1408.6894 488.991669 1406.21505 482.40196 1389.44448 479.930819 1392.74361 472.517395 1383.12114 461.809117 1374.32347 468.947969 1360.85202 464.829401 1346.28086 475.81225 1335.55869 488.991669 1324.01174 491.188239 1331.43478 496.679664 1332.53449 507.387942 1320.43768 507.937085 1307.51609 506.8388 1298.71841 509.584512 1283.5974 502.720231 1282.77262 499.425376 1278.64871 485.422243 1270.40089 489.266241 1270.67581 496.679664 1274.79973 507.937085 1274.5248 514.801365 1261.87813 515.075937 1243.18307 510.957368 1231.36119 509.309941 1220.91394 500.523661 1200.01946 498.05252 1178.85004 488.442527 1162.90425 479.930819 1147.23338 473.066538 1149.70773 456.866835 1157.4057 448.904269"></polygon>
            </g>
            <g id="Group" transform="translate(233.000000, 251.000000)" stroke="#34DCFB" fill="#222230">
                <circle vector-effect="non-scaling-stroke" id="tirana" cx="2.4978807" cy="2.27060797" r="1.58878979"></circle>
                <circle vector-effect="non-scaling-stroke" id="berat" cx="4.86151706" cy="13.4978807" r="1.58878979"></circle>
                <circle vector-effect="non-scaling-stroke" id="saranda" cx="7.22515343" cy="27.0887898" r="1.58878979"></circle>
                <circle vector-effect="non-scaling-stroke" id="Gjirokastra" cx="7.22515343" cy="22.3615171" r="1.58878979"></circle>
                <circle vector-effect="non-scaling-stroke" id="dhermi" cx="2.4978807" cy="24.1342443" r="1.58878979"></circle>
            </g>
        </g>
    </g>
</svg>