<?xml version="1.0" encoding="UTF-8"?>
<svg width="731px" height="319px" viewBox="0 0 731 319" version="1.1" xmlns="http://www.w3.org/2000/svg" xmlns:xlink="http://www.w3.org/1999/xlink">
    <!-- Generator: Sketch 43.2 (39069) - http://www.bohemiancoding.com/sketch -->
    <title>Artboard</title>
    <desc>Created with Sketch.</desc>
    <defs></defs>
    <g id="Page-1" stroke="none" stroke-width="1" fill="none" fill-rule="evenodd" stroke-linejoin="round">
        <g id="Artboard" stroke="#FFFFFF">
            <polygon id="AM" points="230.8 107.7 229.9 103.3 227.4 102.2 224.9 100.5 225.9 98.5 222.8 96.3 223.5 94.8 221.3 93.7 219.9 92 213 93 214.3 95.2 214.3 98.3 218.5 99.8 220.9 101.7 221.9 101.5 223.7 103.2 226 103.2 226.2 104.2 229 107.9 230.8 107.7"></polygon>
            <path d="M222,102.3 L221,102.5 L222.2,104.9 L225.4,107.8 L229.1,108.7 L226.3,105 L226.1,104 L223.8,104 L222,102.3 L222,102.3 Z M232.4,93 L228.1,89.2 L226.6,89 L225.5,89.9 L228.7,93.3 L228.1,94 L225.3,93.6 L221.1,91.8 L220,92.8 L221.4,94.5 L223.6,95.6 L222.9,97.1 L226,99.3 L225,101.3 L227.5,103 L230,104.1 L230.9,108.5 L236.2,103.8 L238.1,103.3 L240,105.2 L238.8,108.3 L242.6,111.7 L243.9,111.4 L243.1,108.2 L244.8,106.7 L245.2,104.5 L245.1,99.5 L249.3,99 L247.3,97.3 L244.8,97.1 L241.3,92.6 L237.9,89.4 L237.9,89.4 L235.3,91.9 L234.8,93.4 L232.4,93 L232.4,93 Z" id="AZ"></path>
            <polygon id="GE" points="211.2 83 203.7 80.1 196 79.1 191.5 78 191 78.7 193.2 80.6 196.2 81.3 199.6 83.6 201.7 87.8 201.4 90.5 206.8 90.2 212.4 93.2 219.3 92.2 220.4 91.2 224.6 93 227.4 93.4 228 92.7 224.8 89.3 225.9 88.4 222.4 87 220.3 84.5 215.2 83.2 212.3 84.2"></polygon>
            <polygon id="IN" points="425.6 162.8 417.1 158.4 410.9 154.4 407.7 147.4 411.8 148.3 411.2 145 408.2 141.7 407.4 136.5 399.8 129 396.1 134.4 390.4 135.4 381.9 133.8 380 136.6 383.2 142.2 386.1 146.5 391.1 149.6 387.4 153.3 388.4 157.8 384.5 164.1 382.4 170.6 377.9 177.3 371.5 176.8 366.6 183.4 370.6 186.3 371.9 191.2 375.4 194.4 377.2 199.9 365.2 199.9 362 204.1 369.1 209.5 371 212 368.6 214.3 376.6 222 380.6 222.8 388.2 219 389.9 224.9 390.7 232.7 393.2 240.8 396.8 253.1 402.6 261.9 403.9 265.8 405.9 273.8 409.3 279.9 411.5 282.9 414 289.3 417.1 298.2 422.6 304.2 424.8 302.4 426.5 298 431.5 296.2 429.7 294.1 431.9 289.3 434.8 289 434.1 278.2 436 272.1 435.3 266.8 433.4 258.6 434.6 253.7 437.1 253.4 441.9 251.1 444.5 249.5 444.2 246.6 449.2 242.4 452.9 238.4 458.2 230.9 465.6 226.7 468 222.9 467.1 218.1 473.7 216.8 477.4 216.9 477.9 214.5 476.3 209.3 473.7 204.5 474.1 200.7 470.4 199 471.2 196.7 474.3 194.3 469.7 190.9 470.9 186.6 475.7 189.3 478.4 189.7 479.6 194.1 485 195 490 194.9 493.4 196 491.8 201.3 489.4 201.7 488.3 205.3 491.8 208.6 492 204.6 493.5 204.5 498 214.6 500.4 213.1 499.5 210.4 500.4 208.3 499.5 201.7 504.1 203.1 505.6 197.9 505.3 194.8 507.4 189.4 506.5 185.8 512.6 181.4 516.7 182.5 515.4 178.6 517 177.4 516.1 175 510 174.1 511.2 171.4 507.7 167.5 504.5 170.1 499.6 168.6 494.3 172.6 490.4 177.4 486.2 178.2 488.9 180.2 489.3 184.1 484.9 184.3 480.2 183.9 477 184.9 471.5 182.4 471.2 181.2 469.7 176.1 466.7 177.5 466.8 180.2 468.3 184.3 468.2 186.8 463.6 186.9 456.8 185.4 452.5 184.8 448.7 181.6 441.1 180.7 433.4 177.2 427.6 174.1 421.9 171.6 422.8 165.7 425.6 162.8"></polygon>
            <polygon id="MK" points="105.1 88 102.3 86 99.9 86.1 98.2 86.5 97.1 86.7 94.2 87.7 94.1 88.9 93.4 88.9 93.4 88.9 93 91 93.9 93.6 96.2 95.2 99.5 94.6 101.4 93.3 104.2 93.4 104.9 92.3 105.9 92.1"></polygon>
            <polygon id="AL" points="89 84 87 87.1 87.5 89 87.5 89 88.5 90 88 91.9 87.9 96.2 88.6 99.2 91.6 101.3 91.8 102.7 92.8 103.1 94.9 100.1 95 98 96.6 97.1 96.6 95.5 94.3 93.9 93.4 91.3 93.8 89.2 93.8 89.2 93.3 86.9 92 86.3 90.7 84.7 89.4 85.2 89 84"></polygon>
            <polygon id="AT" points="71.4 46.8 69.1 45.6 66.8 45.9 62.8 44 61.1 44.5 58.5 47 54.7 45 53.2 47.9 51.5 48.7 52.5 52.7 52.1 53.8 50.4 52.5 48 52.3 44.6 53.5 40.2 53.2 39.6 54.8 37 53.1 35.5 53.4 35.7 54.5 35 56.1 37.3 57.2 39.9 57.4 43 58.3 43.5 57.1 48.3 56 49.6 58.2 56.8 59.8 61 60.2 63.4 58.8 67.7 58.7 68.6 57.6 69.9 53.6 68.8 52.3 71.6 52.3 71.8 49.7 71.1 47.6 71.4 46.8"></polygon>
            <path d="M113.6,128 L112.8,130.8 L119.4,132 L119.4,133.1 L127,132.5 L127.5,130.6 L124.7,131.4 L124.7,130.3 L120.8,129.8 L116.7,130.2 L113.6,128 Z M125.1,90.6 L122.4,89 L122.7,92 L118.1,92.6 L114.2,90.5 L110.3,92.2 L106.5,92 L105.5,92.2 L104.8,93.3 L102,93.2 L100.1,94.5 L96.8,95.1 L96.8,96.7 L95.2,97.6 L95.1,99.7 L93,102.7 L93.5,104.6 L96.4,108.2 L98.7,111.2 L100,115.5 L102.3,120.6 L106.9,123.5 L110.3,123.4 L107.9,117.7 L111.2,117 L109.3,113.7 L114.3,115.4 L113.9,111.7 L111.2,109.9 L108,106.9 L109.8,105.5 L107,102.5 L105.4,98.7 L106.3,97.4 L109.3,100.6 L112.2,100.6 L114.7,99.6 L110.8,96 L116.9,94.4 L119.6,95 L122.8,95.2 L123.9,94.5 L125.1,90.6 L125.1,90.6 Z" id="GR"></path>
            <polygon id="HU" points="90.7 47 89.1 47.4 88.1 48.9 85.9 49.6 85.3 49.2 83 50.2 81.1 50.4 80.8 51.6 76.7 52.4 74.8 51.7 72.2 50.1 72 52.7 69.2 52.7 70.3 54 69 58 69.8 58.1 71 60.2 72.6 61 76.6 63.6 80.8 64.8 82.6 63.9 82.6 63.9 86.3 62.3 89.5 62.5 93.3 61.4 95.9 57.1 97.8 52.9 100.7 51.6 100.1 50 97.2 48.3 96.2 48.9 90.7 47"></polygon>
            <polygon id="RO" points="119.2 49 117.1 49 116.1 50.5 112.5 51.1 110.9 52 108.5 50.5 105.3 50.5 102.1 49.8 100.2 51.1 97.3 52.4 95.4 56.6 92.8 60.9 89 62 91.9 64.5 92.7 66.4 95.9 67.9 96.6 70.4 99.7 72.2 101.1 70.9 102.5 71.6 101.4 72.7 102.4 73.7 104.2 76.3 106.1 75.8 110.1 76.8 117.6 77.1 119.9 75.5 125.7 74.1 129.7 76.3 132.7 77 133.1 69.6 134.7 70.1 137 68.8 136.6 67.2 134.2 66.1 132 67.1 129.6 66 128.3 63.2 128.5 60.5 127.9 57.8 124.5 54.1 122.6 51.5 120.8 49.6"></polygon>
            <polygon id="RS" points="95.8 68.1 92.6 66.6 91.8 64.7 88.9 62.2 85.7 62 82 63.6 82 63.6 83.5 66 85.2 67.8 83.5 70.1 83.5 70.1 85.3 70.1 84.3 72.8 87 75.1 86.5 78 85.3 78.3 86.8 79.4 87.6 80.2 89.4 80.9 91.4 82.1 91 82.7 92.2 82.2 92.7 80.2 93.6 79.8 94.4 80.7 95.4 81.1 96.2 82.1 97 82.4 98.1 83.5 98.9 83.5 98.4 85 97.9 85.7 98.1 86.2 99.8 85.8 102.2 85.7 102.9 84.8 102.3 84.1 103 82.1 104.7 80.2 101.9 77.6 101.2 75.3 102.3 73.9 101.3 72.9 102.4 71.8 101 71.1 99.6 72.4 96.5 70.6 95.8 68.1"></polygon>
            <polygon id="BE" points="11.8 29 7.4 30.3 3.8 29.8 3.8 29.8 0 31 0.7 33.2 2.9 33.3 5.3 35.7 8.7 38.6 11.2 38.2 15.6 41 16 37.5 17.3 37.3 17.7 33.1 14.9 31.7 11.8 29"></polygon>
            <polygon id="BY" points="124 2.5 118.8 1 114.2 3.3 111.6 4.3 112.5 6.9 109 8.9 108.5 12.3 103.7 14.5 99.1 14.5 99.7 17.2 101.4 19.5 101.7 21.9 99 23.1 100.9 26 101.4 28.7 103.6 28.4 106 26.8 109.7 26.6 114.7 27.1 120.3 28.6 124.1 28.7 126.1 29.6 127.7 28.5 129.2 30 133.5 29.7 135.5 30.3 135.3 27.2 136.5 25.8 140.6 25.5 140.6 25.5 138.6 21.6 137.1 19.6 137.9 19 141.8 19.2 143.4 17.9 141.7 16.3 138.3 15.2 138.4 14.1 136.2 13 132.5 9.1 133.1 7.5 132.1 4.6 127.3 3.2 125 3.9 124 2.5"></polygon>
            <polygon id="CZ" points="61.1 31.1 59 31.7 57.6 31 56.5 32.2 53.1 33.4 51.4 34.9 48 36.2 49 38.1 49.7 40.7 52.3 42.2 55.2 44.8 59 46.8 61.6 44.3 63.3 43.8 67.3 45.7 69.6 45.4 71.9 46.6 72.5 45.2 74.7 45.3 76.3 44.7 76.4 44.1 77.3 43.8 77.5 42.4 78.6 42.1 79.2 41 80.7 41 78.1 37.9 74.5 37.6 73.8 35.6 70.4 35 69.8 36.5 67.1 35.3 67.2 33.6 63.5 33 61.1 31.1"></polygon>
            <polygon id="DE" points="55.1 15.3 52.7 13.4 47.2 11 44.7 12.7 40 13.8 39.9 11.7 35 10.3 34.8 8 31.8 8.9 28.2 8.1 28.6 11.5 29.8 13.7 26.8 16.7 25.8 15.4 21.9 15.7 21 17 22 19 21 24.6 19.9 26.9 17 26.9 18.1 33.3 17.7 37.5 18.7 38.9 18.5 41.6 20.9 43.2 28 44.4 25.7 48.6 25.2 53.1 29.4 53.1 30.4 51.7 35.8 53.6 37.3 53.3 39.9 55 40.5 53.4 44.9 53.7 48.3 52.5 50.7 52.7 52.4 54 52.8 52.9 51.8 48.9 53.5 48.1 55 45.2 52.1 42.6 49.5 41.1 48.8 38.5 47.8 36.6 51.2 35.3 52.9 33.8 56.3 32.6 57.4 31.4 58.8 32.1 60.9 31.5 58.6 27.6 58.7 25.5 57.3 22.2 55.3 20 56.5 18.4 55.1 15.3"></polygon>
            <polygon id="LT" points="111.7 4.6 106.7 1.7 104.2 1.3 103.3 0 98.9 0.6 91 0.2 86 2.1 87.7 7.1 92.7 8.2 94.9 9.1 94.7 10.8 95.3 12.3 97.8 12.9 99.2 14.8 103.8 14.8 108.6 12.6 109.1 9.2 112.6 7.2 111.7 4.6"></polygon>
            <polygon id="NL" points="16.8 27.1 19.7 27.1 20.8 24.8 21.8 19.2 20.8 17.2 16.9 17 10.4 19.6 6.5 28.5 4 30.2 4 30.2 7.6 30.7 12 29.4 15.1 32.1 17.9 33.5 16.8 27.1"></polygon>
            <polygon id="PL" points="80.8 11.6 76.2 11.5 75.7 10.1 70.9 9 65.2 11.1 58.1 13.9 55 15.6 56.4 18.7 55.2 20.3 57.2 22.5 58.6 25.8 58.5 27.9 60.8 31.8 63.2 33.7 66.9 34.3 66.8 36 69.5 37.2 70.1 35.7 73.5 36.3 74.2 38.3 77.8 38.6 80.4 41.7 80.7 42.1 82.6 41.2 85.3 43.4 88.1 42.1 90.5 42.7 93.9 41.9 98.8 44.2 99.9 44.6 98.3 41.8 102.1 36.7 104.4 36 104.7 34.2 101.6 28.9 101.1 26.2 99.2 23.3 101.9 22.1 101.6 19.7 99.9 17.4 99.3 14.7 97.9 12.8 95.4 12.2 86.7 12.3 80.8 11.6"></polygon>
            <polygon id="SK" points="98.5 44 93.6 41.7 90.2 42.5 87.8 41.9 85 43.2 82.3 41 80.4 41.9 80.1 41.5 78.6 41.5 78 42.6 76.9 42.9 76.7 44.3 75.8 44.6 75.7 45.2 74.1 45.8 71.9 45.7 71.3 47.1 71 47.9 71.7 50 74.3 51.6 76.2 52.3 80.3 51.5 80.6 50.3 82.5 50.1 84.8 49.1 85.4 49.5 87.6 48.8 88.6 47.3 90.2 46.9 95.7 48.8 96.7 48.2 97.4 45.7 98.5 44"></polygon>
            <polygon id="UA" points="149.9 24 145.1 24.5 143.6 24.2 142.6 25.6 140.8 25.4 140.8 25.4 136.7 25.7 135.5 27.1 135.7 30.2 133.7 29.6 129.4 29.9 127.9 28.4 126.3 29.5 124.3 28.6 120.5 28.5 114.9 27 109.9 26.5 106.2 26.7 103.8 28.3 101.6 28.6 104.7 33.9 104.4 35.7 102.1 36.4 98.3 41.5 99.9 44.3 98.8 43.9 97.7 45.6 97 48.1 99.9 49.8 100.5 51.4 102.4 50.1 105.6 50.8 108.8 50.8 111.2 52.3 112.8 51.4 116.4 50.8 117.4 49.3 119.5 49.3 120.6 48.4 123.8 47.8 127.7 49.7 129.7 50 132.2 51.6 132.2 53.7 134.1 54.8 135.2 57.4 137.2 58.9 137 59.9 138 60.5 136.8 61 133.8 60.8 133.2 59.9 132.2 60.4 132.7 61.5 131.6 63.5 131.1 65.6 129.9 66.3 132.3 67.4 134.5 66.4 136.9 67.5 140.2 62.9 141.5 59.5 146 58.7 146.7 61.1 154.7 62.6 156.4 64 151.9 66.1 151.2 67.3 157 69.1 156.4 72 159.4 73.3 165.7 69.7 171 68.6 171.6 66.4 166.5 66.8 163.8 65.3 162.8 61.4 166.7 59.1 171.3 58.8 174.3 56.8 178.2 56.3 177.8 53.5 180 51.8 184.7 51.3 185 49.2 183.2 45.8 184.5 42.6 184.1 40.7 176.5 38.7 173.6 38.8 170 35.9 166.5 36.9 159.9 34.7 159.7 33.5 157.5 30.8 153.5 30.6 152.8 28.7 153.7 27.4 149.9 24"></polygon>
            <path d="M703.6,138 L699.1,136.7 L698,139.4 L694.7,138.6 L693.4,142.4 L694.6,145.4 L698.8,147.2 L698.7,143.5 L700.8,142 L703.9,144.1 L705.2,140.2 L703.6,138 L703.6,138 Z M728,118.7 L724.4,112 L725.7,105.6 L722.9,100.4 L714.8,91.7 L710,92.9 L710.2,96.8 L715.3,103.9 L716.3,111.8 L714.6,114.3 L710.1,120.8 L705.1,117.7 L705.1,129.2 L698.8,127.9 L689.2,129.8 L687.3,134.2 L683.4,137.5 L682.3,141.5 L678,143.5 L682,147.8 L686.1,149.7 L687,155.4 L690.5,157.9 L693,155.2 L692.2,144.4 L684.9,139.7 L691,139.6 L696,136.6 L704.6,135.2 L707,140 L711.6,142.4 L716,135.1 L725.1,134.7 L730.5,131.7 L731.1,127.1 L728.6,123.9 L728,118.7 L728,118.7 Z M716.2,74.5 L710.9,72.4 L700.5,66 L702.4,70.8 L706.7,79.3 L701.5,79.7 L702.1,84.4 L706.7,90.5 L712.4,90.5 L710.8,83.7 L721.6,87.9 L722,81.8 L728.4,80.1 L722.4,73.2 L720.7,75.8 L716.2,74.5 Z" id="JP"></path>
            <polygon id="KH" points="586.5 265.3 581.3 263 579.3 267.3 574.4 264.9 569.1 263.9 562 265.2 559 270.4 561.1 278.1 564.5 284.7 567.1 288 571.8 288.9 576.5 286.4 582.3 285.9 579.5 282.1 588.4 277.2 588.3 269.5 586.5 265.3"></polygon>
            <polygon id="TH" points="574.1 264.1 575.6 261.2 575.1 255.8 569.9 250.3 568.6 244 563.7 238.8 559.4 238.4 558.6 240.6 555.4 240.8 553.6 239.6 548.3 243.4 547.3 237.7 547.7 231 543.9 230.7 543 226.9 540.4 225 537.4 226.4 534.6 229.2 530.7 229.5 529.2 236.4 527 237.5 530.5 243.1 534.6 247.7 537.5 251.9 536.1 257.5 534.4 258.6 536.1 261.8 540.3 266.9 541.3 270.4 541.5 273.4 544.3 279.2 541.7 285.1 539.5 291.7 538.2 297.8 537.9 301.7 539.1 305.3 539.8 301.5 542.7 304.6 545.9 308.1 547 311.3 549.4 313.7 550.3 312.6 555 315.4 555.6 318.7 559.3 317.9 561 315.3 557.9 312 554.5 311.2 551.2 307.6 549.8 302.1 547.2 296.3 543.5 296.1 542.8 291.5 544.2 285.9 546.4 276.6 546.2 269.6 551.1 269.5 550.8 274.5 555.5 274.4 560.8 277.3 558.7 269.6 561.7 264.4 568.8 263.1 574.1 264.1"></polygon>
            <polygon id="TW" points="653.8 210 655 199.8 655.1 195.9 652.2 194 648.9 198.8 647 205.1 648.5 209.8 652.5 215.2 653.8 210"></polygon>
            <polygon id="VN" points="583.3 218.4 577.4 216.8 574.4 214.2 574.6 210.5 569.4 209.4 566.4 207 562.3 210.4 557 211.1 552.7 211.1 550 212.6 554 217.7 557.4 223.4 564.2 223.5 567.2 229 563.9 230.7 562.6 233 569.9 236.8 575.6 244.3 579.9 249.9 584.7 254.3 586.7 258.8 586.5 265.2 588.3 269.4 588.4 277.1 579.5 282 582.3 285.8 576.5 286.3 571.8 288.8 576.3 292.5 575 296.8 577.3 300.8 583.9 294.9 588 289.6 594.1 285.5 598.4 281.3 598 270.1 594 258.4 589.9 253.3 584.3 249.3 577.9 241 572.6 234.3 573.1 229.9 576.8 223.9 583.3 218.4"></polygon>
        </g>
    </g>
</svg>