<?xml version="1.0" encoding="UTF-8"?>
<svg width="32px" height="32px" viewBox="0 0 32 32" version="1.1" xmlns="http://www.w3.org/2000/svg" xmlns:xlink="http://www.w3.org/1999/xlink">
    <g istroke="none" stroke-width="1" fill="none" fill-rule="evenodd">
        <g fill-rule="nonzero" fill="#000000" transform="translate(6.000000, 6.000000)">
            <path d="M7.50748366,0 L7.50372549,0.00124183007 L7.5,0 L7.5,0.00251633987 L0,2.85686275 L0,20 L7.5,17.7162418 L7.5,18.125 L13.7425163,20 L13.7425163,2.5 L7.50686275,0.0031372549 L7.50686275,0 L7.50748366,0 Z M6.25437908,16.875 L1.24562092,18.5 L1.24562092,3.75 L6.25437908,1.875 L6.25437908,16.875 L6.25437908,16.875 Z M12.5,3.125 L12.5,18.5 L7.50748366,16.8775163 L7.50748366,1.25251634 L12.5,3.125 Z M13.75,2.5 L13.75,3.75 L18.75,1.875 L18.75,16.875 L13.75,18.75 L13.75,20 L20,17.5 L20,0 L13.75,2.5 Z" id="Shape"></path>
        </g>
    </g>
</svg>