<svg width="32px" height="32px" viewBox="0 0 32 32" version="1.1" xmlns="http://www.w3.org/2000/svg" xmlns:xlink="http://www.w3.org/1999/xlink">
    <g stroke="none" stroke-width="1" fill-rule="evenodd" fill-rule="nonzero" fill="#000000">
        <g transform="translate(6.000000, 6.000000)">
            <path d="M15,18.7468627 L18.7468627,18.7468627 L18.7468954,18.7468627 L18.7468954,15 L20,15 L20,5 L18.7468954,5 L18.7468954,1.24562092 L15,1.24615242 L15,0 L6,0 L6,1.24742909 L1.23813725,1.24810458 L1.23759773,5 L0,5 L0,15 L1.23615972,15 L1.23562092,18.7468627 L6,18.7468627 L6,20 L15,20 L15,18.7468627 Z M0,0 L20,0 L20,20 L0,20 L0,0 Z" id="Shape"></path>
        </g>
        <g transform="translate(6.000000, 6.000000)">
            <path d="M14.0321584,7.13266345 L20,1.17660131 L18.8405556,0.0197058824 L12.874188,5.97469303 L14.0321584,7.13266345 Z M14.0319102,12.8675848 L20,18.8234314 L18.8405556,19.9802941 L12.8739782,14.0255167 L14.0319102,12.8675848 Z M7.07571409,14.0757141 L1.15941176,19.9802941 L0,18.8234314 L5.9175781,12.9175781 L7.07571409,14.0757141 Z M5.91733184,7.08266816 L0,1.17660131 L1.15941176,0.0197058824 L7.07550612,5.92449388 L5.91733184,7.08266816 Z" id="Combined-Shape"></path>
        </g>
    </g>
</svg>