<?xml version="1.0" encoding="UTF-8"?>
<svg width="500px" height="300px" viewBox="0 0 500 300" version="1.1" xmlns="http://www.w3.org/2000/svg" xmlns:xlink="http://www.w3.org/1999/xlink">
    <!-- Generator: Sketch 43.2 (39069) - http://www.bohemiancoding.com/sketch -->
    <title>Artboard 2</title>
    <desc>Created with Sketch.</desc>
    <defs></defs>
    <g id="Page-1" stroke="none" stroke-width="1" fill="none" fill-rule="evenodd">
        <g id="Artboard-2" fill="#000000">
            <polygon id="UA" points="300.568182 10 273.295455 12.8409091 264.772727 11.1363636 259.090909 19.0909091 248.863636 17.9545455 248.863636 17.9545455 225.568182 19.6590909 218.75 27.6136364 219.886364 45.2272727 208.522727 41.8181818 184.090909 43.5227273 175.568182 35 166.477273 41.25 155.113636 36.1363636 133.522727 35.5681818 101.704545 27.0454545 73.2954545 24.2045455 52.2727273 25.3409091 38.6363636 34.4318182 26.1363636 36.1363636 43.75 66.25 42.0454545 76.4772727 28.9772727 80.4545455 7.38636364 109.431818 16.4772727 125.340909 10.2272727 123.068182 3.97727273 132.727273 0 146.931818 16.4772727 156.590909 19.8863636 165.681818 30.6818182 158.295455 48.8636364 162.272727 67.0454545 162.272727 80.6818182 170.795455 89.7727273 165.681818 110.227273 162.272727 115.909091 153.75 127.840909 153.75 134.090909 148.636364 152.272727 145.227273 174.431818 156.022727 185.795455 157.727273 200 166.818182 200 178.75 210.795455 185 217.045455 199.772727 228.409091 208.295455 227.272727 213.977273 232.954545 217.386364 226.136364 220.227273 209.090909 219.090909 205.681818 213.977273 200 216.818182 202.840909 223.068182 196.590909 234.431818 193.75 246.363636 186.931818 250.340909 200.568182 256.590909 213.068182 250.909091 226.704545 257.159091 245.454545 231.022727 252.840909 211.704545 278.409091 207.159091 282.386364 220.795455 327.840909 229.318182 337.5 237.272727 311.931818 249.204545 307.954545 256.022727 340.909091 266.25 337.5 282.727273 354.545455 290.113636 390.340909 269.659091 420.454545 263.409091 423.863636 250.909091 394.886364 253.181818 379.545455 244.659091 373.863636 222.5 396.022727 209.431818 422.159091 207.727273 439.204545 196.363636 461.363636 193.522727 459.090909 177.613636 471.590909 167.954545 498.295455 165.113636 500 153.181818 489.772727 133.863636 497.159091 115.681818 494.886364 104.886364 451.704545 93.5227273 435.227273 94.0909091 414.772727 77.6136364 394.886364 83.2954545 357.386364 70.7954545 356.25 63.9772727 343.75 48.6363636 321.022727 47.5 317.045455 36.7045455 322.159091 29.3181818 300.568182 10"></polygon>
        </g>
    </g>
</svg>